<mxfile host="app.diagrams.net" agent="Mozilla/5.0 (Windows NT 10.0; Win64; x64) AppleWebKit/537.36 (KHTML, like Gecko) Chrome/131.0.0.0 Safari/537.36" version="25.0.3">
  <diagram name="Page-1" id="tX9_EnB0BfzdQebO-y80">
    <mxGraphModel dx="576" dy="305" grid="1" gridSize="8" guides="1" tooltips="1" connect="1" arrows="1" fold="1" page="1" pageScale="1" pageWidth="256" pageHeight="256" math="0" shadow="0">
      <root>
        <mxCell id="0" />
        <mxCell id="1" parent="0" />
        <mxCell id="xH75gQ5x_mctSOZbt7gt-1" value="" style="shape=tape;whiteSpace=wrap;html=1;fillColor=#fff2cc;strokeColor=#d6b656;" vertex="1" parent="1">
          <mxGeometry x="8" y="8" width="240" height="240" as="geometry" />
        </mxCell>
        <mxCell id="xH75gQ5x_mctSOZbt7gt-2" value="" style="shape=image;verticalLabelPosition=bottom;labelBackgroundColor=default;verticalAlign=top;aspect=fixed;imageAspect=0;image=data:image/svg+xml,PHN2ZyB4bWxucz0iaHR0cDovL3d3dy53My5vcmcvMjAwMC9zdmciIHZpZXdCb3g9IjAgMCA1MTIgNTEyIiBoZWlnaHQ9IjgwMHB4IiB3aWR0aD0iODAwcHgiIGZpbGw9IiMwMDAwMDAiPjx0aXRsZT5pb25pY29ucy12NV9sb2dvczwvdGl0bGU+PHBhdGggZD0iTTMxNCwzNi4zOGMtMTguNTktMy4wNi00NS44LTQuNDctNjQuMjctNC4zOGEzMTEuMDksMzExLjA5LDAsMCwwLTUxLjY2LDQuMzhjLTQ1Ljc0LDgtNTQuMDcsMjQuNy01NC4wNyw1NS41NFYxMjhIMjU2djE2SDEwNy42MkM2Ni4wNiwxNDQsMzIuMzMsMTkzLjY3LDMyLDI1NS4xMmMwLC4yOSwwLC41OCwwLC44OGExNjIuOTEsMTYyLjkxLDAsMCwwLDMuMTMsMzJjOS4yOSw0Ni4yOCwzOC4yMyw4MCw3Mi40OSw4MEgxMjhWMzE0YzAtMzEuMywyMC44NC01OS45NSw1NS02Ni4xbDkuODctMS4yM0gzMTRhNTYuMDUsNTYuMDUsMCwwLDAsMTUuMDYtMkE1Mi40OCw1Mi40OCwwLDAsMCwzNjgsMTkzLjY4VjkxLjkyQzM2OCw2MywzNDMuMzIsNDEuMTksMzE0LDM2LjM4Wk0xOTQuOTMsMTA1LjVhMjAuMzcsMjAuMzcsMCwxLDEsMjAuMy0yMC4zQTIwLjI5LDIwLjI5LDAsMCwxLDE5NC45MywxMDUuNVoiLz48cGF0aCBkPSJNNDc1LjI4LDIxN2MtMTAuNy00Mi42MS0zOC40MS03My03MC45LTczSDM4Ni42N3Y0Ny40NWMwLDM5LjU3LTI2LDY4LjIyLTU3Ljc0LDczLjEzYTYzLjU0LDYzLjU0LDAsMCwxLTkuNjkuNzVIMTk4LjA4YTYwLDYwLDAsMCwwLTE1LjIzLDEuOTVDMTYwLjU0LDI3My4xNCwxNDQsMjkxLjcsMTQ0LDMxNS43N1Y0MTcuNTRjMCwyOSwyOS4xNCw0Niw1Ny43Myw1NC4zMSwzNC4yMSw5Ljk1LDcxLjQ4LDExLjc1LDExMi40MiwwLDI3LjE5LTcuNzcsNTMuODUtMjMuNDgsNTMuODUtNTQuMzFWMzg0SDI1NlYzNjhINDA0LjM4YzI5LjQ0LDAsNTQuOTUtMjQuOTMsNjcuNDUtNjEuMzFBMTU2LjgzLDE1Ni44MywwLDAsMCw0ODAsMjU2LDE2MC42NCwxNjAuNjQsMCwwLDAsNDc1LjI4LDIxN1pNMzE2LjUxLDQwNGEyMC4zNywyMC4zNywwLDEsMS0yMC4zLDIwLjNBMjAuMjksMjAuMjksMCwwLDEsMzE2LjUxLDQwNFoiLz48L3N2Zz4=;" vertex="1" parent="1">
          <mxGeometry x="128" y="32" width="112" height="112" as="geometry" />
        </mxCell>
        <mxCell id="xH75gQ5x_mctSOZbt7gt-3" value="" style="shape=image;verticalLabelPosition=bottom;labelBackgroundColor=default;verticalAlign=top;aspect=fixed;imageAspect=0;image=data:image/png,iVBORw0KGgoAAAANSUhEUgAACAAAAAgACAQAAAAYrhu7AAAABGdBTUEAALGPC/xhBQAAACBjSFJNAAB6JgAAgIQAAPoAAACA6AAAdTAAAOpgAAA6mAAAF3CculE8AAAAAmJLR0QA/4ePzL8AAAAHdElNRQfoBwYSCBqLkbTvAACAAElEQVR42uzdd7gV1b2H8Zdz6F2pKtJUwN4Lgh2NBRB7BTUxGkvE3BSNMRFjipqYiMauUbFEJVawooJSbAg2UESqIKDSezvn/iESVMope++ZNev98Dy5z1U5Z8131uy91m/WrAFJkiRJkiRJkiRJkiRJkiRJkiRJkiRJkiRJkiRJkiRJkiRJkiRJkiRJkiRJkiRJkiRJkiRJkiJSxQgkSYroe38L2lCLzYC5LGUSMyg1FkmSLABIkqRsaMCPOJB92IUa3/s3y/mAt3mdF5lvTJIkSZIkhaoGp/IiKyjdxJ8VvMipPygPSJIkSZKk1KvPFXy5yan/un++5ArqG5wkSZIkSaGoys+ZU67J/7d/5vBzqhqgJEmSJEnptyvvVWjy/+2f99jVECVJkiRJSrMq/IJllZr+l1LKMn7hVsGSJEmSJKVVde6v9OT/2z+PUMtAJUmSJElKn7oMydn0v5RShlDXUCVJkiRJSpc6DM7p9L+UUoZRz2AlSZIkSUqPYgbkfPpfSikv+E4ASZIkSZLS4195mf6XUsq/DFeSJEmSpHQ4IW/T/1JKOc2AJUmSJElKXkvm5rUAMJeWhixJkiRJUtIG5nX6X0opAw1ZkiRJkqRk9cj79L+UUo41aEmSJEmSklOLiQUpAEyhjmFLkhSyYiOQJCloVxXo3nwDVjPYuCVJkiRJSsI2LC3I/f9SSllOOwOXJClcVYxAklRAm7EdTWhETWAhXzCTiaw0lkoYyDEF/G0v8SMjr4RqtKU5W1IPWMZsvmI8c41FkiRJUpbsxq8ZwKz13lV+j9s5kc0MqQJ6FOzuv1sBVsZmnMjtvMfy9SQ6iwH8mt0MSZIkSVLotuYaxpdpefnTnERVAyuHQm3/51aAFVeVk3h6vRP/7/8ZzzVsbWCSJEmSwrQT/VlZrunlZH5BLYMro2sKPv0vpZQ/GnwZ1eIXTC5Xtivpz04GJ0mSJCksW9CP1RWaYE6lp3vUlEEht/9zK8DyqkJPplYo39X0YwsDlCRJkhSKc5lbqUnmIFoZ4iYMTGT6X0opLxr+JrRiUKUSnsu5hihJkiQp/erTPweTzPkcb5Qb0SOx6b9bAW7K8czPQcb9qW+UkiRJktKsLeNyNMks4U8+CrABSWz/51aAZVGFP1GSo5TH0dZAJUmSJKXV7szM6UTzbooNdT2uSXT671aAG1LM3TlNeSa7G6okSZKkNNqZ2TmfaD5EkcF+T1Lb/7kV4MYV8VDOc57NzgYrSZIkKW3aMCMvU83bjPZ7nkt8+l9KKc95Ir7ntrzkPIM2RitJkiQpTWrxbt6mmn2Mdx09UjH9dyvA7+uTt5zfd8cFSZIkSWnSL69TzZ8Z8NpCy8TUFADcCvB/fpbXpPsZsCRJkqS06J7nqeZqTjJkIA3b/7kV4Pr6/6o8J32CIUuSJElKg4Y53vt/fX+WcrBBp2L7P7cC/L6DC3BWZtLQoCVJkiQl7/qCTDbn+0o0BqZq+l9KKS9Gf052Zm5Bkr7ODxpJkiRJSdu6YHelv4h8P/QeqZv+uxVgG74oUM5L2doPG0mSJEnJ+kcBJ5uf0SzanNO0/Z9bAX6jMZ8UMOkb/LCRJEmSlKT6zC/odHMk9SJN+ppUTv9j3gqwHiMLmvN86vuBI0mSJCk55xd8ujmI6hHmnLbt/9wKsDqDCp70+X7gSJIkSUrOsAQmnI9QFF3OA1M7/Y9zK8Aq9Esg56F+4EiSJElKSitKEplw3hpZzj1SPf2PcSvAfyaScglt/dCRJEmSlIwrE5twXhFRymnd/i/erQB/l1jOv/NDR5IkSVIyPkpsIlTCudGkfE3qp/9xbQXYM6F1L6WU8rEfOpIkSZKSsFeiE85VHB9Fymne/i/GrQC7sTLRnPf0g0eSVFFFRiBJqrAzEv3txTzIARGkfDM1g2hndW6M4Gzsx3+oGvFVJ0mSJClKxcxI/K7zPHbNeMo9grj7H8tWgDsyO/GMZyZcgJAkSZIUoR+lYso5ndYZzjiE7f/i2QqwBVNSkfIRfvhIkirGRwAkSRWVjqXIWzKIppnN+AraBNXellyW2XPRiEG09MqTJEmSFJ/aLEzNfec3M3rfOZTt/9b9syyjWwHW4c3UZLyQ2n4ASZIqwhUAkqSK6UHd1LRlX56megYz7hvI9n/rqsHNGTwT1ejPvqlpTd3M77UgSZIkKVWeTdmd54cyV9TuEdzd/6xuBViFe1OW8EA/gCRJkiQVShNWpG7a+a9MJRza9n9Z3grw76lLeCXN/BCSJJVfsRFIkirgJ3RNXZv2YQkjMpPwVQHfR2/AagZn5kz8hj+krk1FTOFtP4YkSZIkFcKbqbzzXMI5Gck3xO3/srkV4BmUpDLhN/wQkiRJklQI26Z0UlTKKnpkIuGBQU//SynlxUych2NS+KjLt3/a+UEkSSov3wIgSSq/M6mS0pYV8zCdgs+3B8cEfwxHZGArwH14lGqpbd1pfhBJkiRJyr9xqb73/DXbB51uyNv/ZWkrwO2Ylep8x6e2DCdJSi1XAEiSymu/lC8+bsQgWgac7xW0yUQ/acllAbd+KwbRNNUt3JZ9/DCSJEmSlF83B3D3+SM2DzTd0Lf/y8ZWgJvzUQD53uyHkSRJkqR8qsrMICafbwa6AH1gZqb/4W4FWIuhQaT7ZYp3KJAkSZKUAccEM/kcSNXg0u2Rqel/KaUBbgVYzBPBpHu0H0iSJEmS8ufhgCafDwS2TVpWtv8LeSvAKtwdULoP+YEkSZIkKV/qsCio6edfgkr3msxN/0sp5Y9BnYO/BpXtYur5oSRJkiQpP3oFN/38v2CyzdL2f6FuBXhhcOn29ENJkiRJUn68GNwEqYSzAsl2YCan/yFtBXgqq4PL9gU/lCRJkiTlQzNWBjj9XMGRAWTbI7PT/1C2AjyUZQEmu4rmfjBJksqqyAgkSWV2eoD76kM1HqdjyttYi39kuufclPqtAPfiaWoEmGwxp/rBJEmyACBJyr0zAm13bZ6hQ6pbeAVtMt1zWnJZqtu3LQOp61UpScq6KkYgSSqj7RkbcOsn0YkZKW3bNnxEzYz3nuXswqcpbdsWDA+6ALMDH/vxJEkqC1cASJLKKuw7jW14ic1S2ra+mZ/+Qw1uTmnL6vNc4OsvTvfDSZIkSVIuVWFi8FvRvZbKiXa2t/9L+1aA1RkUfK6TXdEpSZIkKZc6Z2IK+nTqtjGslYHCSln/TEndVoDF9M9Esp38gJIklYWPAEiSyiYbW41159aUtSjr2/+tK31bAd7IiV6dkiRJkrSu6nydmfvQV6co121YGs39/1JKWUa7FKX/x8zkOjvIVxhKkiRJSqVjMzUN7Z2aXAdGNf0vpZQXU5P9zzKVa3c/pCRJm+amMZLiVpVmtKAe9SliHvP4nFmGsl6PcVKGjqaEU+mfgnb04MkI+1IPnk5BK47lcYozdYWe4sfUejVjaxrSkBIWsJBpzGKVoUiyACBJcWlEFw5lD3b6wa7wCxjLCIYyiMXGtFZ9ZlIrU0e0gm68lHAbajEmouf//2cqOyR+dR3M8xl79eIytmCeH1Vr1eFwDmB/dqD+D5L6iFG8ysvMNiZJkqTsDwvP4mVWb3JB7RKeokem7hBWxo8zuBR9AXsknOo10S3///bPHxNOfmfmZjDVc/ygAqCYHjzFkk3mtZqXOSt176WQJElSzjThGmaX87Vll2bsPmHFvJLJaeiXiW5IF9v2f+nZCrAtMzKZ6st+UFGTS5lSzu0Tr6GJwUmSJGVNDS5jfoWG1dM4J/IHprZkVUYnohNonliqA6Od/ie7FWATxmU009W0iPpzqgrnMK1Cyc3nMt+iIEmSlCX7VXLQ/xrtI07vNxmeiL5Pw0Qy7RH19L+UUo5NJPd6vJvhTH8d8adUe16rVHbj2M8vSkmSpCwo4ipWVnpovZhzo03w/UxPRAcncO+vFhOjLwBMSeDp6+q8mOlM34v2M+pcFlc6vZVcRZFfmJIkSWGrx1M5G17/5wf7Scdgh8xPRZ8s+GaP10Q//U9iK8AiHs18pjtH+AlVn//kLL+nqOeXpiRJUrg2482cDq8nR7hM9NoIpqK3FTTRmLf/S3IrwBsjyPSv0X0+7cH4nCb4Lo394pQkSQpTozwsXl/GJVFtCViFSVFMRq8sYKYDnfwnsBXg76NIdGpUi9ircAnL8rAvSCO/PCVJksJTk6F5GmQ/zebRpHhwNJPRiwuU6LFO/BPYCvCn0SR6UDSfTQ14LE8ZvkVtv0AlSZJC80heNzDrGEmKd0UzcVrFCQXI0+3/ktgKsFsOtgEN5c+dkXwydWRKHlN8xC9QSZKksFyY52H2SvpEsNi2JnMjmowu5cC8J+r2f4XfCnC/HOwQH86fedTK/OdSFXqzIs85XuCXqCRJUji2L8g2ay/QNOM5nhDZZHQ+u+U1T7f/K/xWgDsxJ7JEj8/4p1JTXihIOXB7v0glSZLCUIVXCjTUnsURmU7yieimo9Npncc83f6v0FsBbs3U6PJ8PNOfSQczvUA5vh7Vdq+SJEkBO7OgT473Kfhb5AtlszzssJ3+P+Nplqc8ezjZL/BWgI35OMI0l2d2F/ti+rCqgEme6ZepJElS+lXjswIPuIewVSaTPD/S6eg71M1Dmm7/V+itAGszItI8z8vk51EzXipwjpOo7heqpKwpMgJJmXMm2xT4Nx7EaI7KYJJnRNqD9uJpauT8p15BGy/ODWjJZXkoBD4ezbs6Yrhyj+JDDi/w72wd7WegJElSQEYmcs+thL4Zu1vUktUR35N+OMclcrf/K+xWgFW4L+I0S/K6k0XhVaVPQp9Go/1ClSRJSrd9Exx2v0GrDCV5ReRT0ltymqbb/xV2K8AbIk/ztxn6JGrFGwkmua9fqpIkSWn2z4RfI3dKZpL8MPopae6Wpbv9X2G3Arw8+izHZuZz6FhmJ5rkP/xSlSRJSq8qTEp86H1zHp4fL7zdnZBSwo9zkqXb/xV2K8AzKTFNdsvAp1ANbk48x0m+DFBStrgJoKRsaZeCZ18v5g22Cz5JN7+CKtzJcTn4Ob91+78yyc1WgMdwr1O2TFzBrXmNi1PQiu3sTJIkSWn145TcfVsQ+PC7iGneQ6WUUpbQuZJZuv1fIbcC3JdF5kgppUynOOjPoBOYm5Ikz/GLVVKWuAJAUrbsk5J21ONB7qZ2sDkeylZ2JgBqMZBdKvUT+lLTGMuoBjdX6u/vwHM5eowgfFtycLBtr83d/JeGKWmN2wBKypSqRiApU3ZIUVt+wn6cwpggc/QBgP9pwHN0Ykq5/s5mbMlmbMGWdOQYIyyHIxjAu3zBDObyBZ+zshx/dyueY3MjXOcqfiXIdu/Io+zot4ok5YdPyUnKllk0TVV7lnE5fYNLsSYzaWBnWsd4OvPlev55DRqtmeiv+79NLK/n8Ar6thjwv/+dysL1/JeNeN2p2ncsYAuWBNfqXtyaslUcs2huZ5JkAUCS0qgB81LYqsc5N5Xt2rBT+Y+d6Xve5lAWsxltacuWbLHmf1v7KF0i5jKDL5i45n8n8jlVGUQng/nBlfxoUO2tx22pXH20WWCf4JJkAUBSJPbhrVS2azKn8WZAOT5DNzvTDyyhunf2U2sl1QzhBwbQPaDW7sEjKd1xfx/esTNJygrvXEjKknYpbVdrhnBxMCXXzfmRXWk9ajv9TzGn/+tzJI0DaWkVLmZEal+4196uJMkCgCSlUXrf11yDm3kykA3KTqO6XUnKgGqcHEQ7G/AIN1Mjte3b1q4kyQKAJKVRuu/THMt7QTyl7BsApKwI4Wrem1EpL1S4AkCSBQBJSqV2KW/f1gyhT8o/ebdhPzuSlBH7p3hdFEAVejOMtn6zSJIFAEkq/1Byu9S3sSpXMZAmKW7hGW4PK2XIqSluWxOe5cYAHjlq56eipCwNlyUpK7ZiWiAt/ZKevJTStn3iclcpQ8an9v71QTzEVsF8u3xhV5KUDa4AkJQd4SzTbMoLXEtxClu2t9N/KVO2Y68UtqoKl/FKMNN/HwKQZAFAkhyiZXL46waAUtacmboWpbcEagFAkgUASQrGdoG19yDe4+hUtahqqp8XllQRp1I1Ve05jPc5wm8XSbIAIEmVE949msYMpG+KtsDqQjO7kZQxzeiSmrZUpQ8v0dxvF0myACBJMQ7RqnBJil6CdaadSMqgtDzaszVDuCrIsacFAEmZ4VsAJGVFVZZQLdC2z+c8Hku8FXWYSV07kpQ5i2jO4sRbcSz/ZvNAE1xJHVbakSRlgSsAJGVFm2Cn/9CAR+lHrYRb0cPpv5RJdemRcAtq0Jcng53+QzVa2Y0kWQCQpDQJfYlmT4YlvNGUbwCQsirZq7s1Q7gk8FWnPgQgyQKAJDk8y6k9eDfBYXpTDrcTSRl1eIIbfJ7AaPbzG0aSLABIksOz76rHg/SjTiK/O22vCpOUO1U5JZHfW5O+/JeGfsNIkgUASXJ4tj49GcnOCfxe3wAgZVkSq4s68BaX+A0jSRYAJMnh2cYGzW/Tu+Dp7W0XkjJsn4J/RvZiJLv4DSNJFgAkKffqsFWGjqYmNxZ42awbAEpZd3oBf1c9HuT+hB5nyo8WmToaSRYAJClw2wW+w/QPncBo9i3YbzvNLiRl3JkF+5TcPdENTfOjCtvahSRZAJCktMji8szWvEbvggzZOyb8AkJJ+bdNgfbi78XwTH6i+BCAJAsAkuTQLK9qcCNPsnnef48bAEoxyP9d+fo8wv3U8ltGkiwASFI+ZfcO9rGMplNef0M1TrYDSRE4hWp5/fl7Mzqh1w36LSNJFgAkRSXL92ZaMphf5fFRgCNpbAeSItCYH+XtZ1fhVwynbYbTa28HkmQBQJIsABRCNf7GSzTP008/3e4jRSJfDwE0ZgB/y/P6Ar9lJCkHqhiBpAxozFcRHOUsejIo5z+1HjOpbReSorCULZif8596EA9l6kWsG/6mmW0XkhQ6VwBIyoI4lmY243n6UJzjn3qC038pGrXokeOfWIXeDIpi+u9DAJIsAEhSSsSyNLOYq3iZLXP6M8+w+0gRye07P5ryAjdmfOl/fN80kiwASFLKxbQ788G8x9E5+lnF9OAwu48UkcPokbN1RIfxHkf4TSNJFgAkqbDiui/ThIH0reQ9tzp04w6m8aR7wUhRqcKTfMlj9KJhpX5OVfrwElv4TSNJoX0NSFL4PmDn6I75HU5lYgX+Xlu60ZUDqW63kaK2mjcZwMu8W4G/uzUP0znCb5pd7TaSLABIUtKKWEStCI97Pj+lf5n/62I60pXubG+HkbSOibzMQF5kRZn/RnfuZfMIk1pKXUrsMJIsAEhSsloxOdpjv5NLWL6J/6YRh9KNbpVc8CspyxYzmAEMYMYm/rtqXMNvoh0/tmKqXUWSBQBJStbhvBTx0Y/iFD7bwL/7Zrn/wVS1k0gqgxJGM5ABjKJ0AxPgR9gv6m+bl+0kksLmJoCSwhf3xkx7MIrTv/fPqnI4tzKFCdxIF6f/kso8LtyTqxjJRP61ns+O43kv6um/2wBKsgAgSSkQ+6uZ6vEQ/agDQA260JdpvMQFtLRrSKqQ1lzEIGbRj27UAKAmfXk8+geJfBGgpOD5CICk8D3HUYbAJ9zCPnSngVFIyqElvMowzmQno+A5jjEESRYAJClZE2hrCJKkvH/bbGsIkiwASFKSqrOEYmOQJOXZaups8r0rkpRq7gEgKXTbOv2XJBVAsevNJFkAkKRkuSmTJKkwfA+AJAsAkpSo9kYgSbIAIEkWACRlnysAJEl+40iSBQBJEfB+jCSpMFxzJskCgCRZAJAk+Y0jSWnnawAlha0+8w1BklQgDVhgCJLC5QoASWHzbowkyW8dSbIAIMmhmCRJOeQ2gJIsAEiSBQBJUgTcBlCSBQBJsgAgSYqAKwAkWQCQJIdikqQIWHaWFDTfAiApbPOpbwiSpAJZ6LeOpJC5AkBSyJo7EJMkFVA9mhuCJAsAkpQEN2OSJBWWDwFIsgAgSYlwBwBJkgUASbIAIMlhmCRJOWbpWZIFAEmyACBJioAPn0myACBJFgAkSRFwBYCkgPkaQEnhKmYJ1Y1BklRAK6jNamOQFCZXAEgKV2un/5KkAqtOK0OQZAFAkgrNBwAkSYXnLgCSLABIkgUASZLfPpKUXlWNQArKljSjLjVYySJmMJMSh2CSJBVU7NsAFtGcLahLNZaziFl8YZeQLABIyqWWHM7+7EU7an7nn6/kM97lbV5gvAUASZIKItZHALbjSPZhT7al2nf++TI+ZSQjGMRUO4eUdr4FQEq3JpzNqeyxyf9uPA9xP5MjS2cKLe0ikqSCf/u0juyIW3MWZ5Rh5cMoHuE+vrKLSBYAJJVfe37HydQo839fwrNcz7Bo8qnFIvcxkSQVXAl1WRrN0XbmNxxTju/b5TzGnxlnN5HSycGzlE7NuJcx9CzH9B+K6MZQhnJ0JKW97fwEkyQlMn7eNorjrMLRDGUo3cr1fVuDnozhXprZUSQLAJLK9oV7Pp9wNsUV+tudeZbRnFrBvx1WAUCSpCRkfw+aYk5lNM/SuYJ/+2w+4XzXGksWACRtSgMe4XYaVupn7Mp/GE9vajn8kiTJb6ByqU4vxvAfdq3UT2nI7TxFIzuLZAFA0oZtyzucnJOf1IYbmUyfSpYSHH5JkvR92V2DVpfeTOD+HL3poDvvsL3dRbIAIGn9OvN2TgcVTbmKiVxDEwsAkiTlTDZfBNiEa5jKjbTI4c9sw/AKPkYgKS98MkdKj468SL28/OTl3M+fM/d23q9dWChJSugbKGul9eZcysXUycvPXszRvG6nkSwASFrXLgylfh5//koe4jo+yUxemzPbTiNJSkgj5mTmWDpwGWdQLY+/YQEH8IGdRkoDHwGQ0jKQeCKv03+oxtmMYQD7ZSQxHwCQJPktVFm70Y+PODuv03+ozzM0tdNIFgAkfXslPso2Bfk9XXmDQRyagcza220kSRYAKuFQBjGangV5cXArHnbeIVkAkPSNSzmsgL+tC68wml4F+cLPn+3sNpIkCwAVUoVuvMErdCng7zyM3nYbyQKAJGjNnwr+O3fjfj7grDwv+XPoJUnKpnDL0NU4i494JoFHAv9MazuOZAFA0g3USuT37sB9fEZvalsAkCSpXMJ8EK0GvRjLfeyQyG+vxd/tOFLSfAuAlLSOjEi4BV/Rl1uYF9hn18I8vaxIkqRNW0w9SoNqcUMuonfiry/cnzfsPJIFAClmA+iaglYs4t9cz/RgUtuaqXYdSVKCWvJ5MG1tyoX0pmEqRj3d7TqSBQApXh0Ym5rrcBn38TcmBpHbYbxs55HKYRrj+JSpLGYxC5nPYqAODahHHerQina0Zytjksr1TfRqEO1sy685m5opaU0pO/CJnUdKTlUjkBL14xSV4WryM87jOa5mZOpzcwcAqSw+YTDD+YRxLCrDf12PdnSgM4f4mk2pTN9E6S8A7MRvOC1V4/0qnMNldh4pyYtQUnKKmMYWqWtVKc9yLcNTndw/+IXdR9qg6bzIYF7liwr+/S05lEP5EVsapbSRb6Jfprp9nbicY1I41p9BC0rsPpIFAClG+/BWats2nOsYmNoNjp7laLuPtB5LGUg/XmBVDn5WER3pxenUNVZpvd9EXVPbts5cluLW7cM7dh8pKb4GUErSUSluWyeeYRSnUJzK1m1n55F+4FV60ZSTGZiT6T+UMJzz2YKzGWK40g+k82G0Yk5hNENTPP3HEr6UJFcASEkaRJfUt3ESfbmTpalqUzWWuIOJtI5SBvLnvK4o2o1fcKa3DaR1rKI2K1PVouqcym/pEMDo5wi7j2QBQIrR1zQKop2zuJ1/Mj817enAx3YeaY0SnqUPowrwm3bi15xu8U1a59toXGraUpef8CtaBJHbHBqn9hFDKfOs5UvJ2SKQ6T804yomcjWNU9IeHwCQvvUC29O9INN/+Iiz2JlBhi6tkZaHABpzNVO4MZDpP2xOczuPZAFAik+roFq7OX9gMn3ZOgVt8RVlEsAX9OIoPi3o7/yEI+jGVMOXUlIAaE4fJvAHNg8quZZ2HskCgBSfrYJrcR0u4TPuSXwC7goAaRV96cADifzugexAH1Z4EmQBIOHf3557mMJV1A8uuRZ2HskCgBSfMF+tVZ0fM5b+7BnxkEtK2nj24VIWJvb7F3M1nZjgiZAFgMTsSX/G8mOqOwKSZAFACkPNgD85TmQkL3KIBQApAU+wD6MTb8VI9uART4ailtR6tEN4kZGcGPA4vqadR7IAICk0R/Aqo+hFcYF/b122MHxFaxm9OYF5qWjLAk6jV8peEioV0pYFv5NdhW6M4NXgX6PnOwAkCwBShJZk4Bh2537epyfVCvg72/kCU0Xrc/bjplS16AE6M90To0hVKeiKtGr05EOeoWMGkrNwKFkAkCK0KCPHsSP9GE9vahfo9+1g11GkPqYz76euVaPoxCeeHEVqxwL9nhr0Ygz9Cvb78m2hXUeyACBZAAhZK25kMn3YLO+fWSel7P6nVCjvcFBKX783hU6M8AQpSjdzXt4fhKtHbyZyf6begLPIriNZAJDik7X6dxOuYgp92TJvv6ELo3ks70UGKY1e4TC+Sm3r5nAEz3uSFKEG3MGHnJS3R9Oa0Icp3JjHb1ZHQJIFAEkFksX6dz0uYRL98vBUZGeGMohd7DaK0kCOSvmAeTHH8pwnSlHansd4k8Ny/nNb05fJXJXJsrcrACQLAFKEslr/rk5PPmYAe+bsJ+7Dywyls11GkXqLU1mZ+lau5ESGe7IUqX14mWE5/J7aiX6M55KC7a7jCEiKhntpS8lpxNeZPr5SnuWvlX4yeHuu5kQ/qxSxMRzInEDa2pDXXKejqL3ML/mgkj9jDy7ljIzfpGsUzKeaZAFAUs5UZ3kERzmc6xhYwTf+tuR3/CTv2ytJaTaNTind+m/9tmI4rTxtilgJj3M5Eyv4tztzGV0jSKkGK+wqkgUAKT7LqR7FcX7ADTzMqnL9ncb8it7UtJMoaovYh48Da/NOvJXZZctS2azgPq5iZrn+ThHHcCX7RDL68dtdSox7AEjJDu7jsAv3M64c0/m6XMYELnOAoOhdFNz0Hz7iYk+cIled8/iMa2lY5v++F2N4JpLpv1sASolyBYCUpMmRLZWdxe38k/mbGAadzTU0tXNI3MO5gbb8Ps7y9EnM4XpuYulG/5s6nMsv2Tqy0U8bO4dkAUCK0UfsGN0xL+A2/sbs9f67InrxJ7ayY0jAGPZhSaBtr8Pb7OAplIBp/I4HKVnvv6vPBfyaRhGOfna2Y0hJ8REAKUkxvganPpcxhb7rudtxKCO51+m/BMASTg52+g+LOWUTdz2lWLTgft7h4B/882b0YSrXRjj99yWAkgUAKVqxPgVXh0v4jH50WPtP2vEYr7C7XUJa40+MDbr9H3GtJ1FaYw8GM2idNX9t6ctkrqKBox9JFgCkmMRcA69OT8YwgH3YnGv5kJPsDtJa4/lH8MdwHeM8kdJaXRjNHTRlF/oxjkui3ubWFQBSgtwDQEpSP3oaAquoagjS96YKr2TgKA7nJU+l9B0rqerom35uEyolxxUAUpJcBAc4/Ze+5+FMTP9hEP/1ZErfUc3pv6MfyQKAFC8XwUn6vsX8KjPH8gu3ApTk6EeyACDpG9bAJX3fnczIzLFM4x5PqCRHP5IFAEl+BUr6oeXckKnjuZ4VnlRJjn4kCwCSXAQn6fvuY3qmjudzHvCkSrIAIFkAkGQBQNJ3rebvmTumv7LKEyvJ0Y9kAUCSNXBJ63qUzzJ3TBN8F4AkRz+SBQBJ1sAlfVc2t8z7tydWkqMfyQKAJGvgkv5nOq9l8rheYZonV5KjH8kCgORXoCR9635WZ/K4SviPJ1eSox/JAoDkV6AkfevhzB7Z/Z5cSWv5CIBkAUDyK1BS5N5hTGaPbQyjPcGSHP1IFgCkuC2m1BAkATDAo5MUgVKWGIJkAUCKU4lfgpLWeDXTRzfYEywJgMWUGIJkAUCK1QIjkAQs4Z1MH98Iy52SAB8AkCwASFFbbASSgNdZkenjW8EIT7Ik3ABZsgAgRc06uCSIYYn8q55kSRYAJAsAkl+DkvR65o/wNU+yJLz1IVkAkPwalBS9sR6hpCh460OyACD5NSgpajMi2BB0Hl96oiV560OyACD5NSgpbuM8SkmOfCRZAJCyzhUAkiwASIqH7z+SLABIEbMOLskCgKR4LDACyQKAFC9XAEiCKVEc5URPtCRXAEgWACQLAJLiFscdsa890ZJc+yhZAJD8GpQUtzhKgbM90ZK89SFZAJD8GpTkJ0H2zfdES/LWh2QBQHLYLylucTwCsNwTLcmRj2QBQIqZdXBJsQyIV3iiJVkAkCwASBYAJMVttUcpyZGPJAsAUtZZB5cEdaI4yhqeaEmOfCQLAJJfg5LiVs8CgKRIuAJAsgAg+TUoyQJA5tXxREvy1odkAUCK2XJWGoIUvbpRHGVjT7QUvZW+D0SyACDFzUq4pDhWADTyREvRc+WjZAFA8qtQUuSaR3GUW3mipeh520OyACD5VSgpcu2iOMr2nmgpet72kCwASH4VSopce49SUhS87SFZAJD8KpRkAcCjlBQBb3tIFgAkvwolRa4t1TN/jNVp5YmWoudtD8kCgORXoaTIVWWbzB/jdlT1REvR87aHZAFAsgAgKXr7Zv4IO3qSJTnqkSwASLGzFi4JDvEIJVkAkGQBQPKrUFL2dcn8ER7sSZbkbQ/JAoDkV6EkbUm7TB/fDmzpSZbkbQ/JAoDkV6EkZX2J/KGeYEl420OyACD5VWgEkoAfZfrojvAES8LbHpIFACl6i41AEnAMjTJ7bJtnvLwhyQKAZAFAUpm4AkASQHVOyuyxnU51T7AkCwCSBQBJfhVK+kZPj0xSxnnbQ7IAIPlVKEnA/hl9E8B27O3JlQR420OyACBZADACSWucmcmjOosqnlpJjnqkNPArWUpafeYbgiQAZtM6c/fH6jCJJp5aSWtGPZYApES5AkBK2iJKDUESAI04N3PHdKHTf0lrlPruIylprgCQ0lACqGMIkgCYQVuWZeh4ajKBLT2tkgBYTF1DkJLlCgApDQUASfrGFpyVqeM51+m/pLVc/i9ZAJDk16GkdVxGtcwcS3V+7QmVtJa3PCQLAJL8OpS0jjZcmplj+RUtPaGS1vKWh2QBQJIFAEnf0YdWmTiOllzhyZTkiEeyACBpXdbDJa2rNn/PxHHc7AankhzxSBYAJH2X9XBJ33UiRwd/DEfS3RMpyRGPZAFAkl+Hkjaub+B3z+tyqydRkiMeyQKApO9zQZyk79uWu4Ju/6208SRKcsQjWQCQ9H3WwyX90GmcFWzbf0pPT6AkRzySBQBJfh1KKptb2CHIdu/EjZ48SY54JAsAktbHBXGS1qcOj1HbVktyxCPJAoCUHdbDJa3fjvyHqkG1uJh+bO+Jk+SIR7IAIGn9rIdL2pDu3BJQa6twB8d70iQ54pEsAEjaEOvhkjbsPP4YTFv/zE88YZIc8UgWACRtmPVwSRvzey4Nop0X8ltPliRHPJIFAEkbYz1cyrc5rA66/TdwfurbeAE3B53xaqZS4qUiOeKRsq2qEUiJsx4u5cMqPuVdxjCWEczmcJ6mVrDHUsTttOHyFLfwMq4Nurcs5wSepR67sic7sCN7UcNLSLIAIGVPFSOQEteELw1BypEVfMa7a/4s/c6/CbsEAHArP0/lPepi/sXPMjD9X1c12rEne7Inu1HHy0rK2Yjna0OQLABIsavFEkOQKmUV7/MWbzKSTzey2D/8EkB/erI8ZW2qycMcl7Hp/7qKac9e7Md+7Oy6SanSI55lhiBZAJC00mGlVCEzeJd3GcaIMpbRwi8BjOIUPktRe7bjMXbL8PR/XdXYhc7sSSfaeulJFbCKaoYgWQCQBHNpaAhSma3kA4bzLsOYWO6/G34JYCHn8UhK2nI89wT+6VX26f+6tmRP9qQT+1Pby1Eqx2hnc0OQLAAo9h64LTuzPVvQhM2B5XzFl0xgLB+wIKIcPqeFnUHapBkMYzjv8k6llsGHXwKAflyQ+KNDNbmW3oHnWLHp//8U04E96URnOvheJakMo52WER1tfXZhB7ahKU2oAczhK2bwMR/yGaV2BlkAUHzq04NjOJimG/j3JXzIEIbwOnMiSGMs29slpA1YyUiG8jojmJujn5iFEsAH/Iw3Evz9nbmNnSKf/q9rc/bnQA5kTx/okjYy2tkxgqPcnAM5mIPZeYNlwS8ZwrM8FdWtLlkAUOT241KOpWaZ/ts4CgFvs7fdQvqeVbzPywzndebn/GdnoQRQygP8iq8SGd7+gZ8Hf8c7l9P//6nD7nSiC53L+B0nxeRt9o164v9dy3iaG3nTbiELAMq6A/grnSrw97JdCHiFQ+0a0hpLGM0wXmZYXneLzkIJAObSh1s28t6DfIwbzuQfNA4+ufxM//+nKrvShc4cQAMvaWntaKeLE//vGc5vGWrXkAUAZVULbqZHJX9GNgsBT9Pd7qHozWcYrzOUkawsyO/LRgkARvMnnqKkAL+piBP4HbtmILN8T///pxp7cyAH0on6XuKK3tOVHgVmZ+K/rqf4OdPsHrIAoOw5lxtyOADKViHgQc6wgyhaCxnCq7zO+wW9k52lEgBM4Hr+zao8T/6vzshuJYWb/v9PMbtzAIdxEHW95BWtB+npxH+9FvBL7raDyAKAsqQmt/DjPP3sibzMy7zK7IDzuZ3z7SSKzmre42Ve5nVWJNaG7JQAYAI38EjONkpc12acxi9pm5Gckpj+r1sI2I0udOEg34euCN3OBQG3vh770oUu7J6nHVAe4nwW20lkAUDZ0ITn2CvPvyPsFQEWABSXb8p2L+dlshpzCQCW8xIP8HTOSirFHEJPTszQ2+6Tnf7/T132oxvdaOPHgSJyZ5CjnXzc8V+/kRydyMausgAg5VhLXqJ9wX5biIWAg3iWOnYURWARb/IyAxibqlYdwdMZ27H9ax7heV5nUSV+Rj0O5GhOoVGmklnGsbyUqha1pQtd6MJmfjwoAks4lped+G/EOI5gqh1FFgAUtsYMpUMivzmURwPO418uBVXGfbvY/7UCbe9XXtlaBfCtVbzNqwzmDZaW42/VoiOHcih7Z/B99mm5+/9D3z4YcCDV/bhQxr8Nfsd1KW9jvpf6b9xndGaWHUUWABSu2ryW98X/G5fuFQG1uMvt/5Rpn/MszzKkUveiLQFUdsA9hU/5hHGMYypfseB7/74BjWlFO9rTgXa0ojijOaR3+r/uxOMQjuEYtvKjQxnWj/Pz+pLXikrijv/6jOQglthNZAFAobqXs1PTlvStCGjBE+xtJ1EmlTCagQxgFKWBtDjLJYDvWskiVrEQqEdV6mXwTn+o0///2ZGudKNjwtMQKV9GcxxTUtOaZO/4r8/D3hySBQCF6lzuSuG0JC0rAjrzX5rZSZQ5S3iVAQzki+BaHk8JID5hTf+/1ZhD6EZ3GngClTlfczKDE25DWu74r89PfSmgLAAoRFsyhoYpbl+yKwJ88l/ZM4lBDOQllgd7BJYAnP6nT1X2oyvHJrSbjpQvq7gyod0A0nfH/4cWsBOf20lkAUCheZIeAbQyiRUBNfgX59pBlBmreY+BDODdDByLJQCn/2nVlm505SBLx8qQBzmvXJuUVk6a7/j/0FMcZweRBQCF5QBeD6zFhVoRsCWPs58dRJmwkOd4mhcDeummJQCn/2FrxJF052jqemqVCSM4kRl5/h0h3PFfn0MTf0hCFgCkchlGpyDbne8VAR15nC3sHgrePAYxkMdZnMFjswTg9D/tanI4XTmOJp5iBe8LTuDNvPzksO74/9BwOts9ZAFA4ejIiOCPIR8rAs7lX9SweyhoX/IUT/AqKzN8jJYAnP6HoDqHcTw9aOypVuBX6gXcm8OfF+od//WNpt+0e8gCgELxCKdk5EhytyKgmD9zmV1DAfuKF+jPC5me+lsCcPofmmI6chInsJWnXAG7if9jdSV/Ruh3/H/oUU61a8gCgMJQn5kZHDpXbkVAXR6iu11DgZrC0/RnBCURHbMlAKf/ISlid7pxOtt56hWoFziFBRX6m9m54/99y2jOfLuGLAAoBGdxX4aPriKFgK14hj3sGArQJAbQn+GURnjslgCc/odnR07iFF8ZqCB9QDemOvH/3oi6nx1DFgAUgsc4KYKjLHshYF+eorndQsFN/R/mET6KOgNLAE7/w7QLp3EarewKCswMujPSif93RtSn2C1kAUAh9KqZNI3maDe9R8CJ3E9tu4UCModn6ccrUd71twTg9D879qQXp9DMIBSQZfyEhzfw77L3jP+mfUlzv4tlAUDp145xER71hgoBvflHRF9UCt1SBvJAJNv8WQJw+h+DYg6hFz2oZxQKRCl/5OrvTHpjnPj/T3s+tVPIAoDS7ngej/r4//doQA3upJcdQkFYzWAe4AkWGYUlAKf/mVOTw+nJsVQ3CgXhEc5hWVRL/Tc2qn7SDiELAEq7K/izIVDCWDbztUwKoq++QX8e5iujsATg9D/TNqMbPTnUVWkKwAzmsL19FfgdfzEEWQBQ2t3ChYYgBWEs/enHRIOwBOD0PxotOIGT6GQQUiCj6osNQbllZU2519QIpNSbwXXswI70cfpfJoM4lqXG4PQ/A6bRl87sxN+YYRiSo2pZAJAqzx3vpTRbwUBOphWX87FhWAJw+h+pMfyGFhxOf1YYhpRidYxAFgAkSRU1lsvZmm70d59/SwBO/6NXwsucTHPOZ7RhSJIFAKmiVhuBlDrzuJMD2JHr+NIwLAE4/ddac7mTPdiJ6/jaMCRH1bIAIJXfbCOQUqSElzmLrTifYYZhCcDpv9ZrDJfTgu70Z5VhSI6qZQFAKg/vL0pp8SlX0JLD6ccSw7AE4PRfm0hzACfThiv5zDAkR9WyACCVlXuKS8lbzL85gA78lemGYQnA6b/KbBp/ph0Hcp9lQykFJhiBcq2KESjnOjPUEKQEjeNe7mKOQeTR4TxNLWNw+p9p9TmVi9nZIKQEHeDje7IAoBCGDHNdWyIlYgVPcyevUGoUlgCc/isn9uQ8elHTIKQElLAZC4xBFgCUfqPZzRCkApvO3dzq04KWAJz+K+eacTbn08YgpAJ7j90NQbnmfVrlw2tGIBXQN2/zbkUfp/8F5V4ATv9jMYvr2JbDfUeA5IhaFgAkP66kpAfm23A4/X1XsCUAp//Ko28LjZfzuWFIBTLECJR7PgKgfNicrywuSXn3LjfxH1YaRKJ8EMDpf2yqcyzncZhjSCnPSmjihr6yAKBQvMeuhiDlzQLu5TbGGYQlAKf/SkgHLuBs6huElMfRtDsAKA+8S6v8GGIEUp5M5HJac6nT/9TwQQCn/zH6hN604Hw+MQopT3ykVhYA5EeWFLnhnEw7rmOuUVgCcPqvxC3kTnbkcAb66lEpD4YYgfLBRwCUH+4CIOXWCh7l73xgEKnlgwBO/2O2KxfS0ytAyiF3AJAFAAXGXQCkXJnFfdzEFwZhCcDpv1KsKefwc7YyCClHI2l3AFBeeI9W+TLECKQcGM35tOZyp/8B8EEAp/9x+5LraMvJvGkUkiNpWQCQH1uSymc1j3Mge3AnywzDEoDTfwVhBf3pyME8SYlhSJXiflrKEx8BUL64C4BUcfO5m38x2SAC5IMATv8F0Jaf82NfEyhVUAlNmW0MsgCgsLgLgFQRX3Ibfd3n3xKAnP4Hrx4/5jdsaRBSub3Pboag/PAOrfJniBFI5TSRS2lNH6f/QRtEDx/byIlldHf6H7SF9KUNZzHOKKRyGmwEsgAgCwBStr3PWbSnr8+QZ8BLdPc8VtpyTuQlYwjeCvqxA9152yikcnAHAOWNjwAof9wFQCqr4VzHQEoNIkN8EKCy038X/2dNZy6jqzFIZeAOAMojp2fKnzl8aAjSJr/kB7IfnRng9D9jfCOA03991zC6sQcPsNoopE34wOm/LAAoTEOMQNqIFTzAjnTjLaOwBCCn/1EYTS/ac5O7ZEiOoGUBQFnk80vShizkJtrSi0+MwhKAnP5HZQK9ac3VzDMKyRG0Cs89AJRP7gIgrc/X/INbmW8QUXAvAKf/Wr/NuIhLaWQQ0veU0IQ5xiALAArTe+xqCNJ3Jv+38E8n/5YA5PRfQF1+wuU0NwhpHe+zmyEof7w7q/waYgTSOpP/q9mGPk7/I+ODAE7/tSGL6Mu2XMpMo5AcPcsCgLLAZ5ikb3y1ZvK/wCgsAcjpv9axeE0RYIZRSBYAlH8+AqD8chcACb7iBm5miUFEzQcBnP5r4+pwLpexhUEociU09SWAsgCgkLkLgJz8O/mXJQCn/yqL2vyU37ClQShi7gCgPPPerPJtiBEoWl/Qm1Zc5/RfgA8COP3Xpi2hL9vxf+4JoIgNNgJZAJAFACk8X3I523KTEz5ZAnD6r3IWAf5Ja85nulEoSu6fpTzzEQDlm7sAKD4z+At3sdwgtB4+COD0X2VTi/P4Lc0MQlFxBwBZAFAGuAuAYrKQW/kzCw1ClgCc/qvS6nAxl9PQIBQNdwBQ3nlnVvk3xAgUiSVcRysud/qvjfJBAKf/KqvFXMc2XOcVo2i4A4AsACgDfJZJMVjJnWzH5cw1ClkCcPqvHJrD5bTiOh+rkqNmKRd8BED55y4AyroSHucKPjMIlUPsDwI4/Vd5teIKfkKxQSjT44kmzDEG5ZfTMuXfHD40BGXYy+zFyU7/VU5xrwJw+q/ym8L57Ep/g1CGfeD0XxYAlA1DjEAZNYKDOZzRBiFLAE7/VQBjOJmOPiWtzPIBAFkAkB9nUmp9xMl0snfLEoDTfxXUmxzK4YwyCGXQECNQ/rkHgArBXQCUNZ/ye/pTahCqtNj2AnD6r9wo4mT+yHYGoQxxBwAV6ONTyj93AVC2+vPl7MxjTv+VE3GtAnD6r9xNlR5hR87nS6NQZnzo9F8WAJQdQ4xAmbCCm9iG61hhFLIE4PRfCVvJnbTnOpYZhRwtSxYAlC4+J60sGMj29GaeQcgSgNN/pcQ8Lqc9D7gmSxYApLJxDwAVhrsAKHRv80uGGYPyJut7ATj9V37tww10NgYFzB0AVCBOyVQY7gKgkE3lLPZz+q+8yvYqAKf/yre3OYDuTDQIBesDp/+yAKBsGWIECtJcfkU7+rm8VJYAnP4r5QawI5cx3yAUJB+XlQUA+bEmJWwld9KBG1huFLIE4PRfAVjG9bR1o1YFaYgRqDDcA0CF4i4ACs3LXMoYY1CBZW0vAKf/SkI7/sRJxqCAlNCU2cagQnBCpkJxFwCFZBQHcbjTfyUgW6sAnP4rGZ9yMofxvkEoGB84/ZcFAGXPECNQEOZyKfvwukHIEoDTfwXsVfbgLL42CAXBR2VlAUB+tEkJKOEB2tOX1UYhSwBO/xX8J3o/2nOTn+gKwBAjUKG4B4AKx10AlHbvcDFvG4NSIfS9AJz+Kz1252Y6GYNSzB0AVEBOx1Q47gKgNJvBWezr9F+pEfYqAKf/SpPRHMBZzDQIpdaHTv9lAUDZNMQIlEoruYkO9KPUKGQJwOm/MqiUfmzL1b4eUCk12AhkAUDZ5C4ASqNX2Z3eLDAIWQJw+q8MW0wfduYFg5AjZMXNPQBUSO4CoLSZxu/oZwxKsdD2AnD6r7Trxk20NgaliDsAqKCcjKmQ3AVAabKU69je6b9SLqxVAE7/lX4D2IGrWWYQSo0PnP7LAoCya4gRKCWeYgcuZ5FBKIASQI9ASgDL6O70XwFYSh92YoBByNGxLABI+eYzTkqDLziR45hsEArES3RlSQCTqmN5yZOlQEygO92ZahBydKzYuAeACstdAJS0VdzKlSw0CAXmYAZSJ8XtW8yxvOJpUmBq8wd+RbFBKEHuAKACcyqmwnIXACXrbfamt9N/BWgIh/Jlij/bf+T0XwFawuXsy7sGoQS5A4AsACjzg1gpGYu5nP15zyAUqLfpyPhUtmwS+zPcE6RAvcs+nO+rYOXIWBYApPzwOSclYyDbcx2rDUIBm8gBvJ66Vr1OR8Z5chSwEu6kAw8YhBwZywKAlI+PuRJDUIFN50S68blBKHizOIzrUtWiO+nCLE+MgjeDXnRjikGowEoYagiyAKBscxcAFdYqbqIDjxuEMtOjL+cU5qaiLXM5hfNZ6UlRRgxkB65jlUGogNwBQBYAFIEhRqCCGUVHerPIIJQpj7EDzyfeilfZlcc8GcqUJVzOXrxlEHJULAsAUu74rJMKYz6Xsg8jDUIZNJOuXMS8xH7/PC7icB+rUSa9z/5uCihHxcquKkaggtucryw9Ke+e4iK+MAZlWjP+xpkJfJMP5AKmGb8yrQW30dUYlGclNPURABWa0zAVnrsAKN/mcj7HOf1X5s2iFx0LfP/oTQ6im9N/Zd40unEyXxuE8sodAGQBQJEYYgTKo/60505jUCTe4mCOZXRBftdojqVjCl9EKOXr22RH/msMckQsCwBSZfm8k/JlFidxMl8ZhKLyDHtwAAPz+juG0509ecawFZUvOYnurieTI2JliXsAKAnuAqD86M+FLthUxDpwNj+hcY5/6nwe5TbeM15FazOu5TxjUM65A4AsACgi77GrISinZnIhTxqDoleLYzmJo6iVg5+1lOfpz9MsNVZF72juoIUxKMej4d0NQRYAFIsb6W0IyqH+/Iw5xiCtUZcjOZzDaVPBvz+JQQziBRYZpbRGA67np46cldPR8C8MQRYAFIvjeMIQlCNfcIFPJkvr1Zb92Ju92ImGZfiv5/ERI3mHN5lodNJ6/Ig7aWkMytlo+ClDkAUAxcJdAJQbpdzFr1hoENImNKEdbWlCc5pSm2LqAwtYzRK+ZCZfMZFP3T5T2qT6XMPFjmCUA+4AIAsAioy7AKjyJnIug41BklRAh3FXhR+vkf43EnYHACXCCqaSMsQIVCml3M4uTv8lSQX2CrtwJ6UGIUfCsgAglZ1vPlVlzOJYLmCxQUiSCm4R53MUXxiEHAkrPD4CoKS4C4Aq7nF+xtfGIElKUENu4XRjUIW4A4AS4wRMSZnDh4agCljA+Zzo9F+SlLB5nMHJzDUIVcAHTv9lAUDxGWIEKrfh7M6dxiBJSoX+7OZuNHIULAsAUln47JPKZxmXc6DvJ5ckpchUDuN8lhiEHAUrDO4BoOS4C4DK40N68r4xSJJSaAceYA9jUBm5A4AS5PRLyXEXAJX9i/Im9nL6L0lKqbHsx9WsNgiViTsAyAKAIjXECFQGkzmE3qwwCElSaq2kD535zCDkCFgWACQ//lRxD7AzrxuDJCn13mRXbjIGbZI7AChB7gGgJLkLgDbuK37MQGOQJAXkWO6hkTFog9wBQIly8qUkuQuANmYwuzv9lyQF5ml25CVj0Aa5A4AsAChiQ4xA67WKqzmc6QYhSQrOLI7kUlYahBz9ygKA9F0+A6X1mcoh9HE3ZUlSoErpS2cmGoQc/Spt3ANAyXIXAP3QE5zLXGOQJAWuAbdzqjHoO9wBQAlz6qVkuQuAvmsZl3KC039JUgbM5zTOYrFBaB3uACALAIrcECPQOl+Ke9LXGCRJmdGP/RhjDHLkKwsA0jd8DkrfeoCOjDUGSVKmfMRe3GQMcuSrdHAPACXNXQAEMJ/zedQYJEkZ1YN72NwYoucOAEqcEy8lzV0ABG+yu9N/SVKGPcVuDDWG6LkDgCwASD4LFbnVXE1nJhmEJCnTPudQrvEVt456JQsAip3PQsXsK46mj8MhSVIEVvEHujDTIBz1SslxDwAlz10A4jWMU/jCGCRJEdmKR+lkDFEqoQlzjEHJctql5M1x5/colXIThzr9lyRFZjoHcx2lBhGhsU7/ZQFAguo0NIToLOQUerPSICRJ0VnF5RzHPIOIzubUMARZAFDsqnA3LYwhMu+xB/2NQZIUrafZhw+MITJbcochKGnFRqCE/Z5LDSEyD3A8s4xBkhS1OdxHM/Y0iKjsxnKGGYMsACheJ3KLW1FGZRkXcaVL/yVJYhUDmMSPqGYUETmMcXxkDEqOUy8laU9ep7YxROQzTuR9Y5Akaa3d+C/bGENElnIIbxmDkuIeAErOVjzt9D8qz7C3039Jkr7jPfbgv8YQkVo8ydbGIAsAik1dnmUrY4jGKi6nhzseS5L0Aws4mUt9PC4iW/AMdY1ByfARACWjmKfoagzRmM4pDDcGSZI26EAeYQtjiMbTHE+JMSiJaZiUhH/QyxCiMYLDGWsMkiRtxBT+QydfjRyNDtRhkDHIAoDicC5/MYRo3MUpzDcGSZI2YSEPsiW7G0Qk9mcq7xmDCs1HAFR4HRlMDWOIwiqu5DpjkCSpzM7jZqobQxSWc5DvA5AFAGVdc0a6+V8kvuZkBhuDJEnl0pn+NDeGKMxkL6YbgwrJtwCosKrR3+l/JEazl9N/SZLKbRh78bYxRKE5/V0XKwsAyrJb6WwIUXiYTkwxBkmSKmA6B3GfMUShI3cYggrJTQBVSD/nd4YQgdVcwf+xyiAkSaqgVTzNDI50rB6B3ZjFSGNQobgHgAqnE6+6qU0EZnMqLxuDJEmVdiD9aWoMmbeSw3nNGGQBIE5b0IotaEB1YCmLWcACFrOEeSxiZdBH1pJ3/AqLwPscxyRjkCQpJ7bmSfY0hsybxV5MC/oIqlGXhtSmDvWpTx1qASuYzwymMMMTbAFA31fEnhxFZ/ag0Ub+qxUsZh6LWcxC5rOExcxnIUtYzFwWs5hFzGcxi1mQwiOsyVD28kRn3qP8hMXGIElSDsdQd9LTGDJvNJ1ZksJ21acOdWhAXepQh82oQ23q0YA61KYB9ahDHRpSZ6OrfGczimE8z7uUeKItAAg6cA492SKnP3Mhi1nMPBaxhEXMYzFL1qwlWMx8FrGYxcxlCcsLdpQPcoanOuNWcwV/o9QgJEnK8Xj9cv7k1t2Zdz9nF+x31aA2m1GHOtSlAXXW3LevTR0aUpfa1KUhdahDvZz+1hk8wL184qm2ABCzjvyWrgmehVUsZD6LWcJ8FrKYJWvXEsxjyZoHEJawmHmV/D2/4m+e7IxbxBk8YwySJOXFkTxKfWPIuEvpW8mf0JA61F6zCL82Ddfet69NHerRgNrUoQH1qJrYMZYykL/yhifbAkCMWvCXgBZ0LWMpy5i75n+//3//9//NW88d4C48n+DHjAphOt0ZZQySJOXNzgyglTFk2iqOYPB6/00tNmMzalJr7f9+///WpBZNg3lrxEB6M9ETbgEgrtx78xdqZfDIVrNg7QMI36wlKKUntT3lmfYWPZhpDJIk5dUWPM3expBpS3kA1ty3/3YRfv1MvgxyKVfQ10dHLQDEoikPc5gxKCP+y1mp3LRGkqSsqck9nG4MyohXOJ0vjaHQio2g4HbhFfYwBmXETZzLCmOQJKkAVvEkcJC38JQJbTmJwcwyiMLy46PQ9ud5t3BRRiznPPoZgyRJBXUq91LTGJQJCziKEcZgASC7OvM8dY1BmTCbE3jNGCRJKrj9eZKmxqBMWMRRDDMGCwDZtD3D2cwYlAlj6cokY5AkKRHbMJAOxqBMmEsnPjaGQikygoLZnGed/isjBtHJ6b8kSYmZwD48ZwzKhM14ls2NwQJA1lTh37QxBmXCnRzDPGOQJClBCzmWW4xBmdCGf7syvVB8C0ChnM+vDEEZsJoruJwSg5AkKWElPMcMjvKGnjKgAzN41xgKwUpLYTTjExoag4K3iJN53hgkSUqNbvyHOsag4C2gAzOMIf+sGBbGtU7/lQEzOdjpvyRJqTKAQ3yTujKgPn8xhEJwBUAhbMdYqhqDAjeBI/nMGCRJSp02PE97Y1DgVrMj44wh31wBUAi/d/qv4L1FR6f/kiSl0iT2Z7gxKHDF/M4Q8s8VAPnXhM+pYQwK2tOczhJjkCQptWrzCN2MQUFbztZ8ZQz55QqA/Dvb6b8Cdw8nOv2XJCnVlnActxmDglaDsw3BAkD4TjMCBayUqzmXVQYhSVLKreZCLqXUIBSwU40g33wEIN9aMtmUFaxVXMDdxiBJUjB6cTfVjEGBKqU1U40hn1wBkG9HOP1XsBbR3em/JElB6cfRLDAGBaoKRxiCBYCw7WcECtRMDuJ5Y5AkKTAvcwDTjUHOnmQBIAn7GIGC9DH7McoYJEkK0Ad05hNjkLMn/ZDL0/Od72JqGYOC8ybd+NoYJEkK1uY8TWdjUHCWUsetLPPJFQD5tYXTfwXoaQ5x+i9JUtDmcAQDjEHBqcUWhmABIFxNjUDB6ceJLDMGSZICt5QTeNAYFJwmRmABIFx1jUCBuYVzWGUMkiRlwEp68U9jUGDqGYEFgHDVNAIF5ToupsQYJEnKiFL+j8uNQc6gZAGgMJYbgQIaIvzSIYIkSZlzHT+3vC9nULIAUAhLjUCBWM25/MMYJEnKoH9xlg/4yRmULADk3wwjUBCWczL/NgZJkjLqQY53i185gxJUMYK8KmIZ1YxBKbeI4xlkDJIkZdrBPE19Y1DKraQWq40hnxNU5VMJnxmCUm4Ohzv9lyQp84ZwGF8bg1LuM6f/FgDC9q4RKNVmcDBvGoMkSREYyYFMMwY5e7IAoPx52wiUYpM4gA+NQZKkSHzMAYw3Bjl7sgCgfHnBCJRaY+jMBGOQJCkikzmA941Bzp4sACg/xltlVUqNoDNfGIMkSZGZxSE+/ifnThYAlC8PGYFSaBhHMs8YJEmK0Fy6MNgYlEIPGkG++RrA/GvNBAstSpnXOYZFxiBJUrRq8wyHGYNSpYRtmGwM+eXENP8m86whKFVe5Ein/5IkRW0J3XnJGJQqzzr9twCQDdcbgVLkeXqw1BgkSYq+BNCNZ4xBzposACjXhjHMEJQSz3Icy4xBkiSxgpN40hiUEkOdM1kAyI6/GoFS4b8cx3JjkCRJa0oAJ/OwMSgVrjWCQnATwEIZxe6GoIT9h16sMgZJkrSOqjzAqcaghH3AbpQaQ/4VG0GBzOdEQ5DTf0mSlDIlPEVLdjMIJepSPjKEQnAFQKEU8zHbGYMScw/nUWIMkiRpvXOCf3GhMSgxE2nvjapCTUtVGKWsoKsxKCF38jOn/5IkaYOeZ3P2NQYl5HLeMYTCcAVA4dRgElsYgxJwOxf6TJUkSdrEvOAfXGoMSsAM2rhNdaG4AqBwVlPE4caggruB3oYgSZI26UWqcaAxqOD+yFBDKBRXABRSPaawmTGooG7kF4YgSZLK6K9cbggqqLm0YqExFIorAAppBXWtqqqgbnIpnyRJKodXqEMnY1AB/Z0XDaFwXAFQWI2YTF1jUIHcw0999l+SJJVzfuAbAVQ4S2jNV8ZQOK4AKKylNHd/VRXIvU7/JUlSBTxPc/YyBhXErTxhCIXkCoBCa8EEqhuD8q4f5/jiP0mSVME5wp2cawzKu5VsxxRjKCRXABTaArZhN2NQnv2XXqw2BkmSVEHPsQ27GIPyrB/9DKGwXAFQeO0ZS5ExKI+e4BRWGYMkSaqEYh7kVGNQHpWyE2ONobCciBbeOJ4yBOXR85zu9F+SJFXSanrxtDEoj550+l94rgBIwt68bQjKkxc5luXGIEmScqA6j9PVGJQnHXnTEArNFQBJeIeXDUF5MYgeTv8lSVKOrOAEnjMG5cXLTv8tAMTjr0agPBjKcSwzBkmSlMMSwIkMNgY5I8oKHwFIygg6GoJyajhHssgYJElSjtXmOQ4yBuXUO+xjCElwBUBS/mYEyqkRTv8lSVJeLKGbi7WVY97/T4grAJJL/kN2NAblyIccxFxjkCRJedKAwexuDMqRT9iREmNIgisAklLqGgDlzGcc4fRfkiTl0XyOZJwxKEf+6vQ/Ka4ASE41xtPKGFRp0+nMZGOQJEl5tjXDaGkMqrTP2ZYVxpAMVwAkZyU3GIIq7WuOcPovSZIKMm07mtnGoEq73ul/clwBkKTaTKKpMagSFnIoI41BkiQVyN68Qj1jUCXMphWLjSEprgBI0hJuMgRVwgpOdPovSZIK6B2OZZkxqBL+4fQ/Sa4ASFYDptDAGFQhqzmFx41BkiQVWHcep6oxqEIW0Ip5xpAcVwAkaz53GIIqpJTznP5LkqQEPMM57uGuCrrN6X+yXAGQtOZMoqYxqNx+yT8MQZIkJeRibjYEldsy2jDTGJJUbAQJW8TW7GUMKqeruNYQJElSYt6mmIOMQeV0N48aQrJcAZC8tozzKSqVy4vcYwiSpE1ayjJgJYuAUuYBJcxz+a1y5h/8whBUDqvpwGfGYAFAD3OaIUiSpAKZxzzmMX+d//2Kz5nJ5ywxHJVrJnEP5xiDyjHrOcMQLAAIduE9z4QkSUrcfKbzBV8wnRlMYzLjWWQo2ohqPEFXY1CZlLIno43BAoAABnKMIUiSpNSZy0QmMpYxTGSc5QD9QC0G0ckYVKYZTzdDsACgb+zHG4YgSZJSrZRpjOcj3ud9PmK5gQiARgynvTFokzoz3BAsAOhbr3OAIUiSpECs4hPe533e432+NI7ItWEEzY1Bm5jt+NYICwBax1E8ZwiSJClAMxjNm4zgLR8RiNaeDKGuMWijs50XDMECgNb1LnsYgiRJCtZqPmQ4bzCcyYYRnUN5nurGoA14n90pNQYLAFrXKTxiCJIkKQNmMILhDGUUJYYRjXO4x7mFNjjTecwQLADou4r5mO2MQZIkZcYi3uRlBjDWKKLwe/5oCFqPCbRntTGkZdKptChlma/GkCRJGVKdtnThInqxAzWZyVIjybTXacI+xqAfuIx3DSEtXAGQJjWYwFbGIEmSMmk1oxjEAN72wYDMKqY/xxmDvmMmbVhmDOm5SJWmr8UqHGEMkiQpk4rYigM4l4vYmVVMcUlwBpXyDIewtUFoHVcx1BDSwxUA6VKHKTQyBkmSlHlLeJX+PMM8o8iYxgyjvTFojTm0ZqExpEeREaTKYm41BEmSFIHadOV+ZvEiF9DcODLka45mljFojX85/U8XVwCkTSMmU9cYJElSREp4g348wgKjyIi9GOyIVsASWvOVMaSJKwDSZjb3GIIkSYpsRNqJO/iSAfSitnFkwEhOd48HAXc6/U8bVwCkTwsmUN0YJElSlObzDP15nlVGEbj/4wZDiNxKtmWqMaSLbwFInwW0ZXdjkCRJUarJrpzGuTRjCnOMI2Bv0Iy9jSFq9/OAIaSNKwDSqD1jfThDkiRF713u5EGWGESgqvI8XYwhWiXszFhjsACgsvgvJxiCJEkSs+nHXXxsEEGqz3B2MoZoZzQnGYIFAJXNbozy3EiSJK0xlLv4L0sNIjhteIsmxhClvRlpCBYAVFYvcbghSJIkrTWXe7mZyQYRmM68TA1jiHA28yNDSCM3AUyraZxlCJIkSWvVoiM/Z2e+4HPDCMhUpnKcMUTnXIt1FgBUHpM5gq2NQZIkaR1F7MCP6c4yxlJiHIF4nxocYAxReZsrDcECgMpnNqcagiRJ0g9swXGcQw3GuitAIF6lvZsBRuVCxhlCOrkHQJrPzQd+UEqSJG3QEu7nBiYYRABqMZh9jSESH7OTK3TSyrfNp1cp1xuCJEnSBtXmAj6hH9sbReot5TimGUMk/uL0P71cAZBmVRlPa2OQJEnaqBKe42pfOZZ6uzGUusaQeZ+zDSuNIa1cAZBmq7jBECRJkjY5ou3KOwxyiXnKvccZ3hmOwHVO/9PMFQDpVpNJNDcGSZKkMnmRPzHMGFLsCv5sCJn2Ja3dnDPNfAtAuq2iBocZgyRJUplsy485iE992jy1htHBba4z7c8MNoQ0cwVA2tVnCg2NQZIkqRxe5le8bwypVIth7GEMGbWAVswzhjRzD4D0X0R3GIIkSVK5dOFd7qWVQaTQUk7ga2PIqFud/qedKwDSrxmTqGUMkiRJ5bSC+/gDswwidQ7jBaoaQ+Ysoy0zjCHd3AMg/RazFXsbgyRJUrlHuntyAfV5h+WGkSqTWMoRxpA5d/KoIaSdKwBC0IZPrZFKkiRV0Jf8gbtZbRCp8m/OMYRMWU17JhhD2rkHQAgmWUuTJEmqsKbczof8yCBS5ULeMYRM+Y/T/xC4AiAM2/ORxRpJkqRKGcglTDKG1GjJOzQ1howoZRc+Mob0c1IZho951hAkSZIqpStjuJZ6BpESUzmeFcaQEQOc/ofBTQBDMZFzDUGSJKlSqtGZM5nJGKNIhc+Zz1HGkAk/5nNDCIGPAIRjCAcZgiRJUg4M42LeN4ZUuMvbXBnwGgcbQhhcARCOmZxpCJIkSTnQknNpzDAXoKfASxxOC2MI3M/cADAUrgAIyUj2NARJkqQcmcSFvGAMiduKkTQ3hoC9z+6UGkMY3AQwJNcbgSRJUs604XkepplBJGw6p7LKGAL2Z6f/4fARgJB8wqk0MgZJkqSc2ZlzWcY7TmASNYUVdDGGQH3KxV4/FgCUD6Uso7sxSJIk5VBNjqQLb/GVUSRoBLvT3hiCdBnvGkI43AMgLNX4jJbGIEmSlGMr+CPXuRA9QQ15l7bGEJzptHUzzZC4B0BYVtLXECRJknKuOn9iOB0MIjHzOJ6lxhCcG5z+h8UVAKGpw2QaG4MkSVIeLKMPf6PEIBJyHncYQlDm0IpFxhAS9wAIzUrqcLAxSJIk5UFVunA4rzPHKBLxLq3ZzRgCch2DDCEsrgAIz+ZMoa4xSJIk5ckSruAm9zVPRC2Gs7sxBGIxrfnaGMLiHgDhmcNdhiBJkpQ3tbmR52lhEAlYyinMN4ZA3OH0PzyuAAjRVkykujFIkiTl0Rx+wlPGkIBjedJZSgBWsi1TjSE07gEQooW0Zg9jkCRJyqNanMo2vMhKoyiwcWzGfsaQevfyoCGEx9pamLZhnMUbSZKkvBvDqXxkDAVWjVfpbAyptpod+NQYwuMeAGGawBOGIEmSlHc78ja9jaHAVnIaXxlDqj3u9D9MrgAI1R68awiSJEkF8V9+yjxjKKgjeN6blSm2J6MMIUReVKH6nFWGIEmSVBAn8rY7MBXYS/zVEFJrldv/hcrnyEP1d/Y1BEmSpAJpxNnM5R2DKKDXOYyWxpBKRdTkBWMIkY8AhKkDH1DNGCRJkgrqIc5jiTEUzNa8x+bGkEqr2JWxxhAeHwEI09+d/kuSJBXcGQynjTEUzOecZwgpVZW/GEKIfAQgRIfwZ0OQJElKQHPO5D0mGESBfMyW7GkMqdSBYUwyhtD4CEB4injbj0FJkqTErOZ3XE+pQRRETd5iF2NIpffYkxJjCG0yqdCc5fRfkiQpQcVcy9M0MIiCWMbpLDWGVNqNMwwhNK4ACE1tPmUrY5AkSUrYWI7jU2MoiAu41RBS6XPaW54Ji3sAhOaXHGcIkiRJiWvCmbzjM9AFMZLt2ckYUqgBc3nDGELiCoCwNGSCr0KRJElKiVVcwm3GUJBR8Hu0MoYUmk1bFhhDOFwBEJY/cIQhSJIkpUQRx1CLV90QMO+WMZJe7l+WQrVZyRBjsACgfGjKg9QwBkmSpBTpzM4MZKVB5NlUqnCIMaTQnvybxcZgAUC5dx2dDUGSJClltucYnnUZdN4N5QDaGEPqVKcqLxpDKNwDIByt+cT7/5IkSak0ne6MMoY824r3aGwMqbOCDm6HGQqfownH1U7/JUmSUjs1HcKRxpBn0znXEFKoOlcaQihcARCKHXnfBzYkSZJSbBXn829jyLO7+YkhpM5qduZjYwiBU8pQ3MX2hiBJkpRiRXRnAW8aRF69wkk0MobU9f1m9DeGELgCIAx785bnSpIkKQA3camvBcyr/Xnd25ipU0pH3jKG9PPSCcMDtDUESZKkAOxLGwZSYhB58zm1fDdW6lShJQ8aQwgnSul3hC/WkCRJCsgznMpSY8ibaoxgL2NIncN41RAsAKjy5+gN9jUGSZKkgLzGscw3hrzZgZHUMoaUeYd9ffwl7XwNYPqd4PRfkiQpMAcxhGbGkDdj+b0hpM7edDeEtHMFQNoV86H7/0uSJAXoEw5lhjHkSREvc4gxpMwYdmW1MaT7wlG6neX0X5IkKUgdeI0WxpAnJfRirjGkzI6cbgjp5lsA0qsuO3EoN/p0kyRJUqAacTzPMM8g8mIBM+lhDClzCNOpykJWGEU6+QhAmlSjLe1oRzu2oz1bGogkSVLwpnAoE40hTx7jJENIpS8Yx3g+5VM+ZSIrDcQCgL6xNe3Yjna0px2tqWogkiRJGTOVw/jMGPKiMR+whTGk3Com8ynj+JTxfMrnBmIBIC6b0Za2tGVHdqAd9QxEkiQp46ZxKOONIS+OYYBzmqCsYBpjGcNEJjLGbTItAGRRzTV3+dvRnu1obCCSJEmRmUkXxhhDXtzO+YYQrK8Zzzg+XbM6YJmBWAAIUzGt2Y72a57nb2nOkiRJkfuCA9wLIC/q8gFtjCEDSpm6Zt+AcYxnsi8UtACQbputWdbflrZsT20DkSRJ0jqmciBTjCEPDuEV5zWZs5LPmcjENY8LTKLUSCwAJK3+mv36v1ngX99AJEmStBHjOZCZxpAHd3CeIWTagjUPCXzzboEFBmIBoDCqsfXaDfza0sb8JEmSVA4fcAhzjCHn6vMhLY0hGnPXrgyYyMcsMRALALlMqOU6G/i1pthIJEmSVGFvcjiLjCHnuvCSc5sorWbyOhsJTvVRAQsA5bfui/raU9dAJEmSlDOvcoy7nefBfZxlCNFb9yWDE9120wLAhlSnxdoN/HZkCwORJElS3jzDiaw0hhxrwBi2MgatY+6aMsBYxvApCw0k5gJAVVquc5+/NUV2BkmSJBXIw/SkxBhyrCsDDEEbKQf8b23AmFhX4cRVAFj3RX07UMtrQJIkSQn5G78xhJx7mNMMQWXw3ZcMTo6nHJf1AkBDtll7n39nX9QnSZKk1OjNTYaQY40YQzNjUDktZ8LatQEfMssCQGja05H92IH2NLU3S5IkKZVKOIknjCHHTuZRQ1ClfMk4xvImbzDOAkDa7cspHEdre60kSZJSbyldGGEMOfZfTjAE5cRknuRR3rIAkEbVOJOfs7u9VJIkScGYTacs3mVMVBPG0MQYlDOjuZkHs/LejioZOYoz6MM29k1JkiQFZgId+coYcupMHjAE5fg67cNDlFoASIPtuZ0D7ZOSJEkK0kgOZrEx5NST9DAE5djr/IyPLQAkrRe3UdveKEmSpGA9xQnxvIasIFowlnrGoBxbzmX0DfsQioNufS0e5Eqq2RMlSZIUsA4UM9gYcmgBSzjSGJRjVTmS7XmWVeEeQsgrADbnKQ6wF0qSJCl4pZzOI8aQQ0WMYF9jUB68Rbdw9+0ItwDQkFfYw94nSZKkTFjKgYw0hhzag7cDX++stPqQQ5gdZtOLAo28Hi85/ZckSVJm1OJxmhpDDo3iZkNQXuzM86HuMVEl0FY/xon2O0mSJGXKULqwwhhypg4f0doYlBdPc3yIW3eGuSjmKi60x0mSJCljWrE1TxtDzqxkPGcYg/KiA6W8ZgGgEPbj/mAfXZAkSZI2bDdm87Yx5Mx4dqeDMSgvDuAlpoXW6PAeAajBB7Szt0mSJCmTVnEYrxtDzmzNmFCf1lbqfcouLA+ryeGtAPgVp9jTJEmSlFFFHM1DLDKIHFnAMn5kDMqLRixieFhNDm0FQBM+o749TZIkSRk2mMNZbQw5Usxb7GkMyosFbMtXYV0OYfkth9vLJEmSlGltKGWIMeRIKe/yE/cQU17UYDmDQ2pwWCsA6jCVze1lkiRJyrgSjmSQMeRMXy4xBOXFHFqyOJzmhlUJO9HpvyRJkiJQxINsZQw5c2V4u7UrEJtzYlgfLSHpaf+SJElSFJrSn2rGkCML6W0IypMzQ2psSI8ANOJLn92RJElSNK7jckPImQF0NQTlQQlNmR1KY0OaUHdx+i9JkqSI/IajDSFnLmWZISgvc+ouITU2HIfatyRJkhSRKtxHc2PIkQncYAiKfaYaUgFgD3uWJEmSotKEewN7b1ea/ZkphqC4Z6rhFACqspM9S5IkSZE5kp8aQo4s5TeGoDzYiaqhNDWceuLWTLVnSZIkKTqL2Z3xxpAjL3KEISgPs9VAXjQZzgqALe1VkiRJilAd/uMLAXPmF6w0BMU7Ww2nALC5vUqSJElR2pMrDSFHxnKLISjnGlkAyDWrnpIkSYrVFXQ0hBzpwyxDUKyz1XAKAMX2KkmSJEWqKg9Q1xhyYj6/NQTFOlsNpwCw0F4lSZKkaG3DXw0hR+7jTUNQTi2wAJBr8+xVkiRJitiFHGAIOVHKRaw2BuXQfAsAuTbNXiVJkqSIFXEnNY0hJ0bxb0NQDn1uASDXZoZTVZEkSZLyoINvA8iZy5ltCMqRBeFsLFkUUKxj7VmSJEmK2mXsYQg5MYc+hqAcGRNOU0MqAIywZ0mSJClqVfm3r8fOkdt43xCUE8MtAOTDMHuWJEmSIrcr/2cIObGaSw1BsRUAqgQUa22+ora9S5IkSVFbzu58bAw5MYCuhqBKWkoTFofS2JBWACzhJXuXJEmSIleDW4O6jZdmv2KlIaiSXgxn+g/FQUW7jFPtX5IkSYpca8bxkTHkwGyas7cxqFIuZ1w4jQ2rdljMZ7S2h0mSJClyX9CBhcaQA00YTwNjUIVNpS2rQ5pSh6SUIn5kH5MkSVLk6lGVQcaQA0sopYsxqMKuDuttdaE9PVST8bSwl0mSJClyK9nVrQBzojpj2cYYVCEz2IalITW4OLCAVzGPY+1nkiRJilwxHehnDDmwmi850RhUIb15J6wGh7d/aBVe5lB7miRJkqJ3Io8bQk5mGEPpZAwqt6EcRKkFgHxrzyhq29skSZIUuc/ZPqQXkKXYfozw1YoqpyXsEdL+/98oDjDo2XxJd/ubJEmSIteAEgYbQw5MYyd2MAaVy4UhbsQZap3rQc6wx0mSJClyy+nAZGPIgTZ8TA1jUJk9xikhNrs40Lhf5iQ2t9dJkiQpalVpwhPGkAPz2IyOxqAy+oyuLA+x4eE+6bILb1HTnidJkqSolbI37xpDDjTkS6oZg8pgOfszKsymFwUb+gdcZs+TJElS5KrwN0PIiT2d/quMfhPq9D/cRwAA3mYXtrf3SZIkKWpteIMJxlBp99HKEFQGA/lFuI0P+2UXDRlNa3ugJEmSovYBu1NiDJXyI14wBJXB5+zO7HCbXxR0+PM4hZX2QUmSJEVtF9+QVWlXG4HKYBWnhTz9D70AAG/zB3uhJEmSIneN22NXSlf2NQSVwZUMD/sAioM/BcPZg/b2REmSJEWsIfN4wxgqqAoPspUxaJNe4CJKQ+/s4WvCe2xpb5QkSVLEZtOGhcZQIcfxhCFok2axGzNDP4jiDJyIJYzmzOAfZpAkSZIqrjYLGGYMFVCF/9DcGLQJqzmWj8I/jGxMmwfzJ3ukJEmSovYr6hlCBZzEroagTfoTg7NwGMUZOR2v05m29kpJkiRFqzZzGWEM5VTEwzQzBm1yvvmT0J/+/0aVzJySZrzn0h1JkiRF7GvasMgYyuUMHjQEbcJX7M70bBxKcWZOymLGcnqGChqSJElS+dRmju8CKOds6BEaG4M2qpSTGJWVg8nS1nnP83d7pyRJkiL2a2obQjn0pIMhaBP+xvPZOZjiTJ2awXRha3uoJEmSIlWXr3nTGMqoGo+xuTFoo96mJ6uzczhZWzK/NaNpZC+VJElSpGbSlqXGUCY/5U5D0EbNYw8mZemAijN2ghYwltPcCUCSJEmRqssXvGMMZVCNR9nMGLRRp2dtV42izJ2igdxiP5UkSVK0Ls3gGD8ffkobQ9BG3cyTWTukLN4rr8EI9rC3SpIkKVI9eNoQNqEm42lhDNqID9gve4/TZLE6uJxTWGB/lSRJUqR+YQSbdL7Tf23UIk7O4m4a2Vwe9Bk/tcdKkiQpUgexjyFsVE1+bQjaqAsYl8XDyurzQY9xj31WkiRJkbrECDbqIrYyBG3E3TyYzQPL7n75NXmLXey5kiRJitBKtuFzY9iAOkykqTFog8ayN0uyeWjZ3SF0Gadn9aRJkiRJG1WNiw1hg37u9F+xziSrZPrUnctd9l9JkiRFaB5bs8gY1qMuE2liDNrILDLDj5Nn+x2hmX1yQ5IkSdqohpxlCOv1C6f/2oiM7yZXJeOnry4jaW8vliRJUnQ+dEes9WjAJDYzBm3AZ+yZ7VfKF2X8BGb07Y2SJEnSJuxMR0P4gf9z+q8NWs4p2Z7+Q3HmT+IsFnCUfVmSJEnRKeJpQ/iOhvyHmsagDfhF9q+YoghO4808aV+WJElSdE71bvf3/IaGhqANGMgt2T/IKlGcyoaMoo09WpIkSZG5OIYpTZk1ZiL1jEHr9Tm7Mzv7h1kUxcmcx6mssE9LkiQpMucZwTouc/qvDVjFqTFM/2PYA+Ab01lJF/u1JEmSotKMF5huDAA050GqGYPW67c8EseBFkdzSkewhy8ElCRJUmSq8IwhAPAnDjAErdcLXExpLB8I8WjCe2xp75YkSVJEFrNl1l9sViZbMIFaxqD1mMVuzIzlYIsiOrFfcTqr7d+SJEmKSB1OMATgSqf/Wq8Szohn+h/TIwAAUyjiYPu4JEmSIlKbB6LPoCX3UtWuoPW4mntjOtwqkZ3eIl7iMHu5JEmSolHC1nwReQZ38lM7gtbjNQ6La5V4UWQnOLIFHpIkSYpeESdFnkArzrIbaD0ifEi8KLqTPItzKLGvS5IkKRqnRX78fahuJ9APlPKT+NbGFEV4ol/g7/Z2SZIkRWNftov46LflTLuA1uN6BsR30MVRnuohHEZLe7wkSZIi8RWvR3vsN7GbHUA/8Da9YnxHXJVIT/fWjKaRvV6SJElR+ITtIz3ydoyN9KanNmYeuzM5xgMvivSEf87ZlNrvJUmSFIUO7B7pkV/j9F/r8eM4p/9EfDl8SiP2tedLkiQpCnN5JcKj3pGbo13zrA27iX/GeugxXw41GMEe9n5JkiRFYCw7RnjUj3O8p17f8wH7sswCQIy2YRT1vQIkSZIUgfZ8GtkR78673v/X9yxiL8bFe/hFUZ/8CfzUK0CSJElR6BbdEV/t9F8/cEHM0//YCwDwGHd7DUiSJMkCQObsSVdPur7nLh6MOwBrYjV5k129EiRJkpRxq2nO1xEd7/Mc6UnXd4xhH5bEHUFR9J1gGafH3gkkSZIUgWKOiuho93f6L2d+FgDWZyyXGIIkSZIyr3tEx/pHT7e+5yI+MAQfAfhGP3oagiRJkjJtEU0ief1ZZ4Z6uvUdj3KqIVgA+FY9RtLOGCRJkpRpR/FCFMc5mIM92VrHp+zFQmPwEYBvLeRElhqDJEmSMu2IKI6yi9N/fcdyTnP6bwHguz7kN4YgSZKkTDs0iqP8gyda3/FLRhnCN3wEYF2Pc7whSJIkKbNKacZXGT/Go3jOE611DKQ7pcbwDVcArOsnTDIESZIkZVaVCBbHX+Vp1jo+5yyn/xYA1m8ep7DCGCRJkpRZWX8IoDv7epK11ipOZY4xWADYkHe40hAkSZJkASBIVRzN6zuuYIQhfPcS0fcTeYruxrABpUxjIhOZwFcsYDVzWcVC6tFwzZ/GdGAHtjAoSZKk1NqaaZk9thP4b6aOZwZj+ZjZzFvzZyH1KWYzqlKPJmxDW7ZhK+d0G/Q8x7j83wLApjRhNFsZw3dMYBhDeZPPWF6G/3ozdmAHduNAdrSHSZIkpcxZ9Mvs3GY0uwZ/FKWM4TXeYyxjmVeG/74m27IfB9CZtnbu75jJbswyBgsAm3Ygr1JsDMA8nuY5hjKjgn+/MYfRlaNoZJSSJEkpcT9nZ/TITuGRoNs/m+cYyCvMruDf35IDOJpjaWAnB0o4nFeNwQJA2VxFn8gTWMgzPMaLZbrjvynFHMLpHO9HkSRJUgp8TstMHlcxH7J9oG2fx5M8zGBW5+Bn1eBITqEbdaOf0f3Ri90CQFkV8SJdoj36UfyDJ1ia459ak5O5gP3sXJIkSQlrwfQMHtWZPBBku9/gNvqzLMc/tRYn8H/sHm0ff43DclJOsQAQjWa8R/PojrqU57khr0tl9uIPdLXfSZIkJegEnsjcMRUzhvbBjb0H8EfezeNvOIxfcmSEY++v2I0vvNDXx9cAbsgszqAkssn/Q+zEMXl+UmYk3dmHgXYwSZKkxOyTwWPqFdj0v5QB7MWxeZ3+wysczc48HNlO+CX0dPpvAaD8XuX6iI52BPtxJmML8rtG0o19eN4uJkmSlIh9M3dE1bgyqPY+xz50Z1RBftcYzqAjb0bUv6/jRS/yDXEp9sZUZQidIjjOaVzBgwnUBbtyK1vbzSRJkgpsEQ0z9nz0edwRTFtn0Jv+CfzertxM6wh699t0ZqUX+Ya4AmBjVnFahV/CEYoSrqMdDySyLGggO3N7ZA9aSJIkJa8uO2TqeKpzeTBj71vpkMj0HwayI3/P/Nh7Lqc4/bcAUHGf85NMPzEzlUO5POf7/ZfdfC7gID62o0mSJBVUtnYB+CltgmjnWA7gIhYk9vuX8Gu68HmG+3Up5zDZy3tjio1gE8axeQafkvpGf7rxSeKtmMo9bBXxK0okSZIKbxYDMnMsNXmM+gG082G6MzHxVkzm37Rgl4z265vo68W9ca4A2LRf8VYGj2opPTmZOaloyzJ+TG+X6kiSJBVMllYA/IwWqW/jSn7OGSxORVvm05OzWZbBXv0ul3lpb4qbAJbFNrxLg0wd0Wx6MCxlberEY2xpZ5MkSSqAVdRP8DHQXKrFZ6kfQ37BSYxIWZv242maZqpPL2Ivxnlpb4orAMpiAj/N1PF8zN6pm/7DcPbiPTubJElSAVSlQ0aO5OLUT/9Hs2fqpv/wJvtnbLr8M6f/FgBypz93ZeZYXmV/JqWyZTM4hDfsbJIkSQWwYyaOog6/SnkL36ELM1PZsgl0ZEhm+vOdPORFbQEgly7hw0wcxzMcxbzUtm4eP+I1O5skSVLeZeNFgL1Tvox9MIemZNet9ZnLkTyXiX7wMb/wkrYAkFvLMrEG4BVOYUWqW7iQH/GM3U2SJCnPsrACoD6/THX7nucYFqW6hcs5nhcz0BNuYYmXtAWAXNs/+CMYxrEB7Pe5nJN5xe4mSZKUV1lYAXApm6e4dYPoEcBGi8s5MYU7FJTXPl7QZeVbAMqqBl8G8X7RDXuPQ5kbSFvrM4yd7XSSJEl5U0LdwN8D0IBJbJba1o2lU4ofvP3+2PsV9gq6L8yjWcrXOaeGKwDK6ojAp/+T6BLM9B8W0J1ZdjpJkqQ8zgNCfw/Ar1I8/Z/J0cFM/2EBRzEl6L7QkEO8pC0A5NYJQbd+GScxO6gWT6Yri+12kiRJeRP2QwCNuCS1bVvKcYFNqL/m2MDXg5zgBW0BIJeq0S3o9l/Au8G1eSQ/tuNJkiTlTdjbAP46xetze/FmcHm+z8VB94fjqOolbQEgdw5J9QYjm3Ib9wXZ7sf4t11PkiQpT0J+BKAxF6a2bXfx3yAz/Td3Bt0jDvCStgCQO8cG3Pa3uTTYtvdmgp1PkiQpL1oF3PbLqZfSlo3n/4JN9RJGBtwnenhJl4VvASibycF+QK5gD8YEnPxejKCaHVCSJCnnZtM40JY3ZwK1U9myVRwQ4PL//9mZd4Mde0+irRf1pvmkRFnsGnB99Nqgp/8wkr9wVWrb9kq010QRv/aDQSnyStB3LFSeUcs3d/zqU5vabEZtatOQBgYjVVAj6rIoyJb/NqXTf7g66Ok/fMjfuCLQtrdhB8Z6WW+KKwDK4nf8KdCWf8quLAt+uDeanVLZsmVsx7RIr4lqvmlVqXIpfQ0hYtVoTGMa04zGbMXWtKIlW3qLQyqTnYK8VbQln1ErlS37mF1YFXifqMF7we4OcRnXe1FvenKlTesaaLtLuSD46T+s4hcMSmXLavJbLvLykKSErWQGM773z4rZkm1pR3s60I7WFBuTtF6tgiwAXJnS6T/8IvjpPyznZwwO9DbxMRYANs0VAJvWhJmBbpZ4b2ZepPccR6V00NmeSVFeFa4AULq4AkAbV4Md2Z3d2I1dU7ttmJSMC7ktuDa35FNqpLJlzwZ72/D77qdXkO1eTTNme1lvnG8B2LRjAk1pJddk5hz8HytTOg3+rReIJKXeckZxDz/nABrQgXO4m7GUGotEmO8B+H1Kp/+ruCwz/eIPgd7qKeZHXtQWAHJRAAjTvRm6N/0Jt6e0ZWezjZeIJAWjlHHcx0/ZkcZ05R98aCFAFgAC0zq196ZvDXzr7XVN4YFAW97Vi3pTfARgU6rxVZD7C6+kHZMzdB6aMZmaqWzZfZwT5XXhIwBKEx8BUMU153AO50iaGIWi9Ab7B9bi+zgrle1aTpsf7EYSslZ8SvUA2z2fJildOZwargDYlIMCfb3QPZma/sMsHk1py3rS3stEkoI1kwfoxRYcxD+YaByKTovA2rsdZ6S0ZQ9mavoPU+gXZLsbBFfSsgCQOmEuI1nBXzN3Jm5I6TLNYn7vZSJJgVvN6/ySbdiNvzDFOBSRRoG1t09K32FWyj8z1zf+HOid9GO8rC0AxNiFnmBq5s7Ehyl9GSCcxs5eKJKUCe/zO9pwIHcy1zAUhdqpfaHe+uzAqSlt2fMZev7/W5N5Osh2uwuABYBK2Z5tg2z3HZk8Gzek9iq60ktFkjKjlKGcz5b0ZIRhKAIhrQG4KrVzl39ksm/cHmSrQ52/WQBIiTArSON4LZNnY1Bq1zWcxK5eLJKUKct4kE7syq0sNAxZAEiFnTgxpS2bxKuZ7BuvMj7IdvsQgAWA6LrPQxl9qVEp/VPasipc5cUiSRn0ARfRgkuZbhSyAJC4a1I7c3k0s2Pvh4Nstw8BWACosM3oFGS7H8nsGXk0tS3rwd5eMJKUSQvoyzacF+idMGlTGgfSzj041hFqwT0YZGkj1Le4WQBIgaNSus/oxo3K8BDlHSaktGVVfBeAJGXYcu6iAyfzmVEoc0JZAXA1VVLask95L7O94zNGB9jqahzuhW0BoGKODrLVz2T6nDyW2pZ1Y18vGUnKsBL6syMX+jiALAAkYK8UP5j7aKb7x8AgW+0uABYAKqSYI4Ns97OZPitpfh1JHy8aScq4FdxGe/7EUqOQBYCC+lNq7/9n/eZbmDOLY5zlWgCoiGODei3Kt77m3UyflVEsSW3bjuRALxtJyrzF/J7tU7strVReDQNo4/78KLVtW5ThBwAARjInwFY3SfGOERYAUqkeZzGI/wbZ9tczugvpt1byVopb9wcvHkmKwhRO5vDU7ksjlUeNANp4TYrb9garMt0/ShgWZLsfZxBnUc8L3ALAphTThX58wX10SfFCo40XALIuzR9Ch3GwF5EkReJlduZqVhqELADkWWcOdWTq7KKcqtCF+/iSAZxEdS9zCwDr7yQd+RczGURP6gZ8HCMzf6aGp7p1f/JSkqRoLKUPHfnEIBS0mqlvYbpHV9kvAIwMund35TGm8y86Bnpz1wJAnrTjasYzgouCeRPqhn2c+bM1gpIUt64TXbygJCki77I7N2X88TtlW9rvjh7OQSlu3epUP5yaG2ODP4LGXMQIxnM17bzgLQBsznkM4xP+wDaZOJ4ZQW7TUT4L+SLV7fujHyuSFJVl9KYHsw1CgUr7CoB077A0lcWZ7yFf8VUmjmMb/sA4xnAZzS0AxKkOZ/Acs7iDThlaEDI2inOX7k2XOnKUYwlJiswz7MUoY1CQ0r0HwNF0TnX7JkbRR7I0w9iBa/mc5ziDOhYAYjrmztzBDB7kKKp6eVoAyLlrfMZIkqIzmf252xhkASDHrnJU6gwj56pyFA/yFY/RjWoWALJub27kC4ZyXkZfChHHRkRp/6jdk26OJiQpOsv5Kf+X6n1qpNAKAMeyT8rTi2MFQDb3GKvFSTzD59zI3hYAsqkll/EJb9ObZhk+ypkWAFLhT26vKUlR+icnstQYZAEgJ6rQx1FpKnyZ4WNrRm/eZjLXsp0FgOxozIUMZzLX0j7zxzo/il47PfUt3JnjHE9IUpSepEsEG/IqS9K7BPoEdkt9el9E0UfmZf4IW3EZ4xjOhRl4J1zkBYCadOMxpnML+0fyVPbcKI5ySQBtvNo1AJIUqREcEMmKPGXDytTOUn4fQHqLo+gj86I4yirszy3MZBC9qGsBIDzFdOFeZvEMJ6X+7aZenuUVwuLKHTnZEYUkRWosh0RyX1AWAPLnFHZxVOoMI5FZ5P1M5166UGwBIBQ70ofPGMTZ1I/uIzyOFQBhfNRenbl3TEiSyuoTDsv0U7OyAJD/adjvg0hvSRR9ZF50V0V9zmYQU+mb8tdQWgCgBb0ZxUdcRetIP8LjWIYURgGgHac6ppCkiEsAR7HAGGQBoIJOZ3tHpamxKNJrY0suYShj6cM2FgDSZzPO4zWmciO7R/0RXiOKowzlo/Yq1wBIUsRGcVQkdwdlASDXivmdo9IUqR71FbI9VzGe1ziPzSwApGXK241+TOMODoxko7+NqRXFUYZS5tiWXo4qJCliI/gxpcYgCwDldlYw7+6KY2pcO/qrpAoHcgczGECv8NMoCrrtB3EXM3mGnnbLqAoADYNp6ZUpfrWOJCn/HuUvhiALAOVUjSsdlTrDSKEadOV+pnMXB4U8iw616TtxLZMZwrmRXHZlFUchpEEwLW3DmXZKSYraH3jKEGQBoFzOpI0FAAsAKT7n5zKEyVzLThYACqMFv+Z9PuQytrb/RXp5hvRR6xoASYpbCecwyRhkAaDMQrr/bwEgXltzGR/yPr+mhQWA/GlALwYwieuDeCtoMhpHcZQNAmprW063W0pS1OZxWmrftC7B8pS153TaWgBImUZeJhuwC9czhWH0DimjMAoAxXShH9O5n67uq76J6WYMNg+qtb90c0pJitxbgbzRXHGal7L2XOqo1BlGUIroxI1MZwAnhbEpZNoLAFXozG18ySB6Usf+5eUJwHZBtXZnDrZjSlLk/s7bhqCUmpuq1hzKbkGlt20UfWQbL5NNqkFXHmMGt9E57Tf/0lwA2J5rmMBQfhZJbc3Ls6x2CKy9F9kxJSlyqzk7dQutpW/MTlVrLnRU6gwjYJvzM4YygWvY3gJA+WzBpYxkLFcGtAdoOsSxAiC0j9pukezNIEnasI/5myEolealavrU1VGpBYDgteFKxjKSS9nCAsCm1eIkBjCVf7KnfadCl2f2nzevTavAWlydU+yakhS9vzDVEJRCc1LUltOoEVh6bamZ+R5S5C3ZCtmTfzKNYZxHPQsA6/fNRn9f8pgb/VVCvTQvN8mRDgG+vLKnXVOSorc0qJebKR7zHDFVagbTLvM9ZGdqe5lUeK7diTv4kgGclJ5Xg6djKrUfNzODQfSkrv2kkg7I/BGG+BLIfcJ7Q6gkKeceZJQhKHXSswJgS/YJML9dM99DOnmRVFJNuvIY07mZ/SwAQCsuYxxvcDFN7BteomUSYomjCsfYNSUpeqX80RCUOul5C0D3IB9l7Zz5HtLZiyQnmnAxbzCFa5NeNVKUYAQ/500mJx+Bl2hgDgyy1V3tmpIknmGkIShl0rMCIMzbJQdmvodYAMilllzGON7k58nd/k6izlaTw+lJj/Q8B5ExWzMt0xfNlCDbvYjNWJWh81CNFV5qSpFL6WsICsTJPGoISpESarIyFS2pypy0bZZWJqW0zPTYuxWTvUzyYjWDeYAnWFToX1xU4N/WmTv4kmfStA1C5hyR6aMLdSl9XXaza0qSeCLTUwWFZ1ZKpv+we5DT/+w/6HmEF0meFNOF+/mSx+hW2Jlx4QoAO3It0xiavhchZM7JmT66cJfSH2jXlCSxirsMQSmSnpdThjtSyvaDnqd6keRVLU7iGWZwR+EetShEAWBrejOaj7iMLTzHBXAYjTN7bPU5NNi272PXlCQBd1NiCLIAkKGRUhfqZ7Z/NOMgL5ICaMR5DOVj+rBt6AWA+pzPMKZwo8ufC6gqJ2T22E6gZrBt39WuKUkCvmCIIcgCQIZGSjU5LrP940SKvUgKpgNX8SnDOD+/JaX8FQC25gY+53Y6BflCj7Bl9yGAMwJu+3bUtmtKkoCHjUCp8XlK2lGrEHc+8+Z0ZxXKkSp04nY+5wa2DqsAUJc+fMr/ZXg5TLodlL8Ok6i2HBJw64tpb9eUJAFPstoQlBJpWQHQIeg7zYfRKpO9o7WvAExIff6Pz+hLw1AKAMcwjqsCXqodvmJ+nsnjOr/Ab63I/YeoJEkwhzcNQRYAvqNN4GPv8zPZO3oHPvYOW3UuYVw+Hu3O9UmtTT8GsqVnLGHnZXD1RS3OCfwIWtkxJUkAPG8EsgCQqVHSTzJ487MBP/ECSVhT/ku/XD9GnNsCQBtG0NMzlYoL9tzMHdP5NLEAIEnKhFeMQKmwhK9T0pKWwU/Ufpq53uHL29OhJyNyu0ImlwWAnRnhTuep8QuqZep4avKr4I+hkd1SkgTAaJYbglJgKqUpaUn4L7H+LbUy1TeqcbEXSErsygh2TmMBYHeG0NzzkxotODVTx/Mztgr+GBraLSVJACxnlCEoBcY5SsqZLTK2BuD04FdlZElzhrB72goAbXmOzT03qfIX6mTmWGry6wwcxWZ2SknSGqONQCkw1lFSDl2eoTUAtfijl0eqbM6LtEtTAaA+z3v3P3Va8MvMHMuFmdhY0jdjSJK+9YkRKAXGOErKoS0y9C6Ay7z/nzpNGJCbbd5zUwC4J1f1COXU5Rm5dJtzZSaOwxepSJIsAMgCQHZHSX0y8i60FhnYeyuL2tGPKum42M7lRM9HKtXiT5k4jn9lZPG8BQBJ0rcmGIEStzpFewBUyUSiDfhHJo7j+gw9SJwtx+bi1YyVn5I053rPRWqdyYHBH0N3TsjI2Si1Q0qS1phlBErcJJY6SsqxU+ga/DEcnLGtxLPl75XfGL3yBYDr3dosxarwUODnpx63ZOZsLLRDSpLWWOy3ghI3NkVtWZSZVG+hXtDtb8B9GVmPkU0N+GvSBYCdOMPzkGotuDno9l9HCwsAkqQMmmMEStiYFLUlO6Oklvwl6PbfRisvjVQ7g12TLQBc5XPNAXSS04Jt+3H8LENnYoGdUZK01jIjkAWAteZnKNeLODnYtp8Z8LwhFkWV3R69ctP3lvTwHATg1kDfBrBDbna6TI0ZdkVJ0lpLjUAJS9MjADMzlGsV7mb7IFvein95WQTgOFonVwD4KVU9AwFoyLM0CK7V9fgvdTN1HqbZFSVJa5UYgRK1LFUrALI1SqrHU0GOvUNsdYyKK/cugMoVANwhMhQ78Z/AijVV+HegtVMLAJKksqhlBErUSFY4Ssqbdtwf2DrWYh5iNy+LQJyeVAFgN7Y1/WAcxY1BtfevnJi5czDRbihJWqumEShRb6aqNRMyl++x/Dmo9t5MNy+KYLStTLGmMgWAI8w+KBdxaTBt/QOXZS7/Ej6xE0qS1qpvBErU26lqzccZfCjmt1wRTFt/xQVeEkE5PJkCwAEmH5gb+HEQ7fwlV2cw/YkstgtKktaozuaGoESlawXAEiZlMOM/0zuIdp7LdV4QganETLwyBYC9TT4wRdwdwCqAH/O3TKb/oR1QkrRW00y950bhmc7nKWvRB5nM+Z+cn/o2XsAdvtg9OPskUQBoSDOTD04V/slvUt3C3tyV0SHRcLufJGmtlkagRL2ZuhaNyOjY+1YuSnULL+dWp/8BasZmhS8AtDP3QF3HtSltWTE3cWNmP4IsAEiS/md7I5AFgChGSkX8ixspTmnrLuOvXgyB2q7wBYCmph6sy3iQ2qlrVR2e5OeZzXwpo+14kqS1OhiBEvVW6lo0iqWZTbs3A6mXulbV5J7U3hbUpjUpfAHArWtCdgbDaZuqFm3F0Ey/fGQwy+12kqS1djECJWgl76auTcsZkuHEj+RVtkhVi7bhzUC2B9f6NSp8AaCaqQdtN0bTIzWtOYqR7J7pvJ+1y0mS1qpSmQ2cpEp7myWOlgpsL97n2NS05mjeYVcvhKBVeDZe8QLAalMPXH0e5xqqJ96OutzFczTPeNrP2eEkSRiUsu4AAIAASURBVGvtQENDUIIGpbJVWb9d0oSnuIM6ibejBn9mQMW3kFNKrCp8AWCpqQeviCv5iEMSbcPevMu5mU96JJPtbpKktQ40AlkA+IHJKXwwIdfO40M6JdqCToziCvf9z4BlhS8AzDL1TNiOl7mVBon87kbczIgo3ifxkB1NkrSOo4xACVrAO46YEtOGwfRNaDe1BtzOUHbwEsiEmYUvAMww9Ywo4gLGclqBK4HVuIRPuZiqESRcQn+7mSRprZocaghK0KusTGnLHoniIeNqXMJ4fl7gUXARpzOW86niBWABoKImuKt5hmzJw3zAyQUrAhzDB4nVPgvvOabbxSRJa3VJwVPAitmg1LZsBs9Hcg425yY+4OiCTf5P4UMeYks7f2YsZ2LhCwCr+MTkM2VHHuVDelKc199SjZN4i4FRvf/4JjuXJGkdpxuBLABswM0RnYfteZb3OI+aef0tVejKSB5x4X/GfFzxdTyVueP7pslnzg70430upH5efnpDLmMSj0X26qPxvGzHkiStVYfuhqAETWZ8ils3KLJbjLtyB+P5dZ7246rPRXzEgIy/bDtOb1X8r1amAPCKyWfSjtzCNO7m4Bw+EFCD7jzI51zLVtHleQOldipJ0lqn+gCAEvVSqltXyo3RnZEWXM80HqBrDl/PXcTB3MN0/uWd/4yqxA3GymwDsRkzU/AWeeXPNJ5gIK9XareH6hzKKfSI9n3Hn7NdJnfLqMYKLxClyKX0NQQF4132MAQl6CT+m/IxxnhaRXpu5vIUjzK4UqOsGhzEMRxPC7t6hq2gOXOTKADAM3Qz/8xbxOu8zuu8z5Jy/K36dKITB7A3taJO7yJuzeRxWQCQBQCpYg7gdUNQgpbTjPkpb+OF3BL1OVrK2wxlOCNYUI6/VYddOZADOJC6dvPMe4ZjK/6XK1cAONHXm0WklMl8zBg+ZhxfMZ9535sC1qEp26z5047t87yZYBgmsX1G35ZhAUAWAKSKedodAJSoZ+ma+jbW4GPaeKpYzVg+ZSITmMAEvmTxd/5tdRrSkMZ0oAM7sj2tfcFfRCq1jqdyHaUqn0W7REewhHksozp1qJXn/UujvDgtAEgWAJQ5uzHKQboSdQ73BTGCesxTtR5LWcZiVlCLBtQ2jmhNo23F3wEAVSv1y1fRl394DqJV24+ejRrB44YgSVrH753+K1ErGRBEO/vzOgd6un6gFrXYzBii94/KTP+p9D7vtzHFcyCt9yv2Qvf/lyStYz+OMwQlajCzA2npJZWb4kiZNY07KvcDKlsAWMbvPQvSelzH+4YgSVqrCn29/6+EPRFMS9/nek+XtB5XlGtj9jwUAOBBXvQ8SN8zjj8bgiRpHT3ZxxCUqNU8FVBrr2Gsp0z6nld5sLI/ovIFgFLOL9crKqTsW8lZLDMGSdJajfibIShhQ5kVUGuX08sth6XvWMCPK/+IcVEOGjKFXj7rLK3jMt4yBEnSOm6iqSEoYaFtTvwuv/WkSWuVcm4u9t8rykljnuYvnhFpjYHcaAiSpHV05XRDUOKThyeDa/M/GeiJk9b4C/1z8WOKctSc33OP50QCxtHTFTGSpHVsyb8NQYl7jenBtbmU0xnjqZOAe3K1+X5Rzi7P8/mP50XRm0M35hmDJGmdsdb9NDEGJe7eIFu9kG587clT9P7D+bm6xViUs0at5kxu99woass4gfHGIElaxx/oYghK3ILgdgD41iROcmtlRe52zmR1rn5YUQ4bVsIFXO75UbRWcyZDjEGStI7j+YMhKAUeY3GwbR/CyazyFCpa13EBJbn7cUU5b96PvUAVpRLODra2LknKj125nyrGoBQIex+KAZyTywmQFIzVub/FXpTzRt7LiSz1XCm6i/PHPGgMkqR1tOAZ6hqDUuAT3gj8CB7kDFZ6IhWZ5Zye+4fsi/LQ0Kc5ivmeL0VkBadwvzFIktbRmJdoaQxKhXszcAyPcLx7ASgqi+jGY7n/sUV5aexrdA7wRSNSxczlaBf/S5K+ox7Psb0xKBVW8UAmjmMgXZnr6VQkZnIgg/Lxg4vy1OCPOMDd0BWFiXTiFWOQJK2jLs+wtzEoJZ5nRkaO5BX2YZwnVBEYz/6Mzs+PLspboyfRkTc9d8q4l9iXj41BkrSOhgziYGNQatyboWP5jM685ClVxr1LZybl64cX5bHhs+nCC54/ZdZqruYovjYISdI6mvIK+xmDUmMaAzN1PF9zJJe6IaAybDCH8mX+fnxRXhu/mGN5xHOoTJrEofTxlTSSpO9oxxvsYQxKkX9lbrJcSl+65O/+qJSoJzmaBfn8BUV5PoAVnM7fPY/K3BfPnezC6wYhSfqO/RhGW2NQiizh7kwe1+vsyHXeiFHm/D97dx1vV3WgDfi9cSMkuEuQQIDQosXdnaKD1YAahcoM1D6kSm0KpbRIKVqsUCjaAsULLVYKBHcnWCEhnnx/NEORyM29R7Y8D7/poDf7vGdln73es/baJ2S3Zj/tokfTX8S0/HcOyzTvJpVxbzbKwRkjCADe55O5PvOLgUI5Pa9V9JWNyxHZOPd6i6mMaTk6hzS/1urRkhdzXD6Ryd5TKuC1fD6r52ZBAPA+fXJiTks/QVAoU3N8pV/fzVk9n69sxUG9TMlnc1QrfqEeLXpBZ2bXjPO+Umpv57tZJr/KFFEA8D5L5Pp8TgwUzlWVf2jelPwqy+S7edubTalNyF45uTW/VI+WvajLsol+jtJ6J8dnuXw7/xIFAB+wW+7JumKggH5Wi1f5r3w7S+fo5m6cBk30ZrbI71v1i/Vo4Qv7WzbMs95fSmdiTs6yOTQviwKADxicM3Nh5hEEBfTPXF+b1/pajsoyOdaKY0roxWzcyhuMe7T0xY3KBnnIe0zJJv/DcnBeFAUAH7Jt7st+YqCgfl6zbbhfzRFZMsc2ew91aKjHs0FrN7Ps0eIX+HTWy1+9z5TCpJyVFXNwnhcFAB+yYM7LFVlCEBTUKzm3hq96dI7IcjleCUBJ3JF18nhrf8keLX+Rr2fLXOm9puCm5sKMyP55QhQAfEivfCGjsqcgKLCf1XYS/FwOzfCc7BlkFN512SyjW/2L9mjDCx2bnXKa95tCT/5XzB55TBQAzMDmuScnuO+fQns1v6z1638mB2c5JQCFdk62acfzK3q05cVOzmdyrPecgk7+R2SPPCIKAGZglfwx12RlQVBwP8mY2mfwVA7O8jnZA5wppOOzfya14xfu0aYXPC1H5LBM9c5TINNyeVbPHpV/Yi4AXbNUTso92UEQFN5rOVEISZInc3BG5iyzDgo26zg6h7ZrVPZo4ws/Lge0p/WAGbg2a2aH/EMQAMzACjktj+ag9BQFJfDjdiwsLqxR2T+r5sKaPROB4pqSA3NU+375Hm198WdnW6cnCjH5Xytb5C5BADADq+fM3J9PppcoKAXf/3/Y/dlDCUAhvJOd8pt2HkCPNgdwbTt2PoT3uDUbZ4vcIQgAPqRP9sqtuTP7+eafEvH9/4zdlz2yTi4XBG30RrbMFe09hB5tD+GObJRnjAXaNPnfNOvnRkEA8CFL5ft5JudmXVFQKqNrvv//rP0tO2TdXCsI2uKFbJRb230QPQoQxIP5WO41Hmix27Jj1s/1ggDgAwZmn1yVx/P1LCgMSsf+/7O/BtwiG7gGpOVG5WO5r/2H0aMQYbyYTXKLMUHL/C07Zt1cJggA3qdXts5ZeSlnZ+uCXCPBnBnt/v9OuSWbZgOrQGnp/GOjPFuEAynKh9sb2TwXGRe0wL/v/zL5B+C9+mXzHJdnc1X2zSBxUFpH+v5/DkoA+0DRKpdn07xajEMpTrs9IXvmFGODpnrADrAAfMAS+VQuymu5Jl/KQuKg1Ea5mp5D/34S1N2CoKnOzK55pygHU6QH2kzJwXkhRxohNGnyf3R+b+oPwHRzZ+Nsni0yXBRUxtcyWQhdKAHWyG45MiuJgqY4PocVaQ5SrCfaTstReTXHueuOBnsyP8xvMkUQAGRY1su6WS8rud6gYv6cq4TQxTnIhbkoH893FII0fGz9T35SrEPqKGBMu+ac9DNaaJCn8/2cpg9vsN6ZKAQK5LAcJwRmc70zLB/NR/ORrGaZPxU1JR/J/WLolh75eL6X5QRBg0zMJ3Ju0Q6qVwGDujjb5Q8ZbMTQbc/kZ/l1JggCoIZ6Z1hWyPAsnxWzsusKKu9U0/9um5oLc0n2zrezrDDotrHZLVcX77A6ChrXGrkiCxg1dMNz+V5O8z110y6rJUuRWAFA0ivzZb4snsWyeJbM4lk8S6a3WKiNt7JcXhFDg/TJp/LNLCYIuuH1bJ/binhgHYWNbFj+pHuji0bnpzk+4wShAKAmTswfhFALg9MzSY/MnUEZkEGZOwMyOPNlvsyfecVDrR2RY4XQ4BLgEzkyiwiCLnkqW+fhYh5aR4FjWyhX5SNGD3Po1fwkvyjOgzYUAABA0ycbK2a8GJpSAhyVhQXBHHogW+e5oh5cR6GjG5SLs4URxBxN/k/IWEEoAACgRvbIhUJokoH5Yr6W+QRBp92YnfKv4h5eR8Hj65uzsrtRRCe8nRPzgyL/ZlMAAABNcHW2EUJTDcoXcniGCoJOuDR7F/tG5I7CR9gzJ+SzRhKzNCa/zA/zpiAUAABQM2Ozcp4SQ0tKgCMyRBDM0uk5sOiPH+9R+BCn5HM5wlhiFpP/72fJHGH6DwDU0JGm/y264jw2y+T7GSMKZurYfLLo0/8yrAD4t8/nFyUoK2i1d3JqfpCXBNFyVgAAQBH8M2tkkhhaaN4cki9nsCD4gGn5av63DAfaUZpId8656Wdk8a6JOT1H5UVBKAAAoKamZJ3cIYaWmy9fy5fSXxC8Z2ayf84vx6F2lCjWjXNJ5ja6mD75PybPC0IBAAA1dlwOE0KbLJCv5FBfT5IkGZOP589lOdiOUkW7cq7OokZYzU3Kb/O9PCMIBQAA1NpzGZG3xdBGS+Sb+WR6C6LmXs62ubs8h1uu++rvzwZ5xBirsam5MCNysOk/AFB7XzT9b7NncnCWzcnF3/aNJnoyG5Rp+l+2FQBJsmCuzGpGWi0n/xflWwqggrACAADa6w/ZVQgFsVS+nk+llyBq6L5snRfKdcgdJYx5UH6frYy2mk3+L8jReUgQCgAAIMlrGVm2aUfFrZAjs4enltXM9dk5b5XtoMs4SMdkp1xgvNXGtFyUVbO36T8AwHSfNf0vmIeyd1bNRZkmitq4INuUb/qfkrZUE7JXfmbM1cK1WTO75X5BAABMd2Z+L4QCuj+7ZWQuVALUwi+zdyaU8cA7Shz64flBqY+f2bkqR3q2bUG5BQAA2uWprFrG7x1rZM0cnW3EUGnH5oiyHnq5J9AH5FTbbVTUrflmbhSDAgAAeJ+p2SQ3iaHwPpZvZnsxVNKUfCEnlffwy71RxRn5eMYZgxWc/G+W9U3/AQA+5Mem/6Vwe3bIerlOEJUzIXuVefqfCiyh/1guz7xGYmXclh/kMjEUnhUAANAO/8jaPoNLZf0ck03EUBlvZqeyV3BVuId+lVydRYzGCvh7jszVYlAAAAAzND5r5AExlM7WOTpriaECXsjWua/sL6IKz6q8L+vmYeOx9O/iHvmY6T8AwEwdYfpfSldn7WyROwVRco9no/JP/1OZXfTnyWVZ16gsqQdydH7vgSmlYgUAALTaNdnK9VKpbZ5js5oYSurObJvRVXghPSryhryeLXOVcVlCo7Kn56UCAMzGSznA9VLJXZs1s2dGCaKErsum1Zj+V6cASMZmx5xmbJbKkzk4I3NBpooCAGAWJmX3vCiG0puaC7JK9nD7csn8Ltvk7aq8mB4VemMm5zP5sfFZEk/n4CyfkzNFFAAAs/HfuUUIlSkBLsyI7JFHRVESv8h+mVSdl9NRuTfo8Pyggq+qapP/7+X0Kv02qiF7AABA61yaXSz/r+DV1CfyzSwpiEKblq/n2Gq9pCpOlffLb9LbaC2oV/KzHJfxglAAAACd8mjWyFtiqOgV1Sfz7SwmiIKaks/llKq9qGp+V759zs8AI7ZwRuenOT7jBKEAAAA6aWw+lvvFUGF98okcmUUEUTjvZM9cXr2XVdXF8mvlisxn1BbIq/lJfpF3BKEAAADmwAE5UwiV1zcH5OgsJIgCeSM7VnPnjereLT8iV2dxI7cQXstPckLGCEIBAADMkRPzBSHUxKB8MV/LvIIohGezdVUf2Fjl7fIWyVUZafS22ds5MT/Mm4JQAAAAc+iObJAJYqhVCfCFHJ6hgmizB7N1nqnqi6v2fvnz5PKsYwS3zVs5Lj8z+VcAAABd8GLWzrNiqJ0h+UoOzWBBtM1t2T6vV/flVf2BeQPyWvoZxW0wJifkJ3lNEAoAAKALxmWT/E0MNTVvvpYvZpAg2mB85q/2rctVLwB6Z1x6GsctNiFn5Mi8JAgFAADQJdPyXzlPDLU2X76WQzzZrOUmp1+mVPkF9qj4G7iI6X+LTczJGZaDTf8BALrsG6b/tfdqjshSOdYjtFusV9WfxlD1AsBzAFo7+T8xw3JwXhAFAECXnZEfCoEko3NElsuJVl621BIKAG8fszcpZ2VEvpDnRQEA0A235GAh8K7n84Usm+M9D6JlKv4VshUAdN/UXJiVsn8eFwUAQLc8mV1N9fiAZ3NohufkTBaFGaQCQAHQ7sn/OVkhe+RRUQAAdNNb2SGjxcAMPJ2DMyLnZKoozCAVAAqA9piWy7Na9jX5BwBogEnZNQ+IgZl6NPtm5ZylBGgqewAoAJiJA7JD7hUDAEADTMvBuU4MzMaD2T8HiMEMUgEwY4sZwU10lQgAABrk8PxWCHSKokgB0GUdlX51fTOu4q+wnd7JoEwTQ0319jgaAGio7+ebQqCTemRc+oihSaalX5WvdKu9AmBB0/8metb0HwCgIU7Pt4RAp0316O0m6sj8VX55VS8AaGYBAABA912Yz/hihTnyjAjMIhUACgAFAABA2VyX/TJFDLgSN4tUAHTXAkav0w4AQIH9LTtnghhwJW4WqQDoPisAnHYAAIrr/mybMWLAlbhZpALAW+e0AwBQZU9kq7wuBrrAHgDNZAWAAgCnHQCAhnouW+YFMdAlvoozi1QAzIA9AJr7oQUAQFcncJvkcTGgAFAAKAC8dWXwZt4WAgBAlzyTTfKYGOiyN1yLN5FbABQAfIjWEQCga57MRr79p5usxjWLVAB8QK/MY/Q2jR0AAAC64ulslqfEgKvxwpq/yrPkHt44usQKAACAOfdUNs6TYsDVeIH1zLwKgDKyBaBTDgBAkTyS9X37j6txM0kFQDPYAcApBwCgOB7OJnleDLgaN5NUAHjbnHIAAKrsoWyaF8RAg9gDwExSAaAAUAAAABTSPdnI9B9X42aSCoDmWcfIbZpplq8BAHTaDdkkr4iBBvIYwGbaTAFQNsvmiuxq5DbNGxkvBACATrkwW+dfYqCh3jGmmmj7XJFlFQBl0T9H5b5sa9w20csiAADolBOzVyaIAVfkpbJtRuW4DFIAFN9OGZUj08+YdboBAGi7Y/OFTBUDrshLp3e+lPuykwKgyJbJ5bkkSxmtTjcAAG03JZ/NEWKgSewq0XxL5ZJcmxUVAEXUP8fk/mxnlCoAAAAKYEL2zkliwBV5yW2Wu3NM+isAimWHPJBvW/jfMqNFAAAwC29my1woBhQAFdAv384j2V8BUBTL5or8MUsbmS30kggAAGZxrbRJbhIDTeUWgFZaLGdU48kAZS8A7PjfHvpGAICZ+Wc+ln+IAVfkFVOJJwOUuwCw47/TDQBAsVya9fK0GHBFXkEVeDJAeQsAO/63kwVHAAAzcnx2zRgx4Iq8skr+ZIByFgB2/He6AQAomgn5ZA7NVEHQElYAtE+JnwzQUcJj3iHH2fKvrd7OYCHUXO9MFAIAvM+r2S03ioEWGpsBQmij5/LNnFm2gy7bCoBlcrkd/9tO2wgA8H73ZU3Tf1rMqtz2WixnlO9mgDIVABb+KwAAAIroqqyfp8SAAqB2SnczQHkKgB3yQL5tx38FAABAwRyf7fOWGHBVXkv98u08kv0VAI20bK6w8L9AdI0AAP82Pp+w8R8KgJpbLGfkiiyrAGiE/jkq92Vbo8qpBgCgYJ7IejlDDLSJr+WKZNuMynEZpADonh3yQI608F8BAABQOJdnzdwtBlyVkyTpnS/lwaLfDFDkAmDZXGnhfyGNFgEAUHNTcnR2yuuCoI2sACiexXJGrizyzQBFLQD+vfB/GyOokF4TAQBQa6OzTY5y5z9tpoAqpm2KfDNAMQsAC/+L7U0RAAA1dnM+kmvEgKtyZqLANwMUrwBYJpdb+O9UAwBQSNNyfDbLC4LAVTmztFjOyLVZUQEwK/1zVO7PdkaLUw0AQAG9nT1zaCYJgkJ4QwQFt1nuLdrNAB0FOpYdcpxv/ktgWnpnihhqrncmCgGA2rk3u+UxMeCKjDnyXL6ZM4tyMEVZAWDhf3m8ZfoPANTOtJyQdUz/KZRJGSuEEijUzQBFKAAs/C+XN0UAANTMK9kph2ScIHBlTpcU5maA9hcAdvwvG/caAQD18qd8JJeJAQUA3VCQJwO0twCw8N9pBgCgyMblsGyTFwVBIflqrlwKcDNA+woAC//L6l8iAABq4r6sneMyTRAU1JsiKJ023wzQrgLAwv/y0jMCAHUwLcdnjdwnCBQANFRbbwZoRwFg4b/TDABAsT2bTXOoh6xRcL6aK6u23QzQ6gLAwn8FAABA0Z2XkblBDLgyp4nacjNAawsAC/+dZgAAiu3V7JO9XfFQCnbnKrc23AzQugLAwn8FAABA0V2eVfM7MVASbgEovxbfDNCaAsDCfwUAAEDRvZzdskNeEASuzGmpFt4M0IoCwMJ/pxkAgKK7MCvlIjHgypw2aNnNAM0uACz8rx4LjQCAqnk6W2WPvCYIFAC0TUtuBmhmAWDhfzW9JQIAoEKm5oSsnD8LAgUAbdf0mwGaVwBY+F9VY0QAAFTGI9k4h7i+oaTGiqBymnwzQHMKAAv/q+wdEQAAlTA5P8pHcrMgcGVOoTTxZoCOhv/E/jk8h/vmv7KmpVemiqH2emeiEAAoub/n87lLDJRar0wSQmVNyq/yzUavT2p0AbBDjvPNf6WNywAhoAAAoOReyzdyqi81qIAJ6SOECnsu38yZjfyBjbwFYNlcaeF/5VlmBACU29SckuE52fQfV+cU3mI5I1dm2eIVAP1zVO7LNt6hyhsnAgCgxO7J+jnIA/9wdU5pbJNRjXsyQGMKADv+14eOEQAoqzfy+ayZ2wSBq3NKpYFPBuh+AWDHf6cYAICim5bTMjy/yhRR4OqcEmrQkwG6VwD0z1G5P9t5N5xiAAAK7focmtFiwNU5JbZZ7u3uzQDdKQAs/K8jdxkBAGW0ae7KSDHg6pxS6/bNAF0tACz8rysdIwBQTsvntnxSDLg6p+S6dTNAVwoAC/+dYgAAymdATstp6S8IXJ1Tcl2+GWDOCwAL/51iAADK6pO5LUuKAVfnlFwXbwaYswJgCQv/a89dRgBAua2aO7KhGHB1TuktljNyeZZoVgGwW+6x8N8pRgQAQMnNnz9lPzFQCVYA1N12uS/7Nr4A6JUTcmHmkW/tjRUBAFB6/XJmvp8OQaAAoPQG56yckF6NLAAG5fJ8QbLECgAAoCq+njPTRwy4OqcCvpDLO7clYGcKgIG5LFvJlCQ6RgCgOvbNVZlbDLg6pwK2ytWZqxEFQN9ckY3lyXQ6RgCgOjbNzVlMDCgAqID1cln6drcA6Mgp2UiWvGuSCACAClklt2R5MVBak0XAuzbKGbPb22R2BcBhdkjlfaaIAAColCVzU1YVAwoAKmDPHNadAmDlfF+GOMUAAJW2YG7IemKglHw9x/v9IB/pagHQK2ennwRxigEAKm5I/pQtxICrc0qvb06f1SMBZ1UAfM5iKJxiAIBaGJjLs6MYcHVO6a2az3alABico2WHUwwAUBN9ckG2EwOuzim9YzJ4zguAQzJUcjjFAAC10TcXZ2cxUCp26OLDhuaLc1oA9M2hckMBAADUSp+crwLA1Tmld1j6zlkBsGvmlxpOMQBADSuAHcSAq3NKbf7sMmcFwCdkhlMMAFDLCuD32UYMuDqn1D45JwXA3NlEYjjFAAC1rQA2EAOlYA8AZmyTDOl8AbBVeksMpxgAoKYG5PKsJQZKwNdzzFjvbNn5AmBDeeEUAwDU2OD8KauJAVfnlNaGnS8A1pYWTjEAQK0NydVZXgy4Oqek1upsAdAjK0sLpxgAoObmz5VZSAy4OqeUVpnRbH9GBcDC6SctnGIAgNpbJn/OUDFQYHboYmb6zajAnFEBsISsUAAAACRZJX/w5RiuzimlJTtXAMwtKZxiAACSJBvlnPQUA67OKZ3BnSsA+ksKpxgAgOl2zYlCwNU5pTOgcwVAh6QAAOBdB+XLQgDKb0YFwDtiYaYsgAMA6ugn2VUIuDqnVN7pXAHwL0nhFAMA8L6r5rPzMTHg6pwSeatzBcAzksIpBgDgffrnsiwnBlydUxpPd64AeDHjZYVTDADA+8yXP2aIGCiUXiJgJsbnpc4VAFNzn7RQAAAAfMAKucCEC1fnlMI/M7VzBUDyd2kxEz7yAIA62yI/EgIKAErgjhn9zRkXADdJC6cYAIAZ+HI+JQRcnVN4N3W+ALg6E+WFUwwAwAz8OhsJAVfnFNqk/LnzBcBbuUFiOMUAAMxA71yQJcVAIbhBlxm7Pm92vgBITpcYCgAAgBlaIJdmgBhwdU5h/XbGf3tmBcDFGS0znGIAAGZo1ZwoBFydU1Cj84c5KwAm5DipMQMWGQEAJMkB+bwQUABQSD/PhDkrAJJf5A254RQDADDTS+wNhECb+XqOD3sjJ8zsH828AHgrR0oOBQAAwEz0zgVZRAy4Oqdg/l/emvMCIPlV7pUdTjEAADOxUM5LbzHg6pwCuTe/nvk/nFUBMDn7Zrz8cIoBAJiJDfJ9IeDqnMKYkE9kctcKgOT+fEOCOMUAAMzUV7OTEHB1TkF8Pf+Y1T/uMZv//Oc5S4a8h21GAADeqyO/zVJiwNU5BXB+fj7rf2F2BcC0HJgb5ci73OUGAPB+Q3N++ogBBQBtdmMOyLTuFQDJhGyb62XJdP1FAADwAWvlu0KgLQaKgOluzQ6ZMLt/qUcnftA72TF/kidJkgEiAAD4kK/ZCYC28PUc//anbJ23Z/+v9ejUDxuT7fNLmeIUAwAwQx35TRYVA67OaYtfZvuM6cy/2KOTP3Byvpjd8rpka88KAACAGZk353T62hpcndMob2XffHFWj/7rSgGQJBflo7lCvjWnYwQAmLGN8hUhoACgpa7IKjmn8//6nLWUz2T77JgnpewUAwDAh3w/awkBV+e0yHM5INvnmTn5T+Z8mdJlWSlHZ7y0nWIAAHif3jkng8RAC1mfW1eTcnxWzJlz+p915T6lcTkqK7sZwCkGAIAPWDY/FQIt5Ou5erouq+bQzm371/0CIEkedzOAUwwAAB9yUHYWAq7OaZrnckA2z4Nd+4+7s1OpmwGcYgAA+KBTsqAQcHVOE3Rx4X9jCgA3AzjFAADwQfPlJCHQIm7QrZMuL/xvVAGQuBnAKQYAgPfbKfsKgZbw9VxddGvhfyMLgMTNAE4xAAC81wlZXAi4Oqchur3wv9EFwL9vBlglV3lvnGIAAMjcOTkdYsDVOd12VUZ0d+F/4wuAJHks27oZoPLcAgAA0Blb50Ah4OqcbnkuB2TbPNa4H9jRhCF4eA5PP+9VRU1Lr0wVQ+31zkQhAMBsvJ1V8rQYaKJemSSEypqUX+Wbjfrm///0aPhhejJAtXVoGQEAOmWu/MZtADSVK/PqasCO/60pABJPBnCaAQAg2czTAGgqOwBUU4N2/G9dAZB4MkB1DRIBAEAn/W8WFAJNM1AEldPAHf9bWwC4GaCqhogAAKCT5s3PhUDTDBVBxTRp4X9rCoDEzQAKAACAetsrOwsBV+bMVhMX/reuAEjcDOA0AwBQZye6fsKVObPU5IX/rS0A3AzgNAMAUF8L5/tCoCncAlANTV/43+oCIHEzgAIAAKCuDs7HhIArc2agJQv/21EAJG4GcJoBAKijHjkhPcVAw80tglJr2cL/dhUAbgZQAAAA1NHq+ZwQaDi3AJRZCxf+t68ASNwMoAAAAKif72URIeDKnCQtX/jf3gIgcTNAmekZAQDm3OD8SAgoAGjHwv/2FwBuBnCaAQCol32yqRBoKF/NlU9bFv4XoQBI3AygAAAAqJNfprcQcGVeW21b+F+UAiBxM4DTDABAXayQQ4SAK/NaauvC///oKEgcy+S4bGdUlMJbHjdCemeiEACgS1dSw/OSGGiQsRkghFK4Loe095v//9OjIIG4GaA85vIUWwCALhqcY4RAg/Qx/S+FAiz8L14BkLgZoCw6rAAAAOiyT2cNIdAQtgAsvoIs/C9mAeDJAGUxRAQAAF2+/v55YW7DxVU5zdTmHf+LXwAkbgYoA10jAEDXrZfdhYACoOIKtfC/yAVA4mYApxoAgCr7iXu3aQBfyxVV4Rb+/0evgkY2Lkfl7ByfbYwepxoAgIpZPIfl+2Iokf7pV8CjWtQbU0hX5Ut5rKgHV/T7j3bIcVnaGCqYL+aXQqg5jwEEgO75V5bNq2IovGXyyWyRVdJfFHTKc/lmMb/5/z89Ch6gmwGKaAERAAB0y9z5lhAKbkB+kYfyzaxl+k+nFHjhf3kKgH/fDLBKrjSeCmRBEQAAdNPnMkwIBbZw/pYvFvaGaYrnyowo2o7/5SwAkuSxbOfJAAoAAIAK6ZPvCqGwBuWarCwGOum5HJDtinvff/kKgOTfNwN8x80ACgAAgIrYK6sLoaB+mpWEQKeMz3eyfNEX/v9HR8niXSbHZTujrM0ez7JCqDmbAAJAI/wlmwmhgFbMfekpBjrhuhySB8t0wD1KFvDj2d7NAG1nBQAAQCNsmq2FUECfMf2nE57LAdm8XNP/8q0A+Lf++Xr+u5DP4qyLQRkrhFqzAgAAGuPurJFpYiiYUVlRCMzS+Pw4P8i48h14R2kjdzNAOw2zCkMBIAQAaIidc6kQCqVXJpRunTStVbqF//9R3qH9eLbPznnK6GsLNwEAADTG0SX+Sq6ahpj+MwtPZefyLfyvQgGQJJdmRI72ZAAFAABAaa2ajwuhUHqJgJmYlOOzSrnX7JS93RqXo7JKrjQWW2wBEQAANMhRvnGGErgyI3JoxpT7RVThZPNYtvNkgBazAgAAoFFWyp5CgEJ7LgdkuzxW/hdSlbbxsqyU77gZQAEAAFBCR3rsHBTW+Hwny+fMaryY6iw3Gpf/l5VzhfGpAAAAKJnh2UcIUEjXZbX8vzI+8K/qBUDiyQCtYw8AAIBG+rp9AKBwSr7jf/ULgMSTAVrDCgAAgEZaIbsIAQqkAjv+z0hVnzq6bI7LtkZt07yReYRQa70zUQgA0FD/yGqZJoYCWCgvCqH2rsyhVdjy78OqutTosWyXi43bphmS/kIAAGigj2QLIUAhXF6NHf9npFeF37Zbs6ux2yQdWSyPigEoiBPzByG0UO8MSjI4PdMnA5PMnX6ZPwtkwcyf+dNbQNBl38ifhQAFcE11X1qVC4BXjNwmWlwBABTGI7lWCIUxTxbI/Fkqy2e5LJflMpdIoNM2yrr5qxig7V5WAHjb+GABAAAf9npez0O5+d2/XijLZ/msnLXy0fQTD8zG17ODEKDtKvxVsgIABQAAzfNSXspNSZLe+UjWylpZK8MruwkxdNd2GZl/igHMJJulh7cNBQAALTApd+SXOSArZp7smpPzjEjgQzryVSGAmaQCoCtezRRjVwEAQOG8mT/k4CyZZXJwLs94gcB77JWFhQBtNTlvKADKaEpeN3qbZgkRANBNT+Tk7JD5slsuyQRxQJKkTz4nBGir0ZmqACgnNwEoAAAourG5KLtk4RycmzNNHJDPpr8QwCxSAeCtK5K5MlgIADTMGzk5G2bpfCOPC4Oamz/7CAHMIhUA3rpisQsAAI32dH6Q5bNFLrcWgFo7zJMyoI1eqfKL6+Gto4vcBABAM0zNtdkhq+XkjBMGNbVSthACtI0VAN46ZsAKAACa5x85OMPy/YwRBbX0ZRFA21gBoABAAQBAy72Ub2aZHOcJAdTQVhkuBDCLVAB46xQAANTJKzksy+XkTBYFtdKRA4UAZpEKgDm9aEABAEDZPZuDMzJ/EAS18on0EwKYRSoA5oQVAAoAAKrhweyaTfOwIKiNebO7EMAsUgEwJ17xEKEmWswDagBoqevz0RxtRwBq42ARQBtMy6sKgLKaUO03r836Zz4hANBS43JUVstNgqAW1stIIUDLvZKJCoDyetYIbqKlRQBAy43KxjnI4wGpBWsAoPWeqfbLUwDQdcuKAIA2mJZTsnruFgSVt28GCQHMIBUA3j4FAAD19kjWyU/t9UPFDc7eQoAWswJAAcBMLCMCANpmYr6WLfKCIKi0T4oAzCAVAN6+YrACAID2ui4fzQ1ioMLWyfJCADNIBUBnPWMEKwAAqLBXsmVOFgMVtr8IQAGgAPD2FcECGSwEANpsUg7OwZkkCCpq38pfr0Ox2AOg1F7IFGO4iewCAEARnJzt8oYYqKQls5EQoGUm5WUFQJn18Y1AU7kJAIBiuCbr5DExUEkHiABaZkr6KwDKa55cm35GsQIAgBp4OBvmfjFQQR/PICFAi/TLnzOPAqCcFsn1WccYbiq3AABQHC9mw9wuBipnUHYRArTMOrklSygAymdEbs9I47fJrAAAoEjeyFa5UQxUjicBtFaHCGpuxdySEQqAclkrN2ZxY1cBAEDNvJWtcqkYqJhNsoAQWqi3CGpv8dyS9RUA5bF9rs98xm0LLJKBQgCgUCZkj1wmBiqlZ3YVQgv1EgEZmj9lewVAOeyXizPAmG2JjiwtBAAKZmJ2y5/FQKXsLoIWsgKAJBmQS3KgAqD4Ds8ZftO2kJsAAChmBXCnGKiQjbKgEBQAtFjPnJTDFQBF1pEf5Ye27VAAAFB7b2ebjBIDFZqIeBJA67gFgP/ML3+Y46s1Z+5Rqd+qp+a/jdIW8yBAAIrp1WyZp8RAZbgJQAFAexySs6q0KqQ6BcDA/DGfMj5bbnkRAFBQz2fLvCYGKmIjTwJomf4i4H3+K1dlLgVAscyTP2cbY7MNVhQBAIX1aHbJRDFQCT3zcSG0yNwi4AM2y18yvwKgOJbMX7OucdkWC2ceIQBQWDfnS0KgIhQArTKXCPiQNXJbNXY/q0IBsEr+muHGZNuMEAEABXZSThAClbBhhgihJawAYEaWyY1ZRQHQfh/L9VnEeFQAAMBMHJYrhUAF9M4WQmiJwSJghhbJTdlQAdBeO+YvmddYVAAAwExNyT55VAxUwHYiaAm3ADAzQ/Ln7KYAaJ8DcpFdOhUAADAbb2bPjBcDpbdttZ5HXlhuAWDm+ua8HKwAaI/D81tP6SyAlUQAQOHdk68JgdKbP2sLoQU8cJFZ6Zlf54cKgFbryE/zw3QYfwWwSIYKAYDC+2UuFgKl5yaAVlhIBMzG4TmhrDPpch5235yXrxh3hbGiCAAogU/nSSFQctuLoAUWFgGz9YWcm74KgNYYlEuzhzFXIHYBAKAM3syemSgGSm3VLCmEprMCgM7YI1eV8YkR5SsAFsyN2cp4UwAAwBy7I0cLgZJzHdxs/T0GkE7aJLeU74H0ZSsAls5NWc1YUwAAQJf8KHcKgVLbTARNtqAI6LRVckuWUwA0z8q5OcsbZ4XjOQAAlMXkfDITxECJbWIb7CZzkwVzYuncXK4vqMtUAGycW7KoMVZAi3laKgClcX+OEQIlNn9WEUJTDRMBc2TB3JgtFQCNt3OuMs0sLM8BAKA8fpQ7hECJbSqCplpaBMyhQbkseyoAGuvzuSj9jK3CsgsAAOUxOZ9yGwAKAGbCCgDmXJ+cmy8rABrn8PyylA8sVAAAQBHdn2OFQGltmF5CUABQMB35WX6oAGiEnvlVOaKsNdsAAlAuP8yTQqCk5s7qQlAAUECH57fFr+eKXgD0zbn5rLFUeB8VAQClMq4sizVhBtwE0DzzeAwg3fCJ/D79FQBdNyiXZXfjqAQWzEJCAKBULs0VQqCkNhFB03jGAt2zU9G3ri9yAbBQbs4WxlBJWAMAQNkcmvFCoJQ+lp5CUABQUBvl1iymAJhzw3JzPmL8KAAAoEkez4+EQCnNZf8lBQAFtlJuznAFwJxZI7dlWWNHAQAATfTDPCMESuljImiSlUVAAyyVv2YdBUDnbZrrsoBxowAAgKYal/8nBBQAvGduZAUAjTFPrsnWCoDO2TVXZLAxUzLDMkQIAJTOWfmnEFAAMN2KmUsINMjAXJq9FQCz98VcmH7GS+l0ZFUhAFA6U3OEECihFTJUCE2wjghooD45J19TAMx6EnlUflHwRxMyM24CAKCMrsp1QqB0OrKWEJpgbRHQ4N+pP85x6VAAzFjPnJQjjRIFAAC01NczTQiUjpsAFACUw5dyenorAD6sb87PgcaHAgAAWuyOXCAEFABkcEYIgSbYPxdngALg/Ybm2nzc2Ci1Fe3dAEBJHZ2pQqB0BYDbZhtt/fQUAk2xff6S+RQA/7Fwrs/6xkXJ9fLcVABK6kFrACidIVlRCA22mQhomrVzYxZXAPzbirndDvKV4CYAAMrqO9YAUDrriqDBthABTTQit2cVBUCyZm7MEsaDAgAA2mhULhYCCoBaW9BqVppskdyY9epeAGye6zK/sVARq4kAgNL6jmcBUDKbiKChNivWw9qopKH5c7arcwGwb67MXMZBZYxMLyEAUFL/zCVCoFSWtGd9Q20tAlpgQC7Np+taAByaM4r0RES6rX+WFwIApfVdEWDKWlu9s70QaImeOSVH1a8A6MgP83MPL6mcNUUAQGndnb8IgVLZRgQNs2GGCoGWzYWPzHHtmgu355ftlVNzuHe+gtYWAQAl9lMRUCobZV4hNMjOIqClvpQz27Mavh0FwMBcmk95zxUAAFAwV2WUECiR3tlFCA3RkZ2EQIvtk6vasR9e6wuAefLnbOv9rqiRGSgEAEprWv5XCJTKniJoiI9lcSHQcpu144l4rS4AlsytnllaYb08ChCAUjs7rwiBEtkkCwmhAfYXAW2xZm7LMlUuAEbk5qzgfa60j4kAgBIbnxOFQIn0zAFC6LY+2V0ItMkyuTmrVrUAWDs3WVxTeXYBAKDcTsx4IVAiB3quVrftaDNF2mjh3JANqlgA7JDr/daqgXVEAECpjc6FQqBElslmQugmNwDQXkNyTXarWgGwfy5Of+9tDSySxYQAQKn9WgSUyhdE0C2LZxsh0GZ9c14OqlIBcGhOTy/va03YBQCAcvtr7hUCJbKDPba65bPmKRRAz/w6R1WjAOjIj/PzdHhPa8MuAACU3a9EQIn0yNeE0GV982khUAgdOTK/aP78vNm/QJ/8zilJAQAApXJO3hICJbJvFhFCF+2RBYVAYXwxv0+/MhcAA3Np9vI+1szq6S0EAEptTM4SAiXSN98QQhd9SQQUyi65MoPLWgDMm2uztfewdgZkFSEAUHI2AqRcDszSQuiCrbKGECiYTfKXLFDGAmDp3GY7uJryvgNQdvfn70KgRPq0ZvuwyvmmCCig1XNL8yq9ZhUAK+fmLOe9qym7AABQfqeLgFLZJx8RwhzaMBsIgUJaLn/NR8tUAGyUW7Ko9622rAAAoPzOy3ghUCI98wvP3ZpD3xIBhbVQbsoWZSkAdspVmdt7VmPLZV4hAFByb+RSIVAq62cfIcyBjZszvYIGGZTLskcZCoBP5vfp7/2qtQ5rAACogNNFQMn8yJdwc3C9+hMhUHB987t8tugFwOE5Lb28V7W3oQgAKL0/51khUCoL56dC6KS9s7oQKLye+VV+WNwCoEfjDw8FAAC0ydScIwRK5lPZUgid0DffEQIlcXh+1chZe+N+VM+c3fgFCpTUGplLCACU3lkioGQ6ckoGi6ETU6phQqA0Ppuz07NoBUBHTsre3hum62UXAAAqYFTuFQIls0R+JYTZWDZfFwKlsndOatRTPhpVAHwnn/a+8B5uAgCgCs4TAaXzX/mkEGbpuPQTAiXz6UbdttKYAmCnfMN7ggIAgAoWANOEQOn8IisIYab2zrZCoIS+kd2LUgAsmTMbtSCByljbwyABqICncrsQKJ2BudhOADOxSH4hBEqpI6dmySIUAB05yQmGD+mbtYQAQAWcKwJKaMVc0LhNwyrllMwrBEpqcE7r/hfv3S8A9s1W3gtmwE0AAFTBhZkiBEpoqxwthA85yPJ/Sm3T7NvuAqBfvut9QAEAQGW9lBuEQCl9I58QwvuMyM+EQMn9IAPaWwB8Lkt4F5ihddNHCABUwO9FQCl15ORsI4Z3DcqFGSgGSm7RHNzOAqBXDvMeMBMDsroQAKiASzJVCJRS71yQNcQw3akZIQQq4Cvp3b4CYGff/zMLbgIAoApeyl+FQEkNytVZVQxJDsueQqASFstO7SsA9pc/CgAAKu9iEVBa8+aarFT7FLbLTwwFKmO/dhUAQ+3/zyyt7/EzAFTCHzJNCJTW/Lmu5hXAyJzrqpQK2TpD21MAbG6TN2ZpcD4qBAAq4KncLQRKbMHcmDVr++oXzeWZyyCgQvpks/YUAJvJntlwEwAA1fAHEVBq8+b6bFHLVz5//pzFDQAqZvP2FADrSJ7Z2EQEAFSCXQAou4H5Yw23wRuaa+z9TwV9rB0FQO+sIHlmWwD0FQIAFfBgHhMCJdcv5+abtXrFQzwDgYpases343e9ABhmBwBma2DWFgIAlXCFCCi9jnw3p9fm65n5c13W8qZTSX2ydOsLgEXkTidsIQIAKuFyEVAJB+TmLFGD17lIbsxq3m4qa+HWFwALSB0FAAC1cVPeEgKVsGbu6s4WYqUwPDdnRW81FbZg6wuA/lKnE9bIPEIAoAIm5s9CoCLmy9U5Jr0q+/o2zW0Z5m2m0vq1vgDoKXU6NU48CQCAanATAFW6Qvt2bq7oJPkzuTpDvcVUXJcLvK4XAJOkTqe4CQCAargqU4VAhXws9+TT6ajUa+qbX+WU9PbmUnldno13vQB4Tep0ylYiAKASXsnfhUClDM6puabru4kXztK5NZ/1tlILr7a+ABgtdTplqSwjBAAq4WoRUDmb5b58pRLfme+Ru7K6NxQFQLMKgEekTie5CQCAarANIFU0MD/NfSVfszkkJ+V8d/5TI4+2vgB4My/LHQUAADXy97wuBCppeK7OeVmqpEe/c0blIG8iNfJy3mh9AZDcIXk6ZdMKP2YGgDqZkuuEQGXtmUdyUtefLt4mi+XC/CELe/uolW7sSNOdAuBmydMpQ7KGEACoBLsAUGW9c1Aezv/LkJIc74B8K49kN28ctdONmXh3CgD3wdFZbgIAoBpc/VB1c+foPJXvZN6CH2evfCaP5jvp7y2jhq5pTwHwj65vPYACAABK6Lk8IARqUAJ8K0/lF1muoMfXM3vlnzkli3irqKXH84/2FADJ+dKnU9bJYCEAUAl/EgG1MChfzEP5YzZPR6GOq3c+mVE5Nyt6i6itc7vzH3evAPh1JsmfTuiVjYUAQCX8RQTURo/skGvyWL5RkO/aF8q382ROy/LeGmpsck5uXwHwfC71DtAp24oAgEq4OZOFQK0My/fydK7M/m1c0dkjm+e8PJ1jsqg3hJq7JM925z/v7pKelXNvN0sE6uGFLJZpYqiM3pkoBArksBwnBFro9qwtBGppfK7MH3JlXm/przoy++a/TPwhSTI1q+Xe7vyA7k7e78853gU6YZF8RAgAVML1IqCm+mXXnJVXckO+lo80/UvAntkwP8ljuTf/bfoP053Tvel/0qvbh/A/2T5DvRPM1va5RwgAVKIAOEII1FjPbJSNkryaG3JDbss/G3xbTEdGZNNsmo3MMeAD/pWvd/83WPd9Jqd4L5itv1swWSFuAaBY3AJAaw3M6+kjBpjundyZO3Jf7suojO/yT+mRpbJK1syaWdPEH2biwJxahAIguTC7eTeYjalZNC+JQQEACgAq4JasJwT4kCl5Ik/k8TyRZ/JSXsnzGTOLa4l5M2+WyBJZPEtnhayQAQKEWbo0u3R/V7VeDTmUT2ekx3EwGz2ybU4TAwAVcL0CAGagZ5bLcu/7O5Pzdt7MmOlfHLyTAUkGp2fmzdzigjnySPZvxKbqjSkA3so2uTULeVeYpe0UAABUpAD4lhCgU3ONoRb0QwOMzg55qzG/KRvjiWybazOPd4ZZ2D7f9OzkiugpAgpls/QTQkO8ncdye2MuMCrutkxIXzEA0BKvZ6s80pgf1dHAw1olf7YKAABKbUL+kGPyoCBm44ZsJAQAWuClbJn7GvXDGvn8zvuybnefSggAtFXf7JV/5hsN/Yqgiq4XAQAtcG/Wbdz0v9ELed/MmVkiq3qXAKDEemSzLJQrBDEL0/JJIQDQZGdll4xu5A9sRr+/XU7OIt4rACi1L+fnQpipvnndQ8sAaKJX8vlc1Ogf2qMJB3pFhufojPeOAUCJ/SBLCGGmJuQ2IQDQJBNzfIY3fvrfrL28J+aGnJlpWckOuQBQUr3SM1eLYaYWy2ZCAKDh3sov8185vzlfqTd3i5/B2Tv7ZV0bCQFACY3OgpkmhplYPzcLAYAGmpa/5qyc28wH8rZiar54ds0n8hHvJwCUzAp5WAgz0S9vWukIQIM8lPNzdh5r9i/Tuu/mV8p+2T8Le2cBoDS2zDVCmKlbs64QAOim13JRzsotrfnFerTsZT2QI7JYNsjJedt7DAClMEgEsywAAKDrxuXC7JiFc3Crpv+tLACSZGpuycFZIDvmwkzyfgNAwdnFZ1b+KgIAumRKrs0BWSB75LLWzozb98E+f/bKPlnbew8AhfXxXCyEmVogL6lIAJhDf8s5OS+j2/OLt/tja8nslU9leaMAABQApfOwaxgAOu3pnJfT8kg7D6FH2yM4NsOzTk5oVwMCANBFbgIAoDNG54Ssk6VyRHun/+0vAP7t9hyShbNFzsoYYwMAKAnbAAIwa+NzefbIojkktxfhcHoVJpgpuTbXpn+2z/7ZKr2NFABAAQBASU3NbTkz5xbrKXjF3Lpm4eyZfbO6MQMAbWUPgNldR72aecQAwAfclbNzfl4s4gdXca2Y/8o+WdroAQAFQEFdlu2FAMC7nsw5+V0eLOrh9ShwdA/m21kmG+TXed04AgAKyE0AAPzb6/l1Nsgy+XZxp//FLgCSZFpuyeeyQLbIWRlrTAEAheI5AABMyOXZIwvnc7kl04p9qB0linXu7JTds3WBNi4EgGpzC8Ds9M+b6SMGgJqamttyYc7Oa2U54I7SRbxY9s6+GWmsAYACoABuz9pCAKihf+bsnJvnynXQPUoX83P5cVbNKjk2zxpzAECb2QUAoG6ezbFZJavmx2Wb/pexAPi3+3NElsrGOTVvGn8AQNvcJgKA2ngzp2bjLJUjcn85X0BH6d+Cvtkyu+fjGWA0AkCDuQVg9hazJhGgBibkmlyY3+edcr+Mjoq8HUOze/bJBpV5PQCgACiL57KoEAAqa1puzjm5MG9U4cX0qMib8kZOzkZZIoflHiMUAGihv4sAoKIezNFZLhvl5GpM/6tTAPzbczkuq2XlHJ2njFUAoCX+JgKAynkhx2eDjMhRebxKL6tXBd+qB/JAvpNNsk92zWAjFwBQAADQSW/l4pyT6zOlii+u2vfM98sW2S87pY9RDABdYA+AzhiYNyv5lQpA3UzJ9TkrF2VsdV9iHTbNmy97ZJ+sY4NAAFAANMW9GSkEgBKblttyTi7Iq1V/oT1q8Ga+mhOzXpbKEXnYyAYAGs5NAADl9XSOzfCslxOrP/2vRwHwb8/k2KyQtXJcXjbGAQAFAEDNvZzjslaWyhF5tC4vuY7L4ntk3eyXvTOXEQ8As+QWgM5ZOfcJAaBExuXynJWrM6luL7y+98UPzM7ZJ1vYtAcAFADd1CNvePIQQClMzjU5J5dUeaO/WX9g1dXYnJNts2AOzq2Z5vcBANBlU3OnEAAKb1SOyOLZNufUdfpf5wLg317PyVk/K+SYPO73AwDQRXYBACiyx3NMhmelHJuX6h1ED2MhySM5Mstl3fyyDvs+AgAKAICaeDW/zLpZLkfmEWHUeQ+AGeuZTbJ/dskgUQCAPQA6bQFPGQIomPG5Nmfm0kwUxX/YAu/9puTaXJu5smv2zWbqEQCgU17JM1lCDACFMC3X5excnLdF8UFuAZiRt3NGtsguggAAOslNAABFsXO2yBmm/wqAOXO5HQEAgE66QwQAhfBKLheCAmDOTclVQgAAOuXvIgAohMszVQgKgK64QgQAQKfclSlCAChEAYACoEuutmMkANApY/KgEADabkKuFYICoGv+lVuEAAB0il0AANrvepv/KQC6zk0AAIACAMAMTgFQA5eKAADoFNsAAigAFACl9ngeEQIA0An/zDghALTV/XlSCAqA7rCHJADQGZNyrxAAzN4UAGVmCQkA0Dl2AQAwe1MAlNrNeVMIAIACAKDgXs/tQlAAdM+k/EkIAEAn2AYQoJ2uzGQhKAC6yzISAKAzHrFuEMDMTQFQ9mE0RQgAwGxNy11CAGiTydZuKwAawZ0kAEDnuAkAoF1uyRtCUAA0gqUkAEBn2AYQoF08AlAB0CCXiQAA6AQrAAAUAAqAkrs/TwoBAJit5/OCEADa4PE8LAQFQKNcKQIAoBPcBADQDr7/VwA00B9EAAAoAAAK6mIRKAAa54aMFgIAMFt2AQBovZdzqxAUAI0zxUaAAECnCoBpQgBosUsyRQgKgEa6SAQAwGz9K48KAcBsTQFQbtfkDSEAALNlFwCA1nojNwpBAdBYkzwJAABQAAAUziWZKAQFQKPdJgIAYLZsAwjQWopXBUDD9cvBQgAAZuueTBICQAt9MQOEoABorOOzihAAgNkan/uEANBCI/K/QlAANNLuOVAIAECnWIwK0FoHZR8hKAAaZZmcIgQAQAEAUFC/znAhKAAaoXfOydxiAAA6yTaAAK02KOekrxgUAN33k6wtBACg00ZljBAAWmz1HCsEBUB37ZRDhAAAzIEpuVsIAC33pewkBAVAdyye36RDDADAHLELAEDrdeS3WUoMCoCu6pVzM68YAIA5dLsIANpgaM5PbzEoALrmO1lPCADAHPurCADaYq0cLQQFQFdsmv8RAgDQBS/kWSEAtMXh2UoICoA5tWDOkQ4A0EVuAgBo1xz3rCwiBgXAnOVydhYSAwCgAAAomfnzu/QUgwKg876dzYUAACgAAEpoo3xTCAqAztow3xYCANANd2WCEADa5shsKgQFQGdYMAIAdNeE3CsEgDbOdM/JgmJQAMxOR07NomIAALrpNhEAtNFC+W06xKAAmLWvZUchAADd9jcRALTVNvmaEBQAs7JmvisEAKABrAAAaLfvZ10hKABmZkjOTx8xAAAN8FReEgJAW/XKeZlHDAqAGftNlhYCANAgHgUI0G6L5ww7ASgAZuSL2VUIAIACAKBCts/nhaAA+KBV8iMhAAAKAICK+WlWE4IC4L3myu/TXwwAQAPdkclCAGi7vjk3c4lBAfAfv8zyQgAAGuqd3CsEgAJYPqcIQQHwfz6d/YQAADTcLSIAKIQ98ykhKACSZESOFwIA0AQ3iwCgIH6ZkUJQAPTL7zLAQAAAmuCmTBMCgJmfAqAofpFV/V4AAJpidB4RAkBBrJSfKwDqbY98xu8DAKBpbhIBQGEcmH0VAPW1jL0gAYCmsgsAQJH8KsMVAPXUNxdksN8BAIACAKAmBuWC9FMA1NGPs5rxDwA01VN5RggABTIyxyoA6mf7fNHYBwCa7hYRABTKl7KLAqBeFs/p6TDyAYCmcxMAQNGclqUUAPXRK+dmXqMeAGgBzwEAKJohOT99FAB18b2sZ8wDAC3xYF4VAkDBrJVjFAD1sHW+ZrwDAC0yzS4AAAX0P9lBAVB9C+a3tX72AQDQanYBACiejvwmiygAqv56z8lCxjoAoAAAqLn587v0VABU2f/LZsY5ANBS9+RtIQAU0Eb5lgLA2wsA0DiTrQEAKKiafUVcpwKghgs8AIBCuFYEAAWdEdfqJvH6FAC13OIBACiEa0QAUFC12ia+PgVALR/yAAAUwv15XggABVWjB8XXpQBYK8cY1wBA2/xFBACF9b2sqwCojiE5L32MagCgbdwEAFBcvXJe5lUAVMVpWdqYBgDaWgBMEwJAYS2e09OhAKiCQ7KL8QwAtNVLeUAIAAW2fb6gACi/kTnWWAYA2s5NAADF9pOspgAot0G5IP2NZABAAQDALPXN+RmsACizX2W4cQwAFMBNmSAEgEJbNqcoAMrrM9nXGAYACmFsbhMCQMHtkU8rAMpppRxn/AIAhXGtCAAK74SsqgAon375XQYYvQBAYdgFAMBMUgHQFCdkpLELABTIXXldCACFN6K6a8mrWgBU/M4NAKCEpuR6IQCUQGV3k6tmAVD5vRsBgFK6SgQApVDR58lVsQCowdMbAYBSujxThQBQAoNyQforAMrgJ1nNeAUACujl3CUEgFIYmWMVAMW3fb5grAIABXW5CABK4pDsogAotsVzejqMVABAAQBAN52WpRUAxdUr52VeoxQAKKx78pwQAEpiSM5LHwVAUX0/6xqjAECBTcsVQgAojbXyHQVAMW2TrxmfAEDBuQkAoEz+O9soAIpnwZzm7n8AoPCuzdtCACiNjpyRRRUARXsd52QhYxMAKLzxuUoIACUyf36XngqAIvl/2cy4BABK4SIRAJTKhvm2AqA4Nsm3jEkAoCSuzDghAJTKt7KJAqAY5s/ZVVmQAQDUwJj8WQgApdIz51bhpvPyFwAd+U0WMR4BgBK5WAQAJbNgflv++XP5C4DDs4OxCACUyh8zUQgAJbN1/lsB0F5r5RjjEAAomTfzFyEAlM53s54CoH2G5Pz0NgoBgNI5TwQApdMr52ZeBUB7dOS0LGUMAgAldLEnAQCU0OI5PR0KgHY4JLsYfwBAKb2dy4UAUELb5xAFQOuNzLHGHgBQWueKAKCUfpTVFACtNTgXpZ+RBwCU1hV5XQgAJdQ352ewAqCVTsyyxh0AUGITc4kQAEpp2ZyiAGidz2QfYw4AKDk3AQCU1R75jAKgNYbnOOMNACi96/OcEABK6rgMVwA0X0dOzACjDQAovSk5QwgAJTUgp5TvgYDlKwA+kU2NNQCgEn6TaUIAKKkN8gkFQHP1yzHGGQBQEU/mRiEAlNb30l8B0Eyfy2JGGQBQGaeJAKC0Fs5nFQDN0zOHGmMAQIX8Pm8KAaC0vpxeCoBm2SFLGmEAQIWMy3lCACitxbO9AqBZDjC+AICK+Y0IAEqsVLPUMhUAg7KV0QUAVMyd+bsQAEpr68ylAGiGzcu2wyIAQCecIAKA0uqXzRQAzbCBsQUAVND5eVkIAKW1vgKgGdYxsgCACpqYU4UAUFrrKgCaYYSRBQBU0omZJASAklpJAdB4C2VuIwsAqKQX8kchAJTU4CyoAGi0xYwrAKCyfiECgNJaXAHQaEONKgCgsm7M7UIAKKkhCoBGG2RUAQAV9hMRAJTUXAqARptiVAEAFfaHPCgEgFIqzWy1PAWAvXEBgCqbmp8JAaCUSjNbLU8B8JpRBQBU2ll5QQgAJfSqAqDRfCACANU2IT8XAkAJlWa2Wp4C4KWMN64AgEo7KW8IAaBkxudlBUCjTc79RhYAUGlv5adCACiZ+zNZAdB4dxtZAEDF/bw83yMBULaZapkKgL8YWQBAxY3NsUIAKJUSzVTLVABcm6nGFgBQcb/Kc0IAKI2puVYB0Ayv5XqjCwCouPH5nhAASuMvZXpkfY9SRXuW0QUAVN5v8oQQAEri7DIdbLkKgN/ndeMLAKi4Sfl/QgAohdfzewVAs4zNiUYYAFB5v8ttQgAogRMzVgHQPMfnLWMMAKi4afmizY8BCu+tHF+uAy5bATA63zfKAIDKuztnCgGg4L6f0eU64I7SRdw3/8zyRhoAtMDHc7EQ2mbBPJLBYgAorEcyMhPKdcg9ShfyhByQKcYaAFBxL+cHQgAorCk5oGzT/zIWAMnt+Y7RBgBU3v/mcSEAFNR3cnv5DrpHKaM+JhcabwBAxU3IgZkmBoACurScX0uXswCYlk/nDmMOAKi463OaEAAK547sV85ntfQoaeBvZ8vcbdwBABX31TwvBIBCuS/b5O1yHnqP0ob+ZjbPzcYeAFBp/8pnhQBQILdns7xW1oPvUeLg38hWOd/4AwAq7XJ7HwEUxvnZNKPLe/g9Sh3+uOyVA/KOUQgAVNgheV0IAG03IYdlr4wr80voUfo34cyskZuMRQCgsl7OgUIAaLOb8tEcV/YX0aMCb8SD2Tj7eU4uAFBZF+fXQgBom8ezXzbOg+V/IT0q8XZMy9lZMZ/KPUYmAFBJX8n9QgBog3vyqayYszOtCi+mo2JvztrZM7tkKaMUABrg47lYCIUxIndkgBgAWuap/CHn529VekkdlXyjhmedfCwjMjwLGLUAoACoiINykhAAmuyVPJxRuT235eHqvbiOir95Q7JMhmVYhmWlrJLBRjMAKABK7ILsLgSABpuQx/NAnsgTeSL35eUqv9SOWr2xQzMsK2VEhmVYRqS/kQ4ACoBSGZRbM1IMAN00Kc/miTyRUXkgT+SpTK3LC++o7VveK0u8uzZgRJaqyHaIAKAAqLYl83e3OAJ0wRvTp/tP5Ik8kPF1nQbX1eQ8kSfe/as+WezdtQErZWG/OwCAQno6u+Qv6SsIgE5M+Z9493v+R/K2QOq8AmBWhr5nbcDwDBIIADVlBUAxHZDThQAwAxPz3Hu+539CIB/USwQz8Ebuyl3T/7wjS2S5LJ/lMzzLZan0FA8A0FZnZGS+IgaAJFPyVB7Nw3kkj+TRPJNpIpkVKwDmTO8s/u7agGFZWn4AVJoVAEXVM7/PzmIAauqNd7fveyIP5h2BdJ4VAHNm0vsWkgzO8lkuw7N8lsvyHjIIALTIlOyZS7KNIICaeCuP5NE8kofzaB7JWwLpKt9gN857HzK4YgYIBIDSswKgyAbkT1lfDEBFvf9BfU9a2q8AKLKeWWr62oDls1yWkDMACgAabnCuyxpiACpiWp7Jo3lk+vf8T2WKSBQA5dRv+k0C/95IcD6BAKAAoCHmyw1ZSQxAab36ng38Hsl4gTSbPQBaYXz+mX+++1fvfcjg8plLPABAly+dt8hfsoIggNJ474P6HsiLAmktKwDabfHpqwOGZ/kspZABoFCsACiDeXJZ1hUDUFiT81QeycPTv+V/ViAKAP6td4Zl+en7BgzPIgIBQAFAJwzKRdlSDECBvDB9v/5H8kieyCSBKACY/Yf58lkhJ2SoKABQADBLfXJG9hID0HZv5JA8mEcyRhTFZMl5cY3J3bk7vXKGKACAWZqYffJqvigIoM2+kHOFUGQ9RFBwZ+deIQAAszE1h+QID80C2uq+nC8EBQDd+zg/SggAQCccm83yshiAtvl6pgpBAUD3XJLbhAAAdMKNWSt3igFoi1tzhRAUAHTfESIAADrlmWyQU8UAtMG3RKAAoBFuyrVCAAA6ZXwOzIEZJwigpa7KDUJQANAYX880IQAAnXRqVnYpDrTQNN//KwBonDs9hxkAmANPZNMc7EncQItckLuFoACgcb6RyUIAADptWk7OyFwvCKDppnhymQKAxnokZwkBAJgjT2bzHJq3BQE01Wl5SAgKABrrqEwQAgAwR6bm+CydYzNRFECTjM93hKAAoNGeya+FAADMsddyREbmQkEATfHLPCsEBQCN911L+ACALnk4e2Sd3CoIoMHG5EdCUADQDK/m50IAoIU8hLZabs8G2S1/EwTQQD/OK0Iojw4RlMpceSwLiAGAFtk81wmhglbPodk7vQQBdNurWSZviaE8rAAol7fzYyEA0DJPiqCS7sr+WSG/yBhRAN30PdP/crECoGz655EsJgYAWuC5LC6EShua/bN31hYE0EVPZ4WMF0OZWAFQNuPyTSEA0BJni6Di3shx+ViWy5Ge4A10yddN/8vGCoDy6ZG/ZQ0xANBkb2XZjBZDbaye/8puWUIQQKf9PR+zWawCgObbKDcIAYAmOyBnCqF2hmXzbJ5NM68ogNnaMDcLQQFAK1ySnYQAQBMdkyOFUFs9slo2y6ZZM0OFAczERdlNCAoAWmOZjEofMQDQFGPzpZwmBpIsnpEZmVUzMst5bCDwHhOzch4VgwKAVjk+hwgBgIZ7NWfnR3lREHxAv4zI4lk8C2exLJJFslgGCwVq7Gf5qhAUALTO0Lyc3mIoqCvyRyEApTMlr+fxPJApoqBTBmae9M5c6ZXB6ZnB6Zm5PV+KhtolWwuhoCZl4bwmBgUArbNa7hJCYU3NtvmTGAAAumzzXJ2eYiis1XO3EMpIT1tWR4ig0L+vfpclxQAA0EWL51zT/0I7XATlZAVAOS2Th50SC+5v2TATxQAAMMd654asK4ZCm5IReUQM5WMSWU4/zupCKLjFMshtAAAAXXB8Pi6EguuR/rlMDOVjBUAZLZonPASwFPbIhUIAAJgje+Y8IZTApCybZ8RQNvYAKKOvmv6XxGlZUQgAAHNg+ZwshFLonUOFUD5WAJTPPHk6g8RQEvdn7bwjBgCAThmYv2UlMZTE2CyVV8VQLlYAlM+XTP9LZOWcIgQAgE460fS/RAbmC0IoGysAyvfb7KnMJ4ZSOTCnCgEAYLY+n18KoVRez5IZI4YysQKgbA42/S+dX3hmAwDAbK2ZnwmhZObJgUIoFysAyqV3HssSYiidp7NaXhcDAMBMDc1dWVoMpfN8hmWiGMrDCoByOcD0v5SWzGnKNgCAWcxKzjL9L6VFs58QyqSnCEr1bv0u84qhlFbI2PxVDAAAM/SNfFYIpb3O/VWmiaEsfCtZJnvkfCGU1uRslpvEAADwIZvkGl9MlnqWcqEQFAA03p02kyu1F7NGXhADAMD7LJ47sqAYSuzefNQagLKwB0B5bG36X3IL56L0FQMAwHv0y0Wm/yW3arYUggKARjtCBKX3sZwsBACA9/hl1hRC6X1dBAoAGmvtbCSECtg/XxACAMB0X86nhFABG2VdIZSDzTbK4lcZLoRK2DI35ykxAABk05zpC8mKmD/nCaEMbAJYDivmfifHyngta+ZJMQAANbdk7sj8YqiIaRmZ+8VQfCaV5fBN71SFzJuLM0AMAECt9c9Fpv8V0pHDhVCON4riWzqPpJcYKuWc7CsEAKDGs5DfZS8xVMqUDM/jYig6ewCUwfezthAqZmTezm1iAABq6vAcJoSK6ZFeuVIMRWcFQPEtmCfTXwyVMyU75CoxAAA1tEWu8kVkBY3PsLwohmJzZ3nxfdn0v5J65uwsIwYAoHaWyu9M/yupX74khKKzAqDoBufpDBFDRf0z62asGACAGhmU27KyGCrqrSyZN8VQZFYAFN0XTf8rbGTOUsIBADXSkd+Y/lfY4HxOCMVm8U2x9cvvMkgMFbZiJuQWMQAANfHtfFEIlbZKfpnJYlAA0DWfzR5CqLhN8o88LAYAoAZ2zq+sfqy4gXkxd4ihuPwGLLJeeTRLiaHyxmSD/EMMAEDFfTQ3Z6AYKu/ZLJNJYigqewAU2d6m/7UwKH/MwmIAACpt0Vxm+l8Li2dPIRSXFQBFfm/+aYuU2rg7G3oeAABQWf1zQ9YSQ008mJUzVQzFZAVAce1o+l8jq+UMvxsBgMrOOc4x/a+RFbO9EIrKJoDFdVoWF0KNjEiv/EUMAEAFHZtPC6FWlsmpQigmtwAU1SYmgzV0UE4RAgBQMZ/Ib4VQw9nMDUJQANB5f84WQqidSdkq14sBAKiQDXJN+oqhhrOZrYSgAKCzPpK7vTe19FrWyaNiAAAqYlj+lvnEUEtr5k4hFI9tx4rpW6b/NTVv/pihYgAAKmGeXGX6X1uHi6CITDOLaHhGqWZq7MZsmYliAABKrneuymZiqK2pWSWjxFA0ngJQRD/OakKosaWySP4oBgCg5E7M7kKosY70d01bxLeFolksj6ePGGruy/m5EACAEjs8PxRCzU3KsnlGDMViBUDxHJP1hFB7W+TuPCIGAKCkdslJvmo010xH/iSGYvHbsmjmzVMZJAbyTjbPbWIAAEporfwlA8VA3slSGS2GIrHVXNEcavpPkmRA/pjlxQAAlM4yucz0n+lXtF8UQrFYAVAsA/N05hUD0z2e9fKyGOZAnyydFbN0Fs1CWSBD02d6oTYu4/JaXstreTJP5PE84jkLAKRPls8yGZalM2/mzbzpn/5JkjGZmDfySl7K83kyD+ZJnxpzZP7cmuXEwHSvZ6m8LYbi6CWCQvms6T/vsUwuyyYZK4hZmicrZMXp/7dkJ89pk3J/7snfc72dFgBqaPlskrXy0ayc3p369yfn6TyUB6f/3+sCnKUB+aPpP++7UjswPxNDcVgBUCR983gWFQPvc0V2zmQxfOC8tUSGZ8WsmOEZkQW69bNeyLW5NFfnHbEC1GBqunV2yuZZpFs/5ZWMysN5MA/m4TyTaWJ9n565ODuKgfd5KUtnvBgUAHzYgTlZCHzIqTlQCOmT5aZP+FfI8IbfV/hO/pQzc0UmCRqgknpnu+yfrTKgwT93bB7OQ9MLgUfdKJCOnJpPGW7MYJZzqhAUAHxQzzxowRQz9O18t5ave8j0Cf8KWTFLt+CGpZdzVk7MkwYcQKUsnc9nvyzY9F9ncp7Mg3loeiHwZi2zPibfNuCYgcczPFPEoADg/fbMeUJghqblUzm9Jq91aFbKiAzLShmRpdtwhpqaK/OD/NWgA6iE1XJY9m7LnldvZFQeyBMZlQfyVKbWIu3P5BRDjpnOdC4QggKA97srqwmBmZiUHXN1RV9brywxfcK/UlbJ4EIc07X5eu407ABKbZV8O7sX4kgm5PE88G4hMK6ieW+bS20vzkzdm4/aMUMBwHttkyuFwCy8k81ye2VezeAMz4pZIStkRIZ1cg/m1pqWi3JEHjfwAEppmfwwHy/kde6kPJFReSgP5cE8nLcqk/gauX76o3dhZrOdq4WgAOA/bsoGQmCWRme9PFri42/34v45NzG/zjc8hhGgZPrn8ByefqU41vfeKPBkib8fHZa/tmCXBco+29lICAoA/s/HcpsQmK3Hs25eKdHx9sqwd7/nH565S5n5E/l0bjD0AEpj4/wmw0p55P/Kw++uDXiiVI8Ani+3ZnlDj9laP7cKQQHAv12e7YRAJ/w9mxb8G+m+Wfbd7/lHpH8FMp+WU/IV6wAASqBfjsp/p0cFXsmkPPvu2oB783ahj7V/rss6Bh+dmvHsIAQFAEkyMv/wTtBJl2XXwn0rsOD07/lXzApZopKpj8puedDgAyi0FfP7jKjkK3smD01/wOCDeblgx9Y7l2Rbg49OmZbVc48YFAAkv8veQqDTzsn+BXic0CIZMf2e/pWzUA1SH5MDPagToMB2zuklvdlszryZx6fvGTAqD7X9yeo9ck72MviYg1nPPkJQADAsD3toCnPkxHyhDb/qgAzP8IzIClkhy6dvDXP/SQ6vyZOcAcqlR47N12r4uifkkTyUhzIqD+fhvNOGI/h5DjX8mANTskIeE4MCoO5+nYOFwBw6Jke25NcZOv1u/mFZKStU4q7K7vlD9qns85sByqpvTvctdJIX332ewBN5oiW/4vfzdbEzxzOfzwlBAVBvC+XJkjyohmL57/ykKT+3R5bK8IzI8KyYFTOvoD/gr9kub4oBoDCG5IqsK4YPeC0P5sE8nFF5OE81afXal3KcoJlj47N0XhKDAqDOjs3/CIEumJYD85sG/aw+WSwrTb+nf4UMFO4s3ZMt86oYAAphaK7OWmKYpYl5bvqeAQ/koYY91Wb/nG4eQRdnP0cIQQFQX3Pn6VpsWEMzTMneubDL//U8WTErZnhWzApZ2uL+OXJvNlcBABTAfLk2q4phDkzNk3koD+bhPJgH83qXf87OudAOVnTRW1nSakoFQH19M98VAl02MTvmT3Pw7y8y/W7+ERmWYeLrhjuzacGfygxQfQNyrefPd8sb7+4ZMCoPzsGNApvlilpuBkzjZkDfF4ICoK4fXE9mATHQDe9ky9w6i3/eO4u/u4nfqhkksIa5PttkghgA2qZ3LstWYmiYiXns3U0EH5zlEwXWzrWuKOiW17Jkw25GQQFQKofkeCHQTW9m49z7vr8zJCtkRIZnhayYpS3Qa5qzs58QANrmrOwrhCaZnCfzYB7KwxmVhz6wWHvl3Jh5RES3Z0EnCEEBUD+982iWFAPd9kLWz5vvbuI3LEv7fd0izXoSAwCzPwP/SAgt8n83CozKA+mZG7OwSOi2Z7NsJopBAVA3B+R0IdAQU23i1xZTst0c7cEAQGNslSvSUwyuOCj1TOhMISgA6pb8fVlJDFBqr2bVvCAGgJZaMPdmQTFAqT2UleZg40kaSIvXLjub/kPpzZffOYsCtPja9WzTfyi9FbKjENrD8ql2OS2LCwFKb6m8ndvEANAyX8lnhQAVsExOEUI7uAWgPTbNdUKAShiXkXlMDAAtsVTuz0AxQCVslr8IofUsXm2Pr4sAKqJ/TlGlArTIyab/YEaEAqBs1szmQoDK2Dj7CAGgBfbNFkKAytg8HxNC6/neqh0uyq5CgAp5PsvnHTEANFX/PJQlxAAVcnE+LoRWswKg9YZnZyFApSyaw4QA0GRfNv2HitklI4SgAKi+I6QOFfx9PZ8QAJpovhwhBKiYjnxNCAqAqlss/yUEqJy5cqgQAJro0MwlBKicfbOkEBQA1fbf6SMEqKAvZrAQAJpkcL4oBKig3vmyEBQAVTZvPiUEqKQh+awQAJrksxkiBKikAzO/EBQA1XVYBgkBKupzzqgATbpe/ZwQoKIG5BAhtJLHALbSXHk6Q8UAlbV9rhACQMNtl8uFAJX1RpbM22JoFd9XtdJnTf+h0g4WAYCzKzBHhvo93kpWALRO3zyZhcUAFTYpC+c1MQA01Lx5Mb3FABX2YpbOBDG0hhUArfMJ03+ouN75uBAAGuzjpv9QcQvnACEoAKqmZ74qBKi8vUQA4MwKzKHD00sICoBq2T3LCQEqbwMPqgJoqCHZQAhQecOymxAUANXyPyKAGuiVzYQA0ECb+14QauHrdqdTAFTJtvmoEKAWthYBgLMqMIdGZhshKACq4+sigJrYRAQADbSxCKAmjhBBK1ho0Qrr52YhQG0slJeFANAQCzijQo1skFuE0GxWALSC+/+hTtYUAUCDrCUCMGtCAVAuS2U7IYDLVQCcUYFZ2C5LCUEBUH4HSBlqZWURADijAl2Ym+4vBAVA+e0jAqiVlUQAoAAAumBfETSbTQCbbbk8IgSolckZlAliAOi2PhmbXmKAWlk+jwqhmawAaDZPr4W66ZVlhQDQAMuZ/oPZEwqAcrF5DdTPCiIAaIAVRQBmTygAymV1EYBLVgC6QJ0KZk8oAEqlp6XAUEPDRQCgAAC6YNn0FIICoLwWSm8hQO1YAQDgbAp0Re8sJAQFQHktLAKooRU8YQWg2zqspwIzKBQA5dJfBFBDA7OYEAC6afEMFAKYQaEAKJO+IoBaGiECgG5yAwCYQaEAKJnxIoBasnEVgDMpYAalAKiZMSIAl60AdIEVAFBPb4tAAVBer4gAFAAAOJMCnTRaBM1kp+pm5zvWNhZQQy97hA1AN72UBYUAtTMuAzNNDM1jBUBzTctjQoAaWjBDhQDQDUNM/6GWHjP9VwCU299FALVk6SpAd3iaCpg9oQAoodtFALVk8yqA7lCjgtkTCoAS+rNFLODSFYA5pEaFOpqWPwtBAVBuz+QeIYBLVwDmiBoV6ujuPCMEBUDZnScCcOkKgLMoMBvni6DZPAaw+ebPs+krBqiZKRmU8WIA6JJ+GZOeYoCamZDFM1oMzWUFQPONzgVCgNrpmeWEANBFy5v+Qw1dYPqvAKiG72SyEKB2LF8FcAYFOmtKvicEBUA1PJqzhQC1YxtAAGdQoLPOysNCUABUxRF5UwhQM76/AnAGBTrnrXxDCAqA6ng5RwgBXL4C4AwKzMD/5EUhtIKnALQu6T9kJzFAjbyTuTJVDABzrEfezgAxQI1cml0yTQwKgGqZJ3dmaTFAjSydp4QA0IWz5xNCgBp5MmvkdTG0hlsAWuf1bJc3xAA1YgkrgLMnMGtvZDvT/9bpJYIWejA75qoMEgS1MSUv5ek8n+fzdF5+93GY72RI5st8WSALZOGsVOHfEyvmaoMAQAHwHmPyQF7IKxmdVzM6/3r3VodeWShLZNEsmiWzUHoaBNTGmOyYB8WgAKiqW7JVrspgQVBpU/NI7sgduTP/yLjZ/ts9MiyrZmRWzfqZ1yUsABV8COCruSX/zD/zjzzZid1h+ucjWTNrZo0sb7UuFfdWtslfxdBK9gBovZG5NEuJgUp6I1fk0vw5b3Xpv+6ZNbN1tskalbncuTkbGhQAXTh7rl+RVzI1d+TqXJU7urgp7NzZMjtn2wwxKKikp7JT/ikGBUD1LZDfZTMxUCkv5ve5NDe+u8y/O+bP9vlM1q1AKqOzgKEBMMdeyfwVeBW35De5PK824Cf1zkbZKbtlIUODSrku/5VXxKAAqEvuh+b76V/BVzYlb+XtjM3YvJmxGZsxmZr9MtBbXml35bicl0kN/qnD88l8OvOVPJv5G3LpB1An85b+zPlmLsgvG/69Zp/slIOyuQFSae/krHRkUAZmYIZkYAZmrgyu5J4Q4/KNHOfBfwqAelks389+pTna8RmX8Xlj+v9+8P//56/enMFv5PXzl/T2hlfS2JydE5u4dKtfds83Sn0n/Qa5xTABmMMz500lPvpR+UF+n/FN+/mr5gvZ592tA6mWSdkyN8zwn/TP0AxNv/R/938/+P/7pX8WKE1VcHm+lCe94QqAOlonX8/2bXwXJuft/Ctj807+lbczNu/kjenf27+ZdzI2b+WtvJOxebObv85h+V9vdgU/pH6bI/NS03+dHvl4vpflSprSgTnVUAGYwzPnySU98qfz/fwmU5r+68yXr+Ww9DVUKueL+WU3f8KQDMyADM7gDMyADJm+lmBoBmRg5srcGZCBmTtztXEj+Gm5PD/Ibd5sBUCdrZBPZr8s3NCf+X+L8MfknYzJmxmbd/JW3srYjM2/MiZjMzZv5J1MaNmr/E0+5a2ukGn5fb6ZR1v26/XOXjk6S5cwqZ/lq4YLwBz5ab5SwqN+Nj/JSS28sloyx2Q/V/KVcmYOaNmv1TcDMjQDMzCDMncGZmAGZ3AGZGCGZFAGZNC7NyA00os5K7/NQ95qBQBJj6yebbJ+VpvlY9Amvntn/dv5V97J2Pwrb+edjH33e/t/ZWzGdnEH9ubqlxuzlje6Iv6aw3JHG8bQETmidN93XJntDBiAOTxzblOyIx6fH+RHTVz2PzNr5edZx4CpiNuzcQsLpM4bnIEZmLnfXUswMAMyV+bOwAzI3Jnr3d0K+sziZ7yWu3NLrspdXXwaBgqASls4S2bhzJ0+ScZNX4Q/Nu/kzYxp+CZrrX5ld2YRb3Dpjcu3879tO30vn19nk1Ll9USWMWgA5vDMWa4VX9fls3msTb92z3w530k/g6b0Xsoaeb7Ur6B3BmVIBkxfSzAw/ZNMzL/yYp7Oi95gBQD1tG6un2U7SPHdnk+2eeFWRw7Mz0r0XImpGZRxBg5Ap/XPmPQozdGOz1H5cZu/1Vwmv80GBk6pTcpmuVkMtEYPEdAyf81hQiixiTk867f9vq1pOTlr5sESnWOXN3QA5sDwEl2dPpjVcmzbFzU/nk3y9ZKvE627L5j+owCgmn5V2n19eS1b50ct2Nm4cxdca+UPpUluRYMHoJJnzSuyTkEK6Sn5YTbNKwZPSZ2YU4SAAoCq+mKpn+1bX/dnzVxfoOMZk4/niJJsJLOC4QNQubPmtBybHfOvAh3RLVknDxg+JfTXfFkIKACorknZI8+JoWSuyvp50qVXF1kBAFC1AmBMditgDf1EPpZLDaCSeTG7Z6IYUABQZS9nJ5uilcrx2b6gE+0rslledykLUCnFr01fy4a5uJBHNia75peGUImMz855QQwoAKi6u/MFIZRo+n9YgZfa35XN8mrBE1w+PQ0jgE5fmS5X8CN8I1vlnsIe3dQckhMMo9I4OH8XAgoA6uC3+akQSuGUHJZphT7Cf2TzjC70EfbLUgYSQCctXfBn2o/ORrmr0Ec4LV+yCqAkjs2ZQkABQF38T/4ohMI7NQcXfPqfJPdmo7xY6CN0EwBAZxX7BoBXslnuK3yG03JITjSUCu8P+YYQUABQH1Ozd+4QQ6H9NgeVYPqfJA9mu4xVAABUQJHPmGOyZQmm//9XAfhuudjuyX4leZoRCgBokHeys+cBFNht+VxJpv/F/xj1HACA8hcA0/Lp3FuaHKfmM7nZcCqsF7Njob+6QAEATfFCdnLyK+wH026ZUKoj/kOOcTkLUHrFrUy/lQtKlaQHLxfXOF+C0U4dIqCtds2FaqjCmZANS7grbUd+l70KeWSvZ16DCqBTXi3oGfP32aNE6+L+z2q5Jf0NqoKZmo/nEjHQPqZetNfF+bYQCudzpXwoTXEXZ86TBQwqgE5YsKDT/3uyfwmn/8nd+aJBVThHmP6jAKDevp9ThFAop+W3JT3yd3JAJhbyyNwEAFDes+WE7J9xPtNpiNPzYyGgAKDuvuA+qAJ5Ml8u8dHfm+8W8rhsAwhQ3rPlUbm/xJl+KY8bWIXxfD4rBBQAMClvCqEgpuUTeavUr+AHubOAR2UFAEBZz5Z/z09KnemYfKaUty9U0xsl22IZBQA0xTwZIYSCODU3lfwVTM7+GV+4o7ICAKCcBcCEfCqTS57qDW4DKIwRmUcIKABgI+OwIF7N1yvwKh7Mj1zSApRS8erSH+SBCuR6eF4zuAoy89pQCCgAYCMRFMSRFblA+EleKdgRLZFBhhfAbAzM4gU7opfy00ok+2qOMrxc9YICgKLYWASF8HROrcgreTvfKdgRdWR5AwxgNoano2BHdEzGVCTbk/OkAeaqFxQAFME8WUUIhXB0QR+h1xUn5bGCHZGbAABmp2g3ADxSmWI8mZjvG2CFMDLzCgEFAPVmB4BieDRnVejVTMr/UwAAlEzRzpTfzKQKpfvbPGyIFWLutYEQUABQ9wKAIjiy9Lscv995ebBQx+M5AADlKgDuz0WVSndK4W6Pc+ULCgBqaWMRFMAjOb9ir2haTnRZC1AqxapKf5lpFcv33MLdHufKFxQA1I4dAIrh1Eyt3Gs6I28V6GiWTy/DDGAWemXZAh3N2zmncglPzW8MswKwCwAKAGrNDgBFMDFnVPBVFevirU+WNtAAZmHp9C3Q0fw2b1cw499WaleD8s6+7AKAAoBaFwC03yV5pZKv64RCLd+0CwBAec6SJ1cy45dzmYHm6hcFALTTxiIogFMr+rpG5a8FOhq7AACUpQC4KQ9UNOWTDTRXvygAoH3sAFAET+W6yr62PygAAEpiuE+PFrgmzxhqbWcXABQA1NaGRmABXFbBDQD/zyUKAICSKNIKgEsrm/LUXGGoFWD+ZRcAFADU1MYiKICrKvzaHs8ol7YApVCcFQD35kmf+jSVXQBQAKAAoE3G58ZKv75LCnMkQ7Kw4QYwEwtnqE+OlvhLJhhuroBRAEA72AGgCG7MO5V+fUXa79hNAAAzU6RVUpdXOumxuclwazu7AKAAoJY2Mv4KoOpLAe/KOAUAQOEV5wz5Tv5R8ayvNtwKMAOzCwAKAGpZANB+N1f89U0q0IWcXQAAil8A3J3JFc/aCgBXwSgAoC02FkHbTS7QJnnN8neXtwAKgBJ+ajTLA5liwLkKRgEArWYHgCJ4KOMr/xrvKMyRWAEAUPwz5B2Vz3pcHjXg2s4uACgAqB07ABTBvTV4jcW5lFs0cxlyADMwKIv61PDpX7M5mF0AUABQuwKA9ruvBq/x0cI88KijQE+5BiiSFdNRkCMZnydqkPc/DTlXwigAoNU2FoECoCWm5fkCXeIC8GHF2QHguUyrQd73G3KuhFEAQGvZAaAYnq/Fq3yuMEdiBQBAsQuAZ2uR9wuGXAHYBQAFALViB4BiGK0AaKkRhhzADBRnfVQ9CoDRhlwhZmF2AUABQK0KAIrgVQVAS3kQIECxC4DnapG3AsDVMAoAaLGNRVAAb2ViLV5ncZY6Lpvehh3AB/TOMj4xWuqdjDXsXA2jAIDWsQNAMbxSk9c5rkAXucMMO4APWKZA5eg7NcncGoAisAsACgBqww4AxTCmJq9zcoGOxXMAAD6oSLdHTalJ5m8bdoWYh9kFAAUAtSkA8Pu/npdzdgEA+KAiVaN1KQB6GnauiDEBgNbZWASF0EsBoAAAcGZ8j8k1ybyXYeeKGAUAtIodAIqiLv2/WwAAiswKAAVAXdkFAAUAtWAHAB//rVWkomOFdBh4AO8z3CdjrT8Z6z0TswsACgBqUQDgMqeV5ivQsQzOwgYewHssmsE+MVwBuCoGBQDVtbEICmL+mrzOBQp1NG4CACjuWbEen4wdtSk6XBWDAoC2swNAcQzIPLV4ncW6nLMNIEBxz4r1KADmT18DryDsAoACgMqzA0CRLKYAaDkrAACKe1asRwGwmGFXoLmYXQBQAFD5AoDiWFwB0HJWAAAU96xYjwJgUcPOlTEKAGiVjUVQIPX4DmC5Qh2NFQAAxT0rLl+LzBc37FwZowCA1rADQLEMq8FrXKhgmwAukrkNPIDp5i7Ys1EWrsUagKUMvAKxCwAKACrNDgDFskYNXuOqhTui4QYewHTFuy1qZA1SX8vAK9RszC4AKACodAFAkaxeg3NA8QoANwEAFPeMuGrlM++Rjxp4ro5RAEBrbCyCQpm7YPfHN0PxbjqxDSBAcc+I1V8BsGIGG3iujlEAQCvYAaB41qz8K1zd5S6AAqDTqn9z3JqGXcHYBQAFAJVlB4Diqfp9gEsUcHmpWwAAintGHFH5J+TYAaB48zG7AKAAoLIFAEWzjdfXcsukr4EHkKRPAZ9G05GtKp761gaeK2QUANAaG4ugcJbNCAVAi/XKMgYeQJLl0ssnR4utmqUNvMLZRAQoAKgiOwAU004Vfm19smkhj8suAADFPRtukd4+9WmpVewCgAKAKrIDgEuBVls/cxXyuOwCAFDcs+HgrFvhzHc07Ao5I7MLAAoAKlkAUERrVXi7o30LelxWAAAU+Wy4T2UTXzSrGXaFtLEIUADg1EZrdGSvir6ywdnDJS+AAmCO7V3Q9WPdt286DLtC8jUZCgAqxw4AxfW5ip4J9snAwl7yugAD6Mjwgh7ZoIpW4z1ysGFXUCPtAoACgKqxA0BxDavoI4E+U9gjG1T5p0wDzN7iGVTYYzuwkolv7wkABZ6T2QUABQCVKwAori9U8DWtXuj7HN0EAFDkM+Ga+ahPe1pqYxGgAMBpjVbZOsMq95oOK/TReQ4AQLHPhIdVLu/lsoVBV2C+KkMBQKXYAaDoZ4KvVOwVjcjehT4+KwAAin0m3KdyZ+qv2n+m0EZmHiGgAKA67ABQdAdl2Uq9nqPTs9DHZwUAQLHPhD1zVKXSXj6fMuQKPivbUAgoAKhSAUCx9c4xFXo1q2TXgh+hFQAART8T7pGPVCjt76W3IVdwG4sABQBOabTOXlm9Mq/lB4U/ty2UoYYcUGtDsmDBj7AjR1cm7TXycUPO1TIoAGgVOwCUQUd+UJFXsmG2K8FRWgMA1NuIEhzjjlm/Imn/0P3/JbCKXQBQAFAVdgAohy2ycwVeRZ+cWIrjVAAA9VaOs+CvKrFwftdsZsCVYl5mFwAUAFSmAKAcfpV5S/8avpqVXPoCOAs2xMr5cumTni+/MtxKYmMRoADA6YxWWii/KPkrWDHfLs2RAtRZWc6Cx2Tlkid9YhYw3ErCV2YoAKgEOwCUyd7ZrcRH3ytnpH9JjtUKAKDeynIW7JszSn0bwJ7Z3WArjZF2AUABQBXYAaBcfpn5S3vs382apTnWYelnsAG11TdLl+ZYV8t3SpvzgjnBYCvVzMwuACgAqEQBQJkskIvSp5RHvmv+p0RH2zPLGmxAbS2fniU62v/JXqVMuXfOzXwGm6tmUADQWhuLoGQ2KOV2QavmzJI95MhNAEB9lesM2JHTsnoJU/5FNjHUSsY7hgKA0rMDQBl9Kp8v2RHPm4szsGTHbBtAoL7Kdgbsn4tKd4Pcl3KwgVY6q1TgeUwoAKi5DY2yUjquVM8M7p0LM6x0GVsBANRX+c6AS+bc9CrR8W6RnxpmpZybbSAEFACU28YiKKVeuSCrluZYzy7lkjkrAID6KuMZcLOcWZqdCz6a80tVV/AfdgFAAYACgLaYJzeUYk/9nvlt9ihlwsOdgYHaXn8uX8rj3ju/K8W0+qO5JkMNs5KyCwAKAEo+ibQDQHkNyZ+zVgmm//uWNN8BWdwgA2ppiQwo6ZHvkbMLvwpgtVzrPvISswsACgBKbSNjrPQVwNqFPoOdlv1KnK+bAIB6KvPZb8/8ptDXNqvnmsxjiJV6dmYXABQAlLoAoNzmztWFXYw2KBdl/1KnaxtAoJ7KffY7IBcU9rkzm+U60//S21gEKABwCqN9huSaHF7A41osN2Rnl8AAzn4t9/H8NUsV8LgOylWZ2/By9QwKANrFDgDV0DM/zDnpX6hjWjd3ZvXSJ+sWAKCeyn/2G5k7CrbKsW9Oy0npbXBVwCpWcaAAoKzsAFAd/5UbsmhhjuagXJ8FK5DqSgYWUEtVOPvNlz/l04U5msVycz5pYFVmfrahEFAAUNYCgOpYK3dnxwIcx0K5NCelTyUynTfnZ4ShBdTKsjmpIt9v9s2p+UMh6uidclcpHtyLK2ig4v6Raf6o2B+/afPdhXvn1YolOjWXZR0nC6AWVs+ZmVKxs/jo7NnWTOfOb12dVO6Pe5wsgDKap3If8v6Ylml5Pnu0aUQtkN9XNtVbskM6nDSACls/l1X2HH5hFmhTqnvlBVcmFfxjSuZ1yqBZ3AJA82xofFXSIjk/f8pqLf5VB+XbeTQfr2yq6+WPuTf7p5cBBlTwanOH3Jmbs31lX+FueTTfbPmjAVfPNTk3Cxtglfw9s4EQgPL5uQa30n9ck4+0aCT1zkG1+YbjyRyaAU4eQGX0zf55pCZn8NE5PH1blOuIXJCprkUq/Mf/OnkA5WMHgOovUDsryzZ5FPXLJ/JozXIdnaM8AAiogME5tHYL1B/Ofk0vAZbLOW6yrPwf/3ACoVncc0qzzJPRbgGogcm5Iqfmqkxpws9eKp/NpzNfLXMdk9PyizxmgAEltVy+lE+2fFF8MbyS3+TXeaYJP7lnts2B2TY9DbDKm5oF8poYUABQJjvnD0KojedyWn7TwIudvtk8B2W7ml/iTM3lOS5/MbyAktksh2Xbmn8JMCWX5eRcl4kN+4lL5tP5VBY1vGpjl1wiBBQAlMnPc6gQajZdvTlX5erc262fMjTbZOdsnbkEOt3D+VVOzjhBACXQN3vmqxkpiOneylW5NFflzW5dq6+arbNN1reusnZX0l8WAgoAyuQfWVUItfRCrsqfc1eeyLQ5+K/mz1pZM+tnw/QW4YeMzmk5Ic8JAiiwBfOJfCmLCOJDJuXG3JI7ckdGz9E1+rCskS2ztUxreyX9USGgAKA87ADA27k//8y9eSyvZHRe/dAyyEFZIotmkSyRlbNWlhLYbEzMpflZbhcEUEAfzWezf/oJYjaeyt9zf57J83k+z2bMB/5pn8yf+bJgls2qGZmVM0hgtTY18+d1MaAAoCx2ycVC4H3+9Z7NbIamtwubLrkrx+d3mSwIoCB6ZLt8KZsLogvGZFLeePev5stgkfCBq+lLhIACgLKwAwA0y5M5KSe/56IRoD3myt75SoYLApriuBwmBBQAlIUdAKCZ3s7p+VUeFATQJiPyuRxgw1Zo6tW0XQBQAFASdgCAVrgrJ+csTwgAWqpPdspB2cw1JDSZXQBoCpM0mmEjIwtaYPWclKfywwwTBdASi+aoPJsLsrnpP7RgnrahEFAAUJYCAGiNBXJ4Hs012T29hAE08Ypx81yQp3NkFhAGtMjGIqDx9Lc0wz35iBCgxV7IWfllnhUE0GAL5YB81uNaoeXsAoACgFIYnDesLYG2mJKrclyuyzRRAA2xfr6UndNbENAGUzM0b4mBxjJNo/FGGlfQJj2zfa7Jwzk88wkD6Ja5c1Duz83Z3fQf2jZTGykEFAAU30oigLZaLj/MMzkzG1vlBXTp6nDTnJWXcpJPdGizESKg0WwaRePZkRzar3/2y355Imfk9DwjDqCTlsoBOSBLCwIKYRkR0GhWANB49geGohiWo/NkbslBGSgMYJb6ZfdclsdylOk/uKpGAQCdN68IoFDn+fVyUp7PmdlcGMAMrZ7j8lwuyPbpKQxwVY0CAOaEiwconrmzX67Jgzk8CwoDeNc8OSj/yJ35kokGuKpGAQBAlayQH+b5XGNXbyA9s3kuyEs5KasKA6AubAJI440VART8on/zvJyzc0buEwfU0sh8Ivu4uxgKb4wIUABQfK+IAApvwXw1X82oXJiz85g4oDYWz67ZP6sJAlxVU09uAaDxXhBBkqm5P8+JgYIbkSPzaO7MoXYGgMqbJ/vnmjydn5v+U4JryQcyVQxJXhQBCgCK76Gav/4ncnL2yAJZJcvkdMOBElg9P8/zuSUHZS5hQAX1z+65LC/ljGyeDnFQeKdl6aycIdkix+aumhcBDxoONJqPARpv+Txcw1c9NfflhtyQm/L6+/7+ofmZoo3SGJ9rc2YuzURRQCX0zZbZPbtkkCgoiWk5Jke97+/Mkw2zcTbOKrW8nhqeRwwKFAAUf1S9VKONhWY28f+PXXNWBhgWlMibuSwX5spMEQWUVo+sm92zd+YXBSUyNvvmkpn8szoWAa9koUwzLFAAUHwXZPcavMoncm2uzV/y2mz/zTVyaRYxLCiZZ3Nezs09goDSWSN7Z88sKghK5vnsmLtn+2/NlbWzeTbPR2tQBFyQPQ0LFACUwf45w8T/fRbJH7O6gUEJPZ1Lc2Fu9Q0ElMJK2T3/leUEQQndmx3zzBz8+3UoAvbPWQYGCgDKYK68nP4m/u8zMGdnZ0ODknouV+byXJXJooBC+veC/4/71p/SujJ75e0uXnVWtQgYn4XyL0MDBQDlcF5llizN/h7/zv9uOzJHGhqU2Gu5MhfmT7YIhALpmXWye/bIQqKgxI7Pl7u923/19gg4P3sZGigAKIs18/fSv4bufeM/Y5/MielneFBqr+fSXJRrM0EU0Fb9skU+nh0zVBSU2vgcnDMb+POqsyJgndxueKAAoDxuyXqlPO7GfeM/Y6vlD1nC8KD03slfcmEuzhhRQMv1z+bZPTtlsCgovefz8fytKT+57CsCbs36hgcKAMpk/dxcsiNuxjf+M7JQLsq6BggVqQGuzGW5Mq+KAlpi/mybHbO1h8tSEbdkt7zc5F+jrCsCNskNBggKAMrlD6XY9K7Z3/jPSK/8NF8yQKiMqbknl+ey3O1ZAdA0K2X7bJ6N00sUVMbJOaSFu8qUa0XAJdnFAEEBQNkskgcypMDH16pv/GfsoPwifQwSKuXp/CnX5iq3BUAD9cv62SE7u3mMipmYL+aUtvzKZVgR8FZWzrMGCQoAyuczbTq1z0o7vvGfsXXz+yxskFA543JrLs9FeU4U0C0LZOtsn60zlyionNHZPTe2+RiKvCLgwJxqkKAAoJx+m08U5lja+43/jCySi7O2QUJFjcpluTx/7faDnaB+Vsr22SHrukqjou7OLnmmMEdTvBUBv8s+BgkKAMpqQG7MGm09guJ84z8j/fLrHGCYUGEv5opcmb/kX6KA2RqaTbNttsuCoqDCTsvnC/kgYueScgAAJ99JREFU2aKsCLgzG+UdwwQFAOU1X27OCm35lYv3jf+MHZQT0ttAodKm5B+5NtfmphZu9wTl0TMfyebZPBv5NKDiJudbObbgx9jeFQGPZf2mPxcBBQA02RL5c4a37Fcr9jf+M7ZBrspAA4UaGJvbcm2uzV2igCTJsGyezbNFobfMhUZ5JzvkL6U52nasCHg4Wxbo5ggUANBl8+fKpt8IUMaJ/3/8OgcbJtTIS7k51+byvCAKamq+bJLNs1WWFAU1cnIpr3ZaVwTcmW0z2jBBAUA19MsJ+XSTfnZZlvorAOD9puaeXJtrc0vGC4Oa6JVVs0O2L/QDyKB5VzufK/HRN/vWgHNykHv/UQBQLZ/JTzO4gVOHMn/j/0Fn2++VGhubm/KX3JS7M1kYVHbiv0Y2zKbZIAOEQW2dnf0q8CqasSLgrXzVg/9QAFBFi+UX2dnEfwYuzY6GB7U3Jn/NTbkxdxRyf2joir5ZKxtlw6xrpxfIpd2+CqxmEXBJDslzhgcKAKpqg/wg65n4f8B12dTQgOkm595cm1tzk4cHUloDslrWy+ZZL/2FAe9e7WxewVfVvSLg1nw9NxsaKACouo/lsOyUfib+7/p71jQsYAZFwK25JdfmDWFQEoPysayf9bJB+goDPnS1s3aFX92cFgHjc2l+ntsNCxQA1MXg7JztsnEWqPXE//+MyoqGBMzElNyTm3Nj/mp3ZAprgaybjbJhVk1PYcBMr3ZWqsGrnH0R8EpuyBW5JG8ZEigAqOMIXDarZMUsnPkzT5IJGZ1X8nhG5Z+1Oi0+m8UMBpitF3NXbsmtudNzAyiEXhme9bJ+Vs+KrqigE1c7S9To1Q7OyIzIMlkg86dvktczOi/mwdyXxzLNYEABAPX2RoYIATptUv6ZW3NX7soDwqANFsnqWS/rZzV3+MMcXe3MIwRQAADJpPQSAnTBS7kzd+Wu3Jw3hUGTDcxHs3pWzwZZShjQBZPTWwigAAD65x0hQDcvKx/Ibflb7sxDmSwOGqhXVsgaWTvrZCVVLXT7iscNXKAAgNqbP68IARpkUh7NXbkrd+WejBUHXdQ7y2f1rJ7V89EMEAc07IrnVSGAAgDqbuk8IQRouCl5OqNyV+7K35RsdMrgjMzqWT0jskr6iAMablieFAK0l8Vs0H5ziQCaoGeGZVi2T/Lv5wfclQcyKqPsvswHLJIRWSmr28sfmm6QCEABAPg4hGZbONtPrwJG596MyqiMygN5XTC1NU9GZERWyoismvnFAa54QAEAtIoVANA682fzbD79z9/IqDyQUXkg9+cl0VTekCyTlaZP+5f2XT+44gEFANAO+nBoj6FZL+t9qAx4IC+KpkLv8bB3J/3DxAGueEABALSbPhyKVQaMzgN5NI/nsTyexzJGOCU7oy6TZbNMls2yWTnzCQRc8QAKACgSfTgUy/zZOBu/+1dv5Il3/7A6oIiGZth7/rC4H1zxAAoAKDB9OBR7erl6Vn/3r16fvi7g8TyWJ/OiZwq0QUcWztJZdvr3/MtkHpGAKx5AAQBloQ+H8pgna2Wtd/9qUl7NC3kiL+aFPJEn8qJKoAn6Z+EMy7AskoUzLItkyQwUCrjiARQA4OMQaKXeWTgLv2d9QDI+L7ynDnghj+YtMc2Rvll0+lT/31P+ZTO3UMAVD6AAgKqwIA6qo1+GfWC3+fF5Iy/kxQ/8r5UCSf8MzcJZ5AP/u2B6GEbgigdQAEBV6cOh2pXAwln4Q393XF7Jixk9/X9H57W8mTfzRt7MpIq9/t4ZkqEZkiGZNwtk/iyc+bNAFs786W9wgCseQAEAPg6BquufJbPkDP/J2HergP/74z9//lYm582CvZIh6Z25MiRD3p3ov//P3a8PuOIBBQDwLgvigP8YmIFZdJb/xqSMybiMz9uZlDdn8FfJtPfUBG9n8vQ/G59x0/9sav6VZO53F9sPSN/pf9b7PRfoQ9KRZFB6Z2h6Za70S/8Z/BWAKx5QAACdpg8H5kTvDM1QMQCueIA5ZaMdaD99OADgigdQAEAN6MMBAFc8gAIAfBwCAFSAFQDQdh0igDbrkcl+JwIAlTctvTJVDNDeqQfQXoNM/wGAGujwYFBQAIACAACgDtwEAAoA8FEIAOCqB1AAgI9CAIAqsO4RFADgoxAAoAZ87QEKAPBRCABQA772AAUA1Jz9cAEABQCgAIAasAIAAFAAAAoA8FEIAFARvvYABQD4KAQAqAFfe4ACAHwUAgDUgK89QAEAPgoBAGrA1x6gAAAfhQAArnoABQD4KAQAqALrHkEBAD4KAQBqwNceoAAAH4UAADXgaw9QAICPQgCAGvC1BygAwEchAEAN+NoDFADgoxAAoAZ87QFt1iECaLOJ6S0EAKAGJqWPEKCdrACA9upr+g8A1ETv9BUCKACgvtwAAADUh5sAQAEAPgYBAGrAVx+gAAAFAACAKx9AAQBVpgcHAFz5AAoA8DEIAFAhVgCAAgB8DAIAuPIBFADgYxAAoAqsfQQFAPgYBACoAV99gAIAfAwCANSArz5AAQAKAACAGhgoAlAAQH3pwQGA+hgsAlAAQH1ZAQAA1IcVAKAAgBqzAgAAcOUDKACgBqwAAAAUAIACAHwMAgBUiK8+QAEAPgYBAGrAVx+gAAAfgwAANeCrD1AAQI3ZCxcAUAAACgCoAU/DBQDqw9pHaKsOEUAb9chkvwsBgNqYll6ZKgZo3/QDaJ+Bpv8AQI10ZIAQQAEA9WQZHADg6gdQAEAN2AgHAFAAAAoAUAAAALj6ARQA4CMQAMDVD6AAgFKwCA4AcPUDKACgBnTgAICrH0ABADWgAwcAXP0ACgDwEQgAUDFWAIACAHwEAgC4+gEUAOAjEADA1Q+gAIDScgsAAODqB1AAQA3owJNkkggAqMkn3jQhuPoBBQD4CKynqbk8a2ehHJsJBgMAFZ/8n5xF85GclcmufgAFANRRnRfBTcxZWSk75O95PUdklVxoOABQWZdnRA7O6Pwz+2d4js94Vz+AAgDqpq4d+Ngcn2Wzfx569+88mj2yTv5qSABQOXdl4+yQx9796ydyaJbK0fmXqx9AAQB1UscO/K0cmyVzaJ790D+5PRtk/xn8fQAoq2eyb9bMjR/6+y/nqCyRI/Kaqx+glTpEAG30VJas1et9Ob/O/87mG48++USOyYIGBwAl91p+nOMzbpb/zsB8Jl/N4jW7+lna4AAFANTz0mCe2rzWJ3J8TurkPY+D8oX8//buPMyuss4T+DcrBEgAEVkU2cQFRQggCgI6CNosgSii2LRBW6bRngZCP6LtNh1A29ZBnaC2tOO4JOyLgimQkEAjgtAICipLCFsQswDZIHulquaPVoaERCqpe+/ZPp96HvXB5N73fuvlPef93XN+5zPZ0gQBoKKW5Nv5cj8v8h+eE/OZvL5BZz8vN0FAAQCaaGWGN+Jz/jZfy8Ub2PV4m5yVM7KpSQJAxazKD/M/M2+D/s7gHJ3P54CGnP04uoMCADTQ8EY8/O62fCVdG/nc41flC/nbDDVVAKiI3lyVT+exjfzbB+fTOaYBKW2SVaYKKABA02yTZ2r9+fpybb484M7+r8vncpKGpQBU4Lh3ZT6fhwb4KvtmfO2Pe9tkgekCxXBSDcWp82NwetOVt2RMCx7sNyPjsk+uMF0AKLXpeUs+MODtf/LrjMvembyBN845AwIUAKDk6voYnFWZnDdkTO5u2Sv+Lh/I23OLKQNAKd2Rw3JEC497v8+47JHzs8wZEKAAAHVRx/r3czk/u2ZcC74BWdsv844ckXtMGwBK5b58IAflP1r+uo/njOySs7PQGRCgAAB1ULf699M5OzvnjMxu2ztMz375gPsGASiJRTk1e+eKjWx1258j64TsnPFtPLI6AwIFAKBD6lT/npXx2SUT2v49RW+uyOmmDgClcHq+m542v8dzmZjdcnJmOgMCFADA4a9492Vc9sjEjt2p+ICpA0BJjoCdsTKT8saM69j7tZsrAEABABposxp8ht/k5Oydyenu4Hs+1LZLLQGg//ra0PFm/bozOXvl2Nxeg+RGmDygAABUzQ05LPtmUtsvflzbkswRPgCFm50lHX7HvkzJQTksN1Q8uUEmDygAQPOsqOzIe3Nl9s972tDzuH8eMnkAKFxRd+X/R96T/XNlep0BAQoAUB1LKjnqVfl+9swJLXzasQIAAFVU5NHo7pyQPfP9rHIGBCgAQDU8WbkRL835eU0+lhkFj2OmyQNAowsASTIjH8vOOTvPVi65P5g8oAAAzfNEpUa7IOdkl5xRioP2DJMHgMYXAJJkbiZk95yTBQoAQH9owQFFejovr8Q45+WCfCOLSzOe13sUIAAlOBqVpyC9RT6WT+ZVlchtfkXOfqCWXAEARfpNBcb4WMZn10wo0fY/eSSrTR4ACrU6j5ZoNEsyMbvn5DxYgeTuNnlAAQCa6baSj++enJg9MjHLSzau7jxm8gBQqMfSXbIRrcqkvCkn5p6SJ/dLkwcUAKCZflbisd2WY7NvLktPKUenDSAAxSrnE2l6cllG55B0lTi560weUACAZrorc0o4qr505eAcnCnpK21y2gAC4Ei0PrdmTA5OVymP43PcAgAKANBUvbmwdCPqygEZU/qbE1wBAIAj0V9yW8bkzZlcuq45k9Nr8oACADTV90tUnV+RC7JHxuSuCuT2kKkDgCPRS/h9xuV1uSArSjOivvzA1AEFAGiuB3NtKcaxJOfnNflEqToaKwAAUF5VuRbt0XwiO+fsLCrFaLoq8ZwCqLFBIoCCHVh4N9ynMzHfLsmJQf/XrueyuckDQEGWZmSJO+Wsy1b5Hzkj2xY8ioNyu8kDRXIFABTt9lxV4Ls/kfHZJV+q2PY/6cvDpg4AhXm4Ytv/ZFG+lJ1ycqHHzytt/0EBAPhklhfyvvfnI3lNJmZZJVNzEwAAxanm02hWZlL2zEdyfyHvvjxnmTigAAA8ns91/D3vycl5c36U7sqmpgAAQHGq+zSa7vwob8qxuaPj7/zZPG7igAIAkEzMjR18t+l5V0ZnUnqcegHARql2GbovU3Jg3pXpHXzPG3O+aQMKAECS9OaDeaQj79OVA3NEbqpBZjNMGwAUAAbgphyR0ZnckS8EZuWv02vaQPE8BQDK4s35RUa18fW7c1G+UqOH77ws800aAAqyTRbU5rO8Pp/OSRnWxnd4NofktyYNKAAAL3RgpmZkW155ZX6UL+WJmuX1TLYxaQAo5Ai0bc0+0fYZn39o0wN2l+ao3GLSQDm4BQDK4/YclYUtf9WF+WJ2yqm12/67CQCAotSvEe3c/FN2zRfbch7yV7b/oAAArMutOaClze2eytnZLV/I006/AKBl6lmCfjpfyKszPk+28DUfy9tzqwkDCgDAuj2ct+TyFh1yx2eXTMii2malAABAMer7JJolmZjdc3KLShzX5C15wHQBBQBg/RbnxHx8gNv2e/Oh7JGJWV7rpBQAAHAEar1VmZQ35kO5d0Cvsigfz3s17AUFAOCl9OXf8/r8cCMfy3Nrjs7oXNqRh/oUa6apAoACQFv05NKMztEbefl+T36Y1+ff02eqQNl4CgCU1+vyuXwgm/T7z/fm2ny1QXfajcgSRUwAOq43W9T8GrsXOjifytEbcLxdmcvzJY16QQEA2Bjb5iM5Mfu+5J+bmYvyozzesHRm5dWmCAAdP/rs0rBPvEtOzknZ4yX/3K9zaX5Y09bDoAAAdMyrc0QOyv55bTZd45935+HcnTtzfUMvh5+Ww00OADpseo5o5OfeI3+VA7JfXpNha/zzFXkod+WXmVbDRw6DAgBQqB2zXbbIJunOkszJ3PQ2Oo1v5+9NCQA6fvT5h0Z//sHZPjtkiwzLyizJvMw2JaA6hooAKmW2w+wLeA4AAJ3X9Ca0vc5GoLo00AIUAADA0QdQAABwCgYAL6DDPVBZegAA1TUkyzJcDAB00Kpslh4xANXkCgCgunryiBAA6KiHbf8BBQCAIrgJAIDOmikCQAEAQAEAgPrTAQBQAABQAACgAVwBACgAADgNA6ABlJ4BBQCAQrgQEwAFAIB+8hhAoNoWZ5QQAOiQ5xx1gCpzBQBQbb6JAaBzXHkGKAAAFEYXAAA6R9kZUAAAcCoGQAMoOwMKAAAKAAA0gFsAAAUAAAUAABrAFQBApXkKAFBto7JYCAB0yJZ5VghAdbkCAKi2ZzNXCAB0xFzbf0ABAKBIbgIAwBEHQAEAcDoGAC2iBSCgAABQKA2ZAHDEAVAAABrA9zEAdIZrzgAFAIBC+T4GAAUAgH7wGECg6oZnWYaIAYA268nmWSkGoMpcAQBU3arMEgIAbfe47T+gAABQNF0AkuTBnJbv5ilBAC21MJNzZn4nCEcbQAEAoAzck5lMzn75Vk7Njjkk52euQIABm5/JOTbbZ1z+dw7I+QJxtAGqb6gIgMprehvA5/LxXPyn/92TW3Nr/jGHZmyOyW4mB7ARHklXrs4v0vP8P1mRM/Lz/N9s5WgDUGWaAALVd0RuaPCn/3U+mIfX8//tljE5Ju/IMJME6Iee3JOuTMnd6/n/d86leVujjzbTTRJAAQCgWDvn8cZ+9u/m9JdsSvWyvCuH57hsZ6oA67EgN6YrU7LwJf7csJybTzX2/HHnPGGqAAoAAMUanCUZ0cDPvTj/PVf0+08PyT4Zk2OynwkDvMCj6cqU/Dzd/f4bx+YHeVkDk1qeLdJrwgAKAABF+232atxnvjMn5rGN+Hu75oiMyRHZxLSBRlud/8yUXJMHN+Lv7pSLc3ADjzR7mzaAAgBA8a7M8Y36vH35Zj65Ad/XvdhmeVeOyTHZ0eSBxnkm/5GuXJPFA3iNofl8vtCwp0ldmRNMHqDqPAUAqINmPZrp6Zycnw3wNZZlSqZkcI7MFKVgaJC+jMnPWnAh++pMyC25MDs40gBUyWARADXQpEcz3Zx9Brz9/7PeXJsbTR9okBtzbcvuY78p+2SqIw2AAgBAZzXle5menJ3DM7ulr3mR6QMNcmFLX+2pHJnxA7odyZEGoKNc+AnUwcvzdAM+5bx8ONNa/qojMzebmULQCMuzw4Du/F+3Q3NxXtmII818UwioOlcAAHXwTBbU/jNOzz5t2P4nz+WnJhA0xDVt2P4nt2SfXFv77BbY/gMKAABlUe9LM7tzVt6duW169YtNH2iIdt3y80zG5Kya3wrgBgBAAQDAqVkHPJH/lvPS17bXvz7PmEDQAM+0sWVfX87LQXmkxunNMIEABQCAsqhvd+arMzq3tfUdunO5CQQNcFmbv6O/K/vmMkcZAAUAgHar5xUAKzM+7+tAf4MLTSBogPY/8+PZnJiTs8xRBkABAMCp2YZ+pgMzsY2X/v9/t/tuC2rvkdzRkfeZlANyn6MMgAIAQPvM7MhGuZOuzAH5Tcfe7RJTCGruwo6tkvflbbW7rqgvD5tCgAIAQFkszR9r9GmWZ3xOaMvjutbnIlMIaq6Tz/tYkg/n5CytUXpP1urTAAoAAJVXn8szH8hbM7Hj6f3KFIIau7Pja+Sk7J/fOsIAKAAAOD1bv8l5S35XwPtqBAh1VsRVPg/mrTnfEQZAAQDA6dm6PJeTMq6gC00vzWqTCGpqdUGP51uRM3J8FjnCACgAADg9W9Ovs19H79Jd01OZZhJBTU3LvMLe+8cZ3aHnDzjCACgAAAoAFfHdHFTww/g0AoS6Kvbf7sdzaL5S8Se1KAAANTFIBEBNDM2yDKvo2Bfn73J54aPYPHOzhYkEtbMk25egh/2x+UFeVtEEu7N5uk0koA5cAQDUxeo8WtGR/yr7lmD7nyzNNaYR1NDVpXiE3U+zT26raIKP2P4DCgAAZVPFSzT7cn4OLk3pwpMAoI7KcnvPH/LOnJ1eRxcABQCAJp6iPZNjckZWlWY80wtsFAa0x7xML81YVmdC3p25ji4ACgAAAzWzYuO9OXvnulKNaHUuNY2gZsr2iM8bs3ducHQBUAAAGJgqfUfTm6/k8Mwu3bg8CQDqpny39jyVv8o/pcfRBaDzPAUAqI9X5smKjHRexpX2G7AH8zpTCWpjZl5b0pG9IxfllZU5usw2lYB6cAUAUB+zs6QS4/xZ9irxBbAXm0hQI5NLO7KfZ3R+VokMl2SOiQQoAACUTV8F7tNcnbNzTJ4u8QgvSp+pBLVR5r4eT+fojC9RG9T1eciqCCgAAJTzNK3c/pB3ZkLJH4L1SO4wkaAmflnysmhfJpboQahVPbIAKAAADTWj1KO7JvvktgqkqBEg1EUV/m3+VUbnMkcWAAUAgA1V3u+6Vua0vDcLKpHiJRW4JBd4ad25vBLjfDYfymlZWdrxPWwqAQoAAGVU1gs1H8878q3K3EW6IFNNpXVYlm4hlHiry4tdn2cqMtK+fCsHlraE6woAoEY8BhCoky2zqISjuiqnlHJc63diLjGZ1nJnDsvSbJ3dsmN2yG5/+u9dFNILsTBzMjuP5tE//fcTGZYbcrBgXvRv8mWVGu/IfCcnlXBcW1dsBQdQAAAaY15eUarxrMg/ZWLlUtw0c7OlyfQC9+eQ9dzAsXV2zNbZYY3/3CnDRNbCrf7CzF7jP59c500qW+aWvFlgL/Bsdsiyyo16XP4tm5fsqLK9yQTUx1ARALUyo1QFgPvywdxXwRRX5Cf5iMn0vD/mqPX2b1iYhev4pyOeLwYclg8KcIN05dbnt/vz0tPvv7c4R+W27CzA511Vwe1/Mil357K8sUQj8gwAAIDSuiB9pfn5XjarbI6HlyjHon8WDfB75S4ZbsDPwPpP7Jn5Mnz+512VXX82y/dKlOMFDqxAnbh3EaiX/yzJOJ7L3+SUSn7/9l9uyh9NpiTJ8hyT3w7oFc7ICjH208qcNqC/f3+OzFIxJklm5+bKjn1ZTsn7S3Pf/R0mE6AAAFBWt5ViFL/JfpV4/vb69eZSkylJT07KrQN8jUfyvwTZT18d8OXWd+aDWS3IJBdvwO0TZXRVRpekoHubyQQAUFaD8ljhF4x+M5vUIMnRLqFOb/62JVmOyKPS7MfPrBY1fzspvdLMPjVYhTbJNwvP8TENswEAyuzrhZ4sLs4HapPk7xq/hfpUy7Ica0Paj5/jWpb3pxuf5f21WYeOK7ivw9ccVAEAyuytBZ4q3l6rHuSfbfgW6lstTVMrwPa2/1vb1xqe5mdqtBLtnNsLTPKtDqoAAOV2V0GXi0/M8Frl+Or0NHgDdXGLu+TsnuU2+X/hZ0Ve29K8B+UHjb55ZZdarUVDM6Gg1eg3DqgAAGX30QJOE5/KkTVM8pbGbqCmt6GPw7m2+X/h55yW5z0s1zU2zZ/XcDU6Mk8VkORHHVABAMpuWB7u8EnizXllLZM8taHbpzuzRRvS1Aqw/e3/1rRZbmtonn9Xy/XoFZna8QaAwx1QAQDK7286eIq4OhMypKY5bp0VDdw8zcx2bcpTK8D2t/9b08vzQAPTXJltaroiDcmErO5gkn/jYAoAUAWDcmOHThDn5d21TvLHjds8/bGtd09rBdj+9n9relWeaFyeV9V6TXpH/tihHG/xAEAAgKp4Q0darl2fV9Q8x+MbtnVa1Oanp2sF2P72f2t7UxY0LNH31XxVekWu70CKy/MGB1IAgOr4+zafHnZnQov7xJfRplnYoI3T8hzS9kS1Amx/+7+1vS1LG1XEGlH7dWlQzsjKNuf4CQdRAIBqubStTcsObEiK/6cxG6fVOb4DeY7IYzb9a7RZ68R2dUy6G5PodxuyMh2YWW1M8VIHUACAqtk0v2jTyeE1eVljUnxnY56cfkqHEtUKsBPt/9Y2Lr0NSfQdjVmbtsxlbcrwjmzmAAoAUD3b5N423LF8eqNaQw1qyDfWn+tgploBdqL939o+34hEn2jAjUkvXJ1Ob8OTSu6t7VMUAABqb6vc3uILlt/WuAz/tQHbpn/raKJaAXam/d/avtGATL/cuPVp3zzU0gTvyssdOAEAqmtkrm7ZqeElGdXABPes/abpJxnS4Uy1AuxM+781DW7bJePl+dmrgSvUqFzSsvyuzkgHTQCAahucf25BC7ClHbtHvHzurfWW6aZs0vFER+TRxm//Z2Xzjuc+PFNrnek9jV2jTmnBkx6688+NuoECAKDG3pYZAzo1/Hle1+D0PlXjLdO92aqQTLUCPK6Q3EfmrhpnelaDV6nX5ecDym5GA2/vAgCosU3y6SzeqBPDJ/PRRrX9e7Eds7qmG6aHs31hqTa7FeDUwnLfNg/WNNOevKrR69SgfDRPblRyi/PpAq4DAgCg7af+52b+Bl6mPD6bCi431nLD9FSHm9CtqcmtAFcUmvxumVPLVKdbqLJpxmfWBqU2P+dmW8EBANTV5jk509PzkqeFy3J1xna8OVxZ/W0Nt0uLs2/BqTa3FeA5BSe/VxbWMNWPWqiSJEMyNldnWT+umJiekwvoRAFQqEEiABppmxyew7Jv3vSi7/efzf35ZX6RaVkqpueNytyMqNUnWpVjMq3gMYzIfdm1gbPpiexZ+L9d78zPanZtz4rskEWWqudtniNySA7Kni96dsuK/D6/zk2ZnvliAhQAAJplaLbLqzIyozI4i7Iof8g8oazT5TmhRp+mNyfmihKMY2x+0sC5NDbXlGAUx+WqWl3hc3k+aJlap+2yU7bKVunNs3kuT2ZeVgsFAAD+8napThdLn16aXJvXCnBqabI/tVa5HmuRAgAAWmN4nqnNVmlCiXJtWivAYtv/re3s2uQ6Xxd7APpDeysA+qMnu2b/WnyS7+aTJRrNwmyaQxs0j76cK0s0mpuzTd5ai1x/mJ9apAAAgFY5uBbflF6ToSXLdUQebcz3/7NK13N9SK6oRbJvt0ABAACtM6gGG9WbS9n5fWxjCgDHlTD94ZlW+Vwf19QZgP4ZLAIA+qUvF1f8E/w+782KEo7r6lzbiBl0Qym6/69tVY7Pbyqe7OT0WaAA6A8VYwD66w25v8Kjfyxvz5ySjm33/L5mT6V/sZV5cx4q6dh2yG3ZtcLZ7pkHLE8A9IcrAADorwdyd2XH/kyOLO32P3kk59V+9ny1tNv/ZE6OyLzKJnuX7T8AANB6Z1b0HumlObDkyda9FWD52v+tbf88W9Fsx1uYAACA1tsu3RXcIK3KeyqQ7Vjt/wp2WFZUMNnV2d7CBAAAtMPUym2QejOuItl21Xb7P7Uiv4ET01O5bK+3KAEAAO0xrnIbpDMrk+3uWV7L7f+KvLYyv4O/r1y6H7YoAQAA7bF5llRqe/SlSqV7bi0LAOdU6nfwLxXrbjHSogQAALTLxRXaHk2u2ONu69gKsPzt/9Y0KN+rULoXWZAAAID2Oboym6MpGVq5dOvXCvC4yv0OhuSqyqR7lAUJAABon6GZW4mt0R0V++b5z+rVCnBqJX8HI3JLJdJ9KsMsSABsiMEiAGCDrM4VFRjlfTkqSyuZ7xlZUZu5sjKnVXLcyzM291VgnJel24IEgAIAAO1U/vuOn8xRWVDRdB/JebWZKV/NQxUd+YK8O7NKP8oLLUYAAEC7zSj1hdHP5A2VTrcurQBnVfQmjD/bI/NKne/MirW4BKAEXAEAwIa7pMRjW57j8kCl012ef6zFLDm9ojdh/NnMjMmSEo/vwvRZigAAgHZ7TXpL+q3oqpr0Re/S/q8UDs/K0ib8WgsRAADQCXeUckvUm4/WJN/ds7zS2/8Vtdme/nV6Spnw7RYhADbcEBEAsBFG5MgSjupT+bea5Lswm+bQCo//y7myJr+J32V5jijhuL6SOy1DAABAJ2ybVaX7TvSbtUq4yq0Aq97+b23nlS7h7mxnEQIAADrl2pJtiS6qXWPbsZUtABxXs9/EoHy/ZAl3WYAAAIDO+etSbYimZXgNM+7S/q8khuW6UmX8IQsQAADQOZvludJsh+6o2SXnf1bFVoAratqdfvMSNb58LptZgADYGINFAMBGWZaflGQkD+fYij9xfn0eyXmVG/NX81AtfxdLc3QeKMlYfpxlFiAAAKCT3lOKb0P/mF1qnHHVWgHOqum1GP/lVZlVipTfbfEBAAA6a0jmFL4VWpS9a57yWO3/SuSNmV94xnMz1OIDAAB02jcK3gotyyENSPm6ymz/r2vAb+OtWVJwyl+38AAAAJ23f6EbodV5XyNSrkorwJU1bf+3tmPSXWjO+1l4AACAIvy+sG1Qbz7WmJTPrUQB4JzG/D4+nN7CUn7AogMAABTj84VthD7ToJSr0Aqw3u3/1vbZwnL+nEUHAAAoxs4FfRf67YblPFb7v5L5ekHXvexm0QEAAIpyawHboEsyuHE5d5V6+z+1cb+PQflRATn/woIDAAAU59SOb4KmZXgDcy5zK8CmtP9b0/BM63jSp1pwAACA4ozK4o5uge7KyIYmfa72fyUzMnd1NOfFGWXBAQAAivS1Dm6BHs52jc25rK0Am9X+b00vz4MdTPo8iw0AAFCsnTp2cfrs7NropMdq/1c6u2Z2h3Jenp0sNgAAQNG+0qELoEc3Puku7f9KZ68s6EjS/2qhAQAAirdV5nbg+893Crp0rQCb2f5vbe/swG9lbrYSNAAAUAbHtnn705P3CzlJ2VoBnuMX8qf5393mpI8XMgAAUBaT2rr9+biA/6RMrQCb3P5vbR9va9KTBAwAAJRpY3p327Y//yzeFxir/V8pTWhbzvcqtAAAAOWya+a0ZfvzHdGu5bpSbP+v84tYy3fakvOchj/7AgAAKKW9Mr/l25+LMliwaylDK0Dt/15scC5qec7zs5dgAQCAMhrd4ucBfC9DhLoO52r/V0pD8r0W9/736EsAAKC0dsuMFm1+evPFDBLoOhXdClD7v/UZlC+mt0Upz8huAgUAAMpsVK5oweZncd4nyr9grPZ/pfW+LG5BxldklCgBAIDyOyULB7T5mZadhfgSugrb/k8V/kvYOdMGlPDCnCJEAACgKnbIpPRs1ObniXzYpf/9UFQrQO3/+mNQPpwnNirfnkzKDgIEAACq5U25It0btPl5PGdmhOD66Vzt/0ptRM7M4xuUbXeuyJsEBwAAVNNOOTcz+/W98jU5IUMFtkEbzEe1/yu5oTkh12RlP5KdmXOzk8AAAICq2ydnZUrmrXPjf08uyPuztZA2wljt/yph67w/F+SedRYC5mVKzso+QgKg/dxjCUBnN0J7ZNtsk02TPJfZmZtH0y2WAejK0R18txvyHpEPwLDslu2zY0YmWZH5eTozs1AsAAAAvLROtgLU/g8AKm2ICACgwhZm0xzaoff6l1wpcAAAAChGp1oBav8HAAAAhRqr/R8AAAA0QVfbt/9dQgYAAICivToL27r9X5hXCxkAAACKd3xbCwAfEjAAAACUw7fatv3/lnABAACgLIZkSlu2/9dnqHABAACgPDbLTS3f/t+akYIFAACActkiN7d0+39zthAqAAAAlM/w/Khl2/9LM0KgAAAAUE6DcmZWDHjzvyJnZpAwAQAAoMz2zj0D2v7fk72FCAAAAOU3NKdlwUZt/hfkNH3/AQAAoDpG5bN5aoM2/0/lsxklOAAAAKiaTXJipmbVS279V2VqTswmAgOA+tLeBwDqb8u8J4fmgLz5RVv8lflt7swtmZrFYgIABQAAoC7H/R2ya0Zk6yQLszyPZU76xAIAAAAAAAAAAAAAAAAAAAAAAAAAAAAAAAAAAAAAAAAAAAAAAABA7fw/5o7E7qG13NYAAAAldEVYdGRhdGU6Y3JlYXRlADIwMjQtMDctMDZUMTg6MDg6MjYrMDA6MDC8vFf1AAAAJXRFWHRkYXRlOm1vZGlmeQAyMDI0LTA3LTA2VDE4OjA4OjI2KzAwOjAwzeHvSQAAAABJRU5ErkJggg==;" vertex="1" parent="1">
          <mxGeometry x="16" y="104" width="112" height="112" as="geometry" />
        </mxCell>
      </root>
    </mxGraphModel>
  </diagram>
</mxfile>
